<svg xmlns="http://www.w3.org/2000/svg" xml:space="preserve" viewBox="0 0 209.3 209.3" width="30" height="30" fill="#fff"><path d="M203.5 139a104.2 104.2 0 0 0-.4-69.7 104.8 104.8 0 0 0-197.3 1 104.2 104.2 0 0 0 .4 69.7 104.8 104.8 0 0 0 197.3-1zm-98.9 55.3c-4 0-10.4-7.2-15.7-23.3-2.6-7.8-4.7-16.8-6.2-26.5h43.9c-1.5 9.7-3.6 18.7-6.2 26.5-5.3 16-11.8 23.3-15.8 23.3zM81 129.5a277.9 277.9 0 0 1 0-49.7h47.5a277.9 277.9 0 0 1 0 49.7H81zM15 104.6c0-8.6 1.2-17 3.5-24.8h47.3a292 292 0 0 0 0 49.7H18.5a89.4 89.4 0 0 1-3.5-24.9zM104.6 15c4 0 10.5 7.2 15.8 23.3 2.6 7.8 4.7 16.7 6.2 26.5h-44C84.3 55 86.4 46 89 38.3c5.3-16 11.8-23.3 15.7-23.3zm38.9 64.8h47.3a89.4 89.4 0 0 1 0 49.7h-47.3a292 292 0 0 0 0-49.7zm41.4-15h-43.2A144 144 0 0 0 128.1 18a90 90 0 0 1 56.8 46.7zM81.2 18a144 144 0 0 0-13.7 46.7H24.4A90 90 0 0 1 81.2 18zM24.4 144.5h43.1a144 144 0 0 0 13.7 46.7 90 90 0 0 1-56.8-46.7zM128 191.2a144 144 0 0 0 13.6-46.7H185a90 90 0 0 1-56.8 46.7z"/></svg>