<svg width="1280" height="319" fill="none" xmlns="http://www.w3.org/2000/svg"><path d="m960 140.663-28.667-77.402c-52.8-16.2-71.2 60.535-124 44.334L800 110.262 855.8 261h8.333L836 185.031c52.8 16.201 71.2-60.535 124-44.335" fill="#3C81BD"/><path d="m296 268 10.84-28h4.4L322 268h-4.6l-6.4-16.88c-.08-.187-.24-.64-.48-1.36-.213-.72-.467-1.52-.76-2.4l-.8-2.4a41.57 41.57 0 0 0-.48-1.44l.92-.04c-.16.453-.36 1.027-.6 1.72a67.502 67.502 0 0 1-.72 2.2c-.24.773-.48 1.507-.72 2.2-.24.667-.44 1.227-.6 1.68L300.4 268H296Zm4.8-6.96 1.6-4.16h12.72l1.84 4.16H300.8Zm26.128 6.96v-28h11.4c1.52 0 2.893.387 4.12 1.16 1.253.747 2.253 1.773 3 3.08.746 1.307 1.12 2.76 1.12 4.36 0 1.6-.374 3.053-1.12 4.36a8.972 8.972 0 0 1-3 3.16c-1.227.773-2.6 1.16-4.12 1.16h-7.08V268h-4.32Zm4.32-14.88h7c.72 0 1.373-.2 1.96-.6a4.654 4.654 0 0 0 1.4-1.64c.373-.693.56-1.453.56-2.28 0-.827-.187-1.573-.56-2.24a4.302 4.302 0 0 0-1.4-1.6c-.587-.4-1.24-.6-1.96-.6h-7v8.96ZM351.239 268v-4h4.52v-20h-4.52v-4h13.36v4h-4.52v20h4.52v4h-13.36Z" fill="#fff"/><path d="M321.144 223.96c-3.648 0-7.04-.48-10.176-1.44a27.791 27.791 0 0 1-8.448-4.32c-2.496-1.984-4.736-4.416-6.72-7.296l7.104-8.16c3.136 4.48 6.144 7.584 9.024 9.312 2.88 1.728 6.304 2.592 10.272 2.592 2.432 0 4.64-.384 6.624-1.152 1.984-.768 3.552-1.824 4.704-3.168 1.152-1.344 1.728-2.88 1.728-4.608 0-1.152-.192-2.24-.576-3.264-.384-1.024-.992-1.952-1.824-2.784-.768-.832-1.792-1.6-3.072-2.304-1.216-.704-2.656-1.312-4.32-1.824-1.664-.576-3.584-1.056-5.76-1.44-3.456-.704-6.464-1.632-9.024-2.784-2.56-1.152-4.704-2.592-6.432-4.32-1.728-1.728-3.008-3.68-3.84-5.856-.832-2.24-1.248-4.736-1.248-7.488 0-2.688.576-5.184 1.728-7.488a19.069 19.069 0 0 1 4.896-5.952c2.112-1.728 4.576-3.04 7.392-3.936 2.816-.96 5.856-1.44 9.12-1.44 3.456 0 6.624.448 9.504 1.344 2.88.896 5.44 2.24 7.68 4.032 2.24 1.728 4.096 3.872 5.568 6.432l-7.296 7.2c-1.28-2.112-2.72-3.872-4.32-5.28-1.6-1.472-3.36-2.56-5.28-3.264-1.92-.768-3.968-1.152-6.144-1.152-2.496 0-4.672.384-6.528 1.152-1.856.768-3.328 1.856-4.416 3.264-1.024 1.344-1.536 2.944-1.536 4.8 0 1.344.256 2.592.768 3.744.512 1.088 1.28 2.08 2.304 2.976 1.088.832 2.528 1.6 4.32 2.304 1.792.64 3.936 1.216 6.432 1.728 3.52.768 6.656 1.76 9.408 2.976 2.752 1.152 5.088 2.528 7.008 4.128s3.36 3.392 4.32 5.376c1.024 1.984 1.536 4.128 1.536 6.432 0 4.288-.992 8-2.976 11.136-1.984 3.136-4.8 5.568-8.448 7.296-3.648 1.664-8 2.496-13.056 2.496Zm54.338 0c-3.584 0-6.72-.832-9.408-2.496-2.624-1.664-4.672-4-6.144-7.008-1.408-3.008-2.112-6.592-2.112-10.752V172.6h9.888v28.416c0 2.944.448 5.504 1.344 7.68.96 2.112 2.304 3.744 4.032 4.896 1.792 1.152 3.936 1.728 6.432 1.728 1.856 0 3.552-.288 5.088-.864 1.536-.64 2.848-1.504 3.936-2.592 1.152-1.088 2.048-2.4 2.688-3.936.64-1.536.96-3.2.96-4.992V172.6h9.888V223h-9.888v-10.56l1.728-1.152c-.768 2.368-2.08 4.512-3.936 6.432-1.792 1.92-3.936 3.456-6.432 4.608-2.496 1.088-5.184 1.632-8.064 1.632Zm40.461-.96v-50.4h9.888v10.368l-1.728 1.152c.64-2.24 1.888-4.288 3.744-6.144 1.856-1.92 4.064-3.456 6.624-4.608 2.56-1.216 5.184-1.824 7.872-1.824 3.84 0 7.04.768 9.6 2.304 2.56 1.472 4.48 3.744 5.76 6.816 1.28 3.072 1.92 6.944 1.92 11.616V223h-9.888v-30.048c0-2.88-.384-5.248-1.152-7.104-.768-1.92-1.952-3.296-3.552-4.128-1.6-.896-3.584-1.28-5.952-1.152-1.92 0-3.68.32-5.28.96a12.731 12.731 0 0 0-4.224 2.496 12.86 12.86 0 0 0-2.784 3.84c-.64 1.408-.96 2.944-.96 4.608V223h-9.888Zm78.118.96c-4.608 0-8.736-1.12-12.384-3.36-3.584-2.304-6.432-5.408-8.544-9.312-2.112-3.968-3.168-8.48-3.168-13.536 0-5.056 1.024-9.536 3.072-13.44 2.112-3.968 4.96-7.072 8.544-9.312 3.584-2.304 7.648-3.456 12.192-3.456 2.496 0 4.896.416 7.2 1.248 2.368.768 4.48 1.856 6.336 3.264 1.856 1.344 3.296 2.848 4.32 4.512 1.088 1.6 1.632 3.232 1.632 4.896l-2.88.192V151.96h9.888V223h-9.888v-12h1.92c0 1.536-.512 3.072-1.536 4.608-1.024 1.472-2.4 2.848-4.128 4.128-1.664 1.28-3.616 2.304-5.856 3.072a20.048 20.048 0 0 1-6.72 1.152Zm1.344-8.544c3.008 0 5.664-.768 7.968-2.304 2.304-1.536 4.096-3.616 5.376-6.24 1.344-2.688 2.016-5.728 2.016-9.12 0-3.392-.672-6.4-2.016-9.024-1.28-2.688-3.072-4.8-5.376-6.336-2.304-1.536-4.96-2.304-7.968-2.304s-5.664.768-7.968 2.304c-2.304 1.536-4.128 3.648-5.472 6.336-1.28 2.624-1.92 5.632-1.92 9.024 0 3.392.64 6.432 1.92 9.12 1.344 2.624 3.168 4.704 5.472 6.24 2.304 1.536 4.96 2.304 7.968 2.304ZM533.881 223v-50.4h9.984v15.84l-.96-3.84c.704-2.432 1.888-4.64 3.552-6.624 1.728-1.984 3.68-3.552 5.856-4.704 2.24-1.152 4.544-1.728 6.912-1.728 1.088 0 2.112.096 3.072.288 1.024.192 1.824.416 2.4.672l-2.592 10.752a13.752 13.752 0 0 0-2.592-.768 9.744 9.744 0 0 0-2.688-.384c-1.728 0-3.392.352-4.992 1.056a12.71 12.71 0 0 0-4.128 2.784c-1.152 1.152-2.08 2.528-2.784 4.128-.704 1.536-1.056 3.232-1.056 5.088V223h-9.984Zm40.351 0v-50.4h9.888V223h-9.888Zm4.8-61.536c-2.112 0-3.744-.544-4.896-1.632-1.152-1.088-1.728-2.624-1.728-4.608 0-1.856.576-3.36 1.728-4.512 1.216-1.152 2.848-1.728 4.896-1.728 2.112 0 3.744.544 4.896 1.632 1.152 1.088 1.728 2.624 1.728 4.608 0 1.856-.608 3.36-1.824 4.512-1.152 1.152-2.752 1.728-4.8 1.728Zm43.806 62.496c-5.184 0-9.792-1.088-13.824-3.264-3.968-2.24-7.104-5.28-9.408-9.12-2.24-3.84-3.36-8.256-3.36-13.248 0-3.968.64-7.584 1.92-10.848 1.28-3.264 3.04-6.08 5.28-8.448a23.166 23.166 0 0 1 8.16-5.568c3.2-1.344 6.656-2.016 10.368-2.016 3.264 0 6.304.64 9.12 1.92 2.816 1.216 5.248 2.912 7.296 5.088 2.112 2.176 3.712 4.768 4.8 7.776 1.152 2.944 1.696 6.176 1.632 9.696l-.096 4.224h-41.184l-2.208-7.872h34.848l-1.44 1.632v-2.304c-.192-2.112-.896-4-2.112-5.664a13.051 13.051 0 0 0-4.608-3.936c-1.856-.96-3.872-1.44-6.048-1.44-3.456 0-6.368.672-8.736 2.016-2.368 1.28-4.16 3.2-5.376 5.76-1.216 2.496-1.824 5.6-1.824 9.312 0 3.52.736 6.592 2.208 9.216 1.472 2.56 3.552 4.544 6.24 5.952 2.688 1.408 5.792 2.112 9.312 2.112 2.496 0 4.8-.416 6.912-1.248 2.176-.832 4.512-2.336 7.008-4.512l4.992 7.008c-1.536 1.536-3.424 2.88-5.664 4.032a35.556 35.556 0 0 1-7.008 2.784c-2.432.64-4.832.96-7.2.96Zm49.53 0c-4.224 0-8.032-.736-11.424-2.208-3.392-1.472-6.208-3.648-8.448-6.528l6.72-5.76c1.92 2.24 4 3.872 6.24 4.896 2.304.96 4.896 1.44 7.776 1.44 1.152 0 2.208-.128 3.168-.384 1.024-.32 1.888-.768 2.592-1.344.768-.576 1.344-1.248 1.728-2.016a6.336 6.336 0 0 0 .576-2.688c0-1.664-.608-3.008-1.824-4.032-.64-.448-1.664-.928-3.072-1.44-1.344-.576-3.104-1.152-5.28-1.728-3.712-.96-6.752-2.048-9.12-3.264-2.368-1.216-4.192-2.592-5.472-4.128a12.372 12.372 0 0 1-2.112-3.936c-.448-1.472-.672-3.072-.672-4.8 0-2.112.448-4.032 1.344-5.76a14.79 14.79 0 0 1 3.84-4.608c1.664-1.344 3.584-2.368 5.76-3.072 2.24-.704 4.608-1.056 7.104-1.056 2.368 0 4.704.32 7.008.96 2.368.64 4.544 1.568 6.528 2.784 1.984 1.216 3.648 2.656 4.992 4.32l-5.664 6.24a21.465 21.465 0 0 0-4.032-3.168c-1.408-.96-2.848-1.696-4.32-2.208-1.472-.512-2.816-.768-4.032-.768-1.344 0-2.56.128-3.648.384s-2.016.64-2.784 1.152a5.244 5.244 0 0 0-1.632 1.92c-.384.768-.576 1.632-.576 2.592.064.832.256 1.632.576 2.4a5.992 5.992 0 0 0 1.536 1.824c.704.512 1.76 1.056 3.168 1.632 1.408.576 3.2 1.12 5.376 1.632 3.2.832 5.824 1.76 7.872 2.784 2.112.96 3.776 2.08 4.992 3.36 1.28 1.216 2.176 2.624 2.688 4.224s.768 3.392.768 5.376c0 2.88-.832 5.472-2.496 7.776-1.6 2.24-3.776 4-6.528 5.28-2.752 1.28-5.824 1.92-9.216 1.92Z" fill="#3C81BD"/><path d="M327.672 137.96c-4.672 0-8.96-.832-12.864-2.496a29.82 29.82 0 0 1-10.176-7.104c-2.88-3.136-5.12-6.816-6.72-11.04-1.536-4.224-2.304-8.864-2.304-13.92 0-4.8.832-9.248 2.496-13.344 1.728-4.16 4.096-7.808 7.104-10.944a32.151 32.151 0 0 1 10.464-7.296c3.968-1.728 8.256-2.592 12.864-2.592 3.264 0 6.432.512 9.504 1.536 3.136.96 5.952 2.336 8.448 4.128 2.56 1.728 4.64 3.712 6.24 5.952l-6.912 7.2c-1.856-1.856-3.744-3.392-5.664-4.608-1.856-1.28-3.776-2.24-5.76-2.88-1.92-.64-3.872-.96-5.856-.96-3.136 0-6.08.608-8.832 1.824a21.724 21.724 0 0 0-7.104 4.896c-1.984 2.112-3.552 4.64-4.704 7.584-1.152 2.88-1.728 6.048-1.728 9.504 0 3.648.544 6.976 1.632 9.984 1.152 2.944 2.752 5.472 4.8 7.584 2.048 2.112 4.48 3.744 7.296 4.896 2.88 1.088 6.048 1.632 9.504 1.632 2.112 0 4.192-.288 6.24-.864a23.089 23.089 0 0 0 5.76-2.496 25.923 25.923 0 0 0 4.896-3.84l5.184 8.448c-1.472 1.728-3.488 3.296-6.048 4.704-2.496 1.408-5.312 2.528-8.448 3.36a38.255 38.255 0 0 1-9.312 1.152Zm58.052 0c-4.928 0-9.344-1.12-13.248-3.36-3.84-2.304-6.88-5.408-9.12-9.312-2.24-3.968-3.36-8.48-3.36-13.536 0-5.056 1.12-9.536 3.36-13.44 2.24-3.968 5.28-7.072 9.12-9.312 3.904-2.304 8.32-3.456 13.248-3.456 4.864 0 9.216 1.152 13.056 3.456 3.904 2.24 6.976 5.344 9.216 9.312 2.24 3.904 3.36 8.384 3.36 13.44 0 5.056-1.12 9.568-3.36 13.536-2.24 3.904-5.312 7.008-9.216 9.312-3.84 2.24-8.192 3.36-13.056 3.36Zm0-9.024c3.008 0 5.696-.736 8.064-2.208 2.368-1.536 4.224-3.584 5.568-6.144 1.344-2.624 1.984-5.568 1.92-8.832.064-3.328-.576-6.272-1.92-8.832-1.344-2.624-3.2-4.672-5.568-6.144-2.368-1.472-5.056-2.208-8.064-2.208s-5.728.768-8.16 2.304c-2.368 1.472-4.224 3.52-5.568 6.144-1.344 2.56-1.984 5.472-1.92 8.736-.064 3.264.576 6.208 1.92 8.832 1.344 2.56 3.2 4.608 5.568 6.144 2.432 1.472 5.152 2.208 8.16 2.208Zm54.071 9.024c-3.584 0-6.72-.832-9.408-2.496-2.624-1.664-4.672-4-6.144-7.008-1.408-3.008-2.112-6.592-2.112-10.752V86.6h9.888v28.416c0 2.944.448 5.504 1.344 7.68.96 2.112 2.304 3.744 4.032 4.896 1.792 1.152 3.936 1.728 6.432 1.728 1.856 0 3.552-.288 5.088-.864 1.536-.64 2.848-1.504 3.936-2.592 1.152-1.088 2.048-2.4 2.688-3.936.64-1.536.96-3.2.96-4.992V86.6h9.888V137h-9.888v-10.56l1.728-1.152c-.768 2.368-2.08 4.512-3.936 6.432-1.792 1.92-3.936 3.456-6.432 4.608-2.496 1.088-5.184 1.632-8.064 1.632Zm40.461-.96V86.6h9.888v10.368l-1.728 1.152c.64-2.24 1.888-4.288 3.744-6.144 1.856-1.92 4.064-3.456 6.624-4.608 2.56-1.216 5.184-1.824 7.872-1.824 3.84 0 7.04.768 9.6 2.304 2.56 1.472 4.48 3.744 5.76 6.816 1.28 3.072 1.92 6.944 1.92 11.616V137h-9.888v-30.048c0-2.88-.384-5.248-1.152-7.104-.768-1.92-1.952-3.296-3.552-4.128-1.6-.896-3.584-1.28-5.952-1.152-1.92 0-3.68.32-5.28.96a12.731 12.731 0 0 0-4.224 2.496 12.86 12.86 0 0 0-2.784 3.84c-.64 1.408-.96 2.944-.96 4.608V137h-9.888Zm63.334 0V73.736h9.888V137h-9.888Zm-10.464-40.8v-9.6h32.064v9.6h-32.064Zm41.067 40.8V86.6h9.984v15.84l-.96-3.84c.704-2.432 1.888-4.64 3.552-6.624 1.728-1.984 3.68-3.552 5.856-4.704 2.24-1.152 4.544-1.728 6.912-1.728 1.088 0 2.112.096 3.072.288 1.024.192 1.824.416 2.4.672l-2.592 10.752a13.752 13.752 0 0 0-2.592-.768 9.744 9.744 0 0 0-2.688-.384c-1.728 0-3.392.352-4.992 1.056a12.71 12.71 0 0 0-4.128 2.784c-1.152 1.152-2.08 2.528-2.784 4.128-.704 1.536-1.056 3.232-1.056 5.088V137h-9.984Zm40.351 0V86.6h9.888V137h-9.888Zm4.8-61.536c-2.112 0-3.744-.544-4.896-1.632-1.152-1.088-1.728-2.624-1.728-4.608 0-1.856.576-3.36 1.728-4.512 1.216-1.152 2.848-1.728 4.896-1.728 2.112 0 3.744.544 4.896 1.632 1.152 1.088 1.728 2.624 1.728 4.608 0 1.856-.608 3.36-1.824 4.512-1.152 1.152-2.752 1.728-4.8 1.728Zm43.807 62.496c-5.184 0-9.792-1.088-13.824-3.264-3.968-2.24-7.104-5.28-9.408-9.12-2.24-3.84-3.36-8.256-3.36-13.248 0-3.968.64-7.584 1.92-10.848 1.28-3.264 3.04-6.08 5.28-8.448a23.166 23.166 0 0 1 8.16-5.568c3.2-1.344 6.656-2.016 10.368-2.016 3.264 0 6.304.64 9.12 1.92 2.816 1.216 5.248 2.912 7.296 5.088 2.112 2.176 3.712 4.768 4.8 7.776 1.152 2.944 1.696 6.176 1.632 9.696l-.096 4.224h-41.184l-2.208-7.872h34.848l-1.44 1.632v-2.304c-.192-2.112-.896-4-2.112-5.664a13.051 13.051 0 0 0-4.608-3.936c-1.856-.96-3.872-1.44-6.048-1.44-3.456 0-6.368.672-8.736 2.016-2.368 1.28-4.16 3.2-5.376 5.76-1.216 2.496-1.824 5.6-1.824 9.312 0 3.52.736 6.592 2.208 9.216 1.472 2.56 3.552 4.544 6.24 5.952 2.688 1.408 5.792 2.112 9.312 2.112 2.496 0 4.8-.416 6.912-1.248 2.176-.832 4.512-2.336 7.008-4.512l4.992 7.008c-1.536 1.536-3.424 2.88-5.664 4.032a35.556 35.556 0 0 1-7.008 2.784c-2.432.64-4.832.96-7.2.96Zm49.53 0c-4.224 0-8.032-.736-11.424-2.208-3.392-1.472-6.208-3.648-8.448-6.528l6.72-5.76c1.92 2.24 4 3.872 6.24 4.896 2.304.96 4.896 1.44 7.776 1.44 1.152 0 2.208-.128 3.168-.384 1.024-.32 1.888-.768 2.592-1.344.768-.576 1.344-1.248 1.728-2.016a6.336 6.336 0 0 0 .576-2.688c0-1.664-.608-3.008-1.824-4.032-.64-.448-1.664-.928-3.072-1.44-1.344-.576-3.104-1.152-5.28-1.728-3.712-.96-6.752-2.048-9.12-3.264-2.368-1.216-4.192-2.592-5.472-4.128a12.372 12.372 0 0 1-2.112-3.936c-.448-1.472-.672-3.072-.672-4.8 0-2.112.448-4.032 1.344-5.76a14.79 14.79 0 0 1 3.84-4.608c1.664-1.344 3.584-2.368 5.76-3.072 2.24-.704 4.608-1.056 7.104-1.056 2.368 0 4.704.32 7.008.96 2.368.64 4.544 1.568 6.528 2.784 1.984 1.216 3.648 2.656 4.992 4.32l-5.664 6.24a21.465 21.465 0 0 0-4.032-3.168c-1.408-.96-2.848-1.696-4.32-2.208-1.472-.512-2.816-.768-4.032-.768-1.344 0-2.56.128-3.648.384s-2.016.64-2.784 1.152a5.244 5.244 0 0 0-1.632 1.92c-.384.768-.576 1.632-.576 2.592.064.832.256 1.632.576 2.4a5.992 5.992 0 0 0 1.536 1.824c.704.512 1.76 1.056 3.168 1.632 1.408.576 3.2 1.12 5.376 1.632 3.2.832 5.824 1.76 7.872 2.784 2.112.96 3.776 2.08 4.992 3.36 1.28 1.216 2.176 2.624 2.688 4.224s.768 3.392.768 5.376c0 2.88-.832 5.472-2.496 7.776-1.6 2.24-3.776 4-6.528 5.28-2.752 1.28-5.824 1.92-9.216 1.92Z" fill="#fff"/></svg>