<svg width="1280" height="319" viewBox="0 0 1280 319" fill="none" xmlns="http://www.w3.org/2000/svg">
<path d="M1122.19 140.663L1093.53 63.2607C1040.73 47.0603 1022.33 123.796 969.526 107.595L962.193 110.262L1017.99 261H1026.33L998.193 185.031C1050.99 201.232 1069.39 124.496 1122.19 140.696" fill="white"/>
<path d="M136.666 268L147.506 240H151.906L162.666 268H158.066L151.666 251.12C151.586 250.933 151.426 250.48 151.186 249.76C150.972 249.04 150.719 248.24 150.426 247.36C150.132 246.48 149.866 245.68 149.626 244.96C149.386 244.213 149.226 243.733 149.146 243.52L150.066 243.48C149.906 243.933 149.706 244.507 149.466 245.2C149.252 245.893 149.012 246.627 148.746 247.4C148.506 248.173 148.266 248.907 148.026 249.6C147.786 250.267 147.586 250.827 147.426 251.28L141.066 268H136.666ZM141.466 261.04L143.066 256.88H155.786L157.626 261.04H141.466ZM167.593 268V240H178.993C180.513 240 181.887 240.387 183.113 241.16C184.367 241.907 185.367 242.933 186.113 244.24C186.86 245.547 187.233 247 187.233 248.6C187.233 250.2 186.86 251.653 186.113 252.96C185.367 254.267 184.367 255.32 183.113 256.12C181.887 256.893 180.513 257.28 178.993 257.28H171.913V268H167.593ZM171.913 253.12H178.913C179.633 253.12 180.287 252.92 180.873 252.52C181.46 252.093 181.927 251.547 182.273 250.88C182.647 250.187 182.833 249.427 182.833 248.6C182.833 247.773 182.647 247.027 182.273 246.36C181.927 245.693 181.46 245.16 180.873 244.76C180.287 244.36 179.633 244.16 178.913 244.16H171.913V253.12ZM191.905 268V264H196.425V244H191.905V240H205.265V244H200.745V264H205.265V268H191.905Z" fill="white"/>
<path d="M159.144 223.96C155.496 223.96 152.104 223.48 148.968 222.52C145.896 221.56 143.08 220.12 140.52 218.2C138.024 216.216 135.784 213.784 133.8 210.904L140.904 202.744C144.04 207.224 147.048 210.328 149.928 212.056C152.808 213.784 156.232 214.648 160.2 214.648C162.632 214.648 164.84 214.264 166.824 213.496C168.808 212.728 170.376 211.672 171.528 210.328C172.68 208.984 173.256 207.448 173.256 205.72C173.256 204.568 173.064 203.48 172.68 202.456C172.296 201.432 171.688 200.504 170.856 199.672C170.088 198.84 169.064 198.072 167.784 197.368C166.568 196.664 165.128 196.056 163.464 195.544C161.8 194.968 159.88 194.488 157.704 194.104C154.248 193.4 151.24 192.472 148.68 191.32C146.12 190.168 143.976 188.728 142.248 187C140.52 185.272 139.24 183.32 138.408 181.144C137.576 178.904 137.16 176.408 137.16 173.656C137.16 170.968 137.736 168.472 138.888 166.168C140.104 163.864 141.736 161.88 143.784 160.216C145.896 158.488 148.36 157.176 151.176 156.28C153.992 155.32 157.032 154.84 160.296 154.84C163.752 154.84 166.92 155.288 169.8 156.184C172.68 157.08 175.24 158.424 177.48 160.216C179.72 161.944 181.576 164.088 183.048 166.648L175.752 173.848C174.472 171.736 173.032 169.976 171.432 168.568C169.832 167.096 168.072 166.008 166.152 165.304C164.232 164.536 162.184 164.152 160.008 164.152C157.512 164.152 155.336 164.536 153.48 165.304C151.624 166.072 150.152 167.16 149.064 168.568C148.04 169.912 147.528 171.512 147.528 173.368C147.528 174.712 147.784 175.96 148.296 177.112C148.808 178.2 149.576 179.192 150.6 180.088C151.688 180.92 153.128 181.688 154.92 182.392C156.712 183.032 158.856 183.608 161.352 184.12C164.872 184.888 168.008 185.88 170.76 187.096C173.512 188.248 175.848 189.624 177.768 191.224C179.688 192.824 181.128 194.616 182.088 196.6C183.112 198.584 183.624 200.728 183.624 203.032C183.624 207.32 182.632 211.032 180.648 214.168C178.664 217.304 175.848 219.736 172.2 221.464C168.552 223.128 164.2 223.96 159.144 223.96ZM213.482 223.96C209.898 223.96 206.762 223.128 204.074 221.464C201.45 219.8 199.402 217.464 197.93 214.456C196.522 211.448 195.818 207.864 195.818 203.704V172.6H205.706V201.016C205.706 203.96 206.154 206.52 207.05 208.696C208.01 210.808 209.354 212.44 211.082 213.592C212.874 214.744 215.018 215.32 217.514 215.32C219.37 215.32 221.066 215.032 222.602 214.456C224.138 213.816 225.45 212.952 226.538 211.864C227.69 210.776 228.586 209.464 229.226 207.928C229.866 206.392 230.186 204.728 230.186 202.936V172.6H240.074V223H230.186V212.44L231.914 211.288C231.146 213.656 229.834 215.8 227.978 217.72C226.186 219.64 224.042 221.176 221.546 222.328C219.05 223.416 216.362 223.96 213.482 223.96ZM253.943 223V172.6H263.831V182.968L262.103 184.12C262.743 181.88 263.991 179.832 265.847 177.976C267.703 176.056 269.911 174.52 272.471 173.368C275.031 172.152 277.655 171.544 280.343 171.544C284.183 171.544 287.383 172.312 289.943 173.848C292.503 175.32 294.423 177.592 295.703 180.664C296.983 183.736 297.623 187.608 297.623 192.28V223H287.735V192.952C287.735 190.072 287.351 187.704 286.583 185.848C285.815 183.928 284.631 182.552 283.031 181.72C281.431 180.824 279.447 180.44 277.079 180.568C275.159 180.568 273.399 180.888 271.799 181.528C270.199 182.104 268.791 182.936 267.575 184.024C266.423 185.112 265.495 186.392 264.791 187.864C264.151 189.272 263.831 190.808 263.831 192.472V223H258.935C258.103 223 257.271 223 256.439 223C255.607 223 254.775 223 253.943 223ZM332.061 223.96C327.453 223.96 323.325 222.84 319.677 220.6C316.093 218.296 313.245 215.192 311.133 211.288C309.021 207.32 307.965 202.808 307.965 197.752C307.965 192.696 308.989 188.216 311.037 184.312C313.149 180.344 315.997 177.24 319.581 175C323.165 172.696 327.229 171.544 331.773 171.544C334.269 171.544 336.669 171.96 338.973 172.792C341.341 173.56 343.453 174.648 345.309 176.056C347.165 177.4 348.605 178.904 349.629 180.568C350.717 182.168 351.261 183.8 351.261 185.464L348.381 185.656V151.96H358.269V223H348.381V211H350.301C350.301 212.536 349.789 214.072 348.765 215.608C347.741 217.08 346.365 218.456 344.637 219.736C342.973 221.016 341.021 222.04 338.781 222.808C336.605 223.576 334.365 223.96 332.061 223.96ZM333.405 215.416C336.413 215.416 339.069 214.648 341.373 213.112C343.677 211.576 345.469 209.496 346.749 206.872C348.093 204.184 348.765 201.144 348.765 197.752C348.765 194.36 348.093 191.352 346.749 188.728C345.469 186.04 343.677 183.928 341.373 182.392C339.069 180.856 336.413 180.088 333.405 180.088C330.397 180.088 327.741 180.856 325.437 182.392C323.133 183.928 321.309 186.04 319.965 188.728C318.685 191.352 318.045 194.36 318.045 197.752C318.045 201.144 318.685 204.184 319.965 206.872C321.309 209.496 323.133 211.576 325.437 213.112C327.741 214.648 330.397 215.416 333.405 215.416ZM371.881 223V172.6H381.865V188.44L380.905 184.6C381.609 182.168 382.793 179.96 384.457 177.976C386.185 175.992 388.137 174.424 390.313 173.272C392.553 172.12 394.857 171.544 397.225 171.544C398.313 171.544 399.337 171.64 400.297 171.832C401.321 172.024 402.121 172.248 402.697 172.504L400.105 183.256C399.337 182.936 398.473 182.68 397.513 182.488C396.617 182.232 395.721 182.104 394.825 182.104C393.097 182.104 391.433 182.456 389.833 183.16C388.297 183.8 386.921 184.728 385.705 185.944C384.553 187.096 383.625 188.472 382.921 190.072C382.217 191.608 381.865 193.304 381.865 195.16V223H371.881ZM412.232 223V172.6H422.12V223H412.232ZM417.032 161.464C414.92 161.464 413.288 160.92 412.136 159.832C410.984 158.744 410.408 157.208 410.408 155.224C410.408 153.368 410.984 151.864 412.136 150.712C413.352 149.56 414.984 148.984 417.032 148.984C419.144 148.984 420.776 149.528 421.928 150.616C423.08 151.704 423.656 153.24 423.656 155.224C423.656 157.08 423.048 158.584 421.832 159.736C420.68 160.888 419.08 161.464 417.032 161.464ZM460.838 223.96C455.654 223.96 451.046 222.872 447.014 220.696C443.046 218.456 439.91 215.416 437.606 211.576C435.366 207.736 434.246 203.32 434.246 198.328C434.246 194.36 434.886 190.744 436.166 187.48C437.446 184.216 439.206 181.4 441.446 179.032C443.75 176.6 446.47 174.744 449.606 173.464C452.806 172.12 456.262 171.448 459.974 171.448C463.238 171.448 466.278 172.088 469.094 173.368C471.91 174.584 474.342 176.28 476.39 178.456C478.502 180.632 480.102 183.224 481.19 186.232C482.342 189.176 482.886 192.408 482.822 195.928L482.726 200.152H441.542L439.334 192.28H474.182L472.742 193.912V191.608C472.55 189.496 471.846 187.608 470.63 185.944C469.414 184.28 467.878 182.968 466.022 182.008C464.166 181.048 462.15 180.568 459.974 180.568C456.518 180.568 453.606 181.24 451.238 182.584C448.87 183.864 447.078 185.784 445.862 188.344C444.646 190.84 444.038 193.944 444.038 197.656C444.038 201.176 444.774 204.248 446.246 206.872C447.718 209.432 449.798 211.416 452.486 212.824C455.174 214.232 458.278 214.936 461.798 214.936C464.294 214.936 466.598 214.52 468.71 213.688C470.886 212.856 473.222 211.352 475.718 209.176L480.71 216.184C479.174 217.72 477.286 219.064 475.046 220.216C472.87 221.368 470.534 222.296 468.038 223C465.606 223.64 463.206 223.96 460.838 223.96ZM510.368 223.96C506.144 223.96 502.336 223.224 498.944 221.752C495.552 220.28 492.736 218.104 490.496 215.224L497.216 209.464C499.136 211.704 501.216 213.336 503.456 214.36C505.76 215.32 508.352 215.8 511.232 215.8C512.384 215.8 513.44 215.672 514.4 215.416C515.424 215.096 516.288 214.648 516.992 214.072C517.76 213.496 518.336 212.824 518.72 212.056C519.104 211.224 519.296 210.328 519.296 209.368C519.296 207.704 518.688 206.36 517.472 205.336C516.832 204.888 515.808 204.408 514.4 203.896C513.056 203.32 511.296 202.744 509.12 202.168C505.408 201.208 502.368 200.12 500 198.904C497.632 197.688 495.808 196.312 494.528 194.776C493.568 193.56 492.864 192.248 492.416 190.84C491.968 189.368 491.744 187.768 491.744 186.04C491.744 183.928 492.192 182.008 493.088 180.28C494.048 178.488 495.328 176.952 496.928 175.672C498.592 174.328 500.512 173.304 502.688 172.6C504.928 171.896 507.296 171.544 509.792 171.544C512.16 171.544 514.496 171.864 516.8 172.504C519.168 173.144 521.344 174.072 523.328 175.288C525.312 176.504 526.976 177.944 528.32 179.608L522.656 185.848C521.44 184.632 520.096 183.576 518.624 182.68C517.216 181.72 515.776 180.984 514.304 180.472C512.832 179.96 511.488 179.704 510.272 179.704C508.928 179.704 507.712 179.832 506.624 180.088C505.536 180.344 504.608 180.728 503.84 181.24C503.136 181.752 502.592 182.392 502.208 183.16C501.824 183.928 501.632 184.792 501.632 185.752C501.696 186.584 501.888 187.384 502.208 188.152C502.592 188.856 503.104 189.464 503.744 189.976C504.448 190.488 505.504 191.032 506.912 191.608C508.32 192.184 510.112 192.728 512.288 193.24C515.488 194.072 518.112 195 520.16 196.024C522.272 196.984 523.936 198.104 525.152 199.384C526.432 200.6 527.328 202.008 527.84 203.608C528.352 205.208 528.608 207 528.608 208.984C528.608 211.864 527.776 214.456 526.112 216.76C524.512 219 522.336 220.76 519.584 222.04C516.832 223.32 513.76 223.96 510.368 223.96Z" fill="#23344B"/>
<path d="M165.672 137.96C161 137.96 156.712 137.128 152.808 135.464C148.904 133.8 145.512 131.432 142.632 128.36C139.752 125.224 137.512 121.544 135.912 117.32C134.376 113.096 133.608 108.456 133.608 103.4C133.608 98.6 134.44 94.152 136.104 90.056C137.832 85.896 140.2 82.248 143.208 79.112C146.216 75.976 149.704 73.544 153.672 71.816C157.64 70.088 161.928 69.224 166.536 69.224C169.8 69.224 172.968 69.736 176.04 70.76C179.176 71.72 181.992 73.096 184.488 74.888C187.048 76.616 189.128 78.6 190.728 80.84L183.816 88.04C181.96 86.184 180.072 84.648 178.152 83.432C176.296 82.152 174.376 81.192 172.392 80.552C170.472 79.912 168.52 79.592 166.536 79.592C163.4 79.592 160.456 80.2 157.704 81.416C155.016 82.568 152.648 84.2 150.6 86.312C148.616 88.424 147.048 90.952 145.896 93.896C144.744 96.776 144.168 99.944 144.168 103.4C144.168 107.048 144.712 110.376 145.8 113.384C146.952 116.328 148.552 118.856 150.6 120.968C152.648 123.08 155.08 124.712 157.896 125.864C160.776 126.952 163.944 127.496 167.4 127.496C169.512 127.496 171.592 127.208 173.64 126.632C175.688 126.056 177.608 125.224 179.4 124.136C181.192 123.048 182.824 121.768 184.296 120.296L189.48 128.744C188.008 130.472 185.992 132.04 183.432 133.448C180.936 134.856 178.12 135.976 174.984 136.808C171.912 137.576 168.808 137.96 165.672 137.96ZM223.724 137.96C218.796 137.96 214.38 136.84 210.476 134.6C206.636 132.296 203.596 129.192 201.356 125.288C199.116 121.32 197.996 116.808 197.996 111.752C197.996 106.696 199.116 102.216 201.356 98.312C203.596 94.344 206.636 91.24 210.476 89C214.38 86.696 218.796 85.544 223.724 85.544C228.588 85.544 232.94 86.696 236.78 89C240.684 91.24 243.756 94.344 245.996 98.312C248.236 102.216 249.356 106.696 249.356 111.752C249.356 116.808 248.236 121.32 245.996 125.288C243.756 129.192 240.684 132.296 236.78 134.6C232.94 136.84 228.588 137.96 223.724 137.96ZM223.724 128.936C226.732 128.936 229.42 128.2 231.788 126.728C234.156 125.192 236.012 123.144 237.356 120.584C238.7 117.96 239.34 115.016 239.276 111.752C239.34 108.424 238.7 105.48 237.356 102.92C236.012 100.296 234.156 98.248 231.788 96.776C229.42 95.304 226.732 94.568 223.724 94.568C220.716 94.568 217.996 95.336 215.564 96.872C213.196 98.344 211.34 100.392 209.996 103.016C208.652 105.576 208.012 108.488 208.076 111.752C208.012 115.016 208.652 117.96 209.996 120.584C211.34 123.144 213.196 125.192 215.564 126.728C217.996 128.2 220.716 128.936 223.724 128.936ZM277.795 137.96C274.211 137.96 271.075 137.128 268.387 135.464C265.763 133.8 263.715 131.464 262.243 128.456C260.835 125.448 260.131 121.864 260.131 117.704V86.6H270.019V115.016C270.019 117.96 270.467 120.52 271.363 122.696C272.323 124.808 273.667 126.44 275.395 127.592C277.187 128.744 279.331 129.32 281.827 129.32C283.683 129.32 285.379 129.032 286.915 128.456C288.451 127.816 289.763 126.952 290.851 125.864C292.003 124.776 292.899 123.464 293.539 121.928C294.179 120.392 294.499 118.728 294.499 116.936V86.6H304.387V137H294.499V126.44L296.227 125.288C295.459 127.656 294.147 129.8 292.291 131.72C290.499 133.64 288.355 135.176 285.859 136.328C283.363 137.416 280.675 137.96 277.795 137.96ZM318.256 137V86.6H328.144V96.968L326.416 98.12C327.056 95.88 328.304 93.832 330.16 91.976C332.016 90.056 334.224 88.52 336.784 87.368C339.344 86.152 341.968 85.544 344.656 85.544C348.496 85.544 351.696 86.312 354.256 87.848C356.816 89.32 358.736 91.592 360.016 94.664C361.296 97.736 361.936 101.608 361.936 106.28V137H352.048V106.952C352.048 104.072 351.664 101.704 350.896 99.848C350.128 97.928 348.944 96.552 347.344 95.72C345.744 94.824 343.76 94.44 341.392 94.568C339.472 94.568 337.712 94.888 336.112 95.528C334.512 96.104 333.104 96.936 331.888 98.024C330.736 99.112 329.808 100.392 329.104 101.864C328.464 103.272 328.144 104.808 328.144 106.472V137H323.248C322.416 137 321.584 137 320.752 137C319.92 137 319.088 137 318.256 137ZM381.59 137V73.736H391.478V137H381.59ZM371.126 96.2V86.6H403.19V96.2H371.126ZM412.193 137V86.6H422.177V102.44L421.217 98.6C421.921 96.168 423.105 93.96 424.769 91.976C426.497 89.992 428.449 88.424 430.625 87.272C432.865 86.12 435.169 85.544 437.537 85.544C438.625 85.544 439.649 85.64 440.609 85.832C441.633 86.024 442.433 86.248 443.009 86.504L440.417 97.256C439.649 96.936 438.785 96.68 437.825 96.488C436.929 96.232 436.033 96.104 435.137 96.104C433.409 96.104 431.745 96.456 430.145 97.16C428.609 97.8 427.233 98.728 426.017 99.944C424.865 101.096 423.937 102.472 423.233 104.072C422.529 105.608 422.177 107.304 422.177 109.16V137H412.193ZM452.544 137V86.6H462.432V137H452.544ZM457.344 75.464C455.232 75.464 453.6 74.92 452.448 73.832C451.296 72.744 450.72 71.208 450.72 69.224C450.72 67.368 451.296 65.864 452.448 64.712C453.664 63.56 455.296 62.984 457.344 62.984C459.456 62.984 461.088 63.528 462.24 64.616C463.392 65.704 463.968 67.24 463.968 69.224C463.968 71.08 463.36 72.584 462.144 73.736C460.992 74.888 459.392 75.464 457.344 75.464ZM501.151 137.96C495.967 137.96 491.359 136.872 487.327 134.696C483.359 132.456 480.223 129.416 477.919 125.576C475.679 121.736 474.559 117.32 474.559 112.328C474.559 108.36 475.199 104.744 476.479 101.48C477.759 98.216 479.519 95.4 481.759 93.032C484.063 90.6 486.783 88.744 489.919 87.464C493.119 86.12 496.575 85.448 500.287 85.448C503.551 85.448 506.591 86.088 509.407 87.368C512.223 88.584 514.655 90.28 516.703 92.456C518.815 94.632 520.415 97.224 521.503 100.232C522.655 103.176 523.199 106.408 523.135 109.928L523.039 114.152H481.855L479.647 106.28H514.495L513.055 107.912V105.608C512.863 103.496 512.159 101.608 510.943 99.944C509.727 98.28 508.191 96.968 506.335 96.008C504.479 95.048 502.463 94.568 500.287 94.568C496.831 94.568 493.919 95.24 491.551 96.584C489.183 97.864 487.391 99.784 486.175 102.344C484.959 104.84 484.351 107.944 484.351 111.656C484.351 115.176 485.087 118.248 486.559 120.872C488.031 123.432 490.111 125.416 492.799 126.824C495.487 128.232 498.591 128.936 502.111 128.936C504.607 128.936 506.911 128.52 509.023 127.688C511.199 126.856 513.535 125.352 516.031 123.176L521.023 130.184C519.487 131.72 517.599 133.064 515.359 134.216C513.183 135.368 510.847 136.296 508.351 137C505.919 137.64 503.519 137.96 501.151 137.96ZM550.681 137.96C546.457 137.96 542.649 137.224 539.257 135.752C535.865 134.28 533.049 132.104 530.809 129.224L537.529 123.464C539.449 125.704 541.529 127.336 543.769 128.36C546.073 129.32 548.665 129.8 551.545 129.8C552.697 129.8 553.753 129.672 554.713 129.416C555.737 129.096 556.601 128.648 557.305 128.072C558.073 127.496 558.649 126.824 559.033 126.056C559.417 125.224 559.609 124.328 559.609 123.368C559.609 121.704 559.001 120.36 557.785 119.336C557.145 118.888 556.121 118.408 554.713 117.896C553.369 117.32 551.609 116.744 549.433 116.168C545.721 115.208 542.681 114.12 540.313 112.904C537.945 111.688 536.121 110.312 534.841 108.776C533.881 107.56 533.177 106.248 532.729 104.84C532.281 103.368 532.057 101.768 532.057 100.04C532.057 97.928 532.505 96.008 533.401 94.28C534.361 92.488 535.641 90.952 537.241 89.672C538.905 88.328 540.825 87.304 543.001 86.6C545.241 85.896 547.609 85.544 550.105 85.544C552.473 85.544 554.809 85.864 557.113 86.504C559.481 87.144 561.657 88.072 563.641 89.288C565.625 90.504 567.289 91.944 568.633 93.608L562.969 99.848C561.753 98.632 560.409 97.576 558.937 96.68C557.529 95.72 556.089 94.984 554.617 94.472C553.145 93.96 551.801 93.704 550.585 93.704C549.241 93.704 548.025 93.832 546.937 94.088C545.849 94.344 544.921 94.728 544.153 95.24C543.449 95.752 542.905 96.392 542.521 97.16C542.137 97.928 541.945 98.792 541.945 99.752C542.009 100.584 542.201 101.384 542.521 102.152C542.905 102.856 543.417 103.464 544.057 103.976C544.761 104.488 545.817 105.032 547.225 105.608C548.633 106.184 550.425 106.728 552.601 107.24C555.801 108.072 558.425 109 560.473 110.024C562.585 110.984 564.249 112.104 565.465 113.384C566.745 114.6 567.641 116.008 568.153 117.608C568.665 119.208 568.921 121 568.921 122.984C568.921 125.864 568.089 128.456 566.425 130.76C564.825 133 562.649 134.76 559.897 136.04C557.145 137.32 554.073 137.96 550.681 137.96Z" fill="white"/>
</svg>
