<svg width="1280" height="319" viewBox="0 0 1280 319" fill="none" xmlns="http://www.w3.org/2000/svg">
<path d="M960 140.663L931.333 63.2607C878.533 47.0603 860.133 123.796 807.333 107.595L800 110.262L855.8 261H864.133L836 185.031C888.8 201.232 907.2 124.496 960 140.696" fill="white"/>
<path d="M296 268L306.84 240H311.24L322 268H317.4L311 251.12C310.92 250.933 310.76 250.48 310.52 249.76C310.307 249.04 310.053 248.24 309.76 247.36C309.467 246.48 309.2 245.68 308.96 244.96C308.72 244.213 308.56 243.733 308.48 243.52L309.4 243.48C309.24 243.933 309.04 244.507 308.8 245.2C308.587 245.893 308.347 246.627 308.08 247.4C307.84 248.173 307.6 248.907 307.36 249.6C307.12 250.267 306.92 250.827 306.76 251.28L300.4 268H296ZM300.8 261.04L302.4 256.88H315.12L316.96 261.04H300.8ZM326.928 268V240H338.328C339.848 240 341.221 240.387 342.448 241.16C343.701 241.907 344.701 242.933 345.448 244.24C346.194 245.547 346.568 247 346.568 248.6C346.568 250.2 346.194 251.653 345.448 252.96C344.701 254.267 343.701 255.32 342.448 256.12C341.221 256.893 339.848 257.28 338.328 257.28H331.248V268H326.928ZM331.248 253.12H338.248C338.968 253.12 339.621 252.92 340.208 252.52C340.794 252.093 341.261 251.547 341.608 250.88C341.981 250.187 342.168 249.427 342.168 248.6C342.168 247.773 341.981 247.027 341.608 246.36C341.261 245.693 340.794 245.16 340.208 244.76C339.621 244.36 338.968 244.16 338.248 244.16H331.248V253.12ZM351.239 268V264H355.759V244H351.239V240H364.599V244H360.079V264H364.599V268H351.239Z" fill="white"/>
<path d="M321.144 223.96C317.496 223.96 314.104 223.48 310.968 222.52C307.896 221.56 305.08 220.12 302.52 218.2C300.024 216.216 297.784 213.784 295.8 210.904L302.904 202.744C306.04 207.224 309.048 210.328 311.928 212.056C314.808 213.784 318.232 214.648 322.2 214.648C324.632 214.648 326.84 214.264 328.824 213.496C330.808 212.728 332.376 211.672 333.528 210.328C334.68 208.984 335.256 207.448 335.256 205.72C335.256 204.568 335.064 203.48 334.68 202.456C334.296 201.432 333.688 200.504 332.856 199.672C332.088 198.84 331.064 198.072 329.784 197.368C328.568 196.664 327.128 196.056 325.464 195.544C323.8 194.968 321.88 194.488 319.704 194.104C316.248 193.4 313.24 192.472 310.68 191.32C308.12 190.168 305.976 188.728 304.248 187C302.52 185.272 301.24 183.32 300.408 181.144C299.576 178.904 299.16 176.408 299.16 173.656C299.16 170.968 299.736 168.472 300.888 166.168C302.104 163.864 303.736 161.88 305.784 160.216C307.896 158.488 310.36 157.176 313.176 156.28C315.992 155.32 319.032 154.84 322.296 154.84C325.752 154.84 328.92 155.288 331.8 156.184C334.68 157.08 337.24 158.424 339.48 160.216C341.72 161.944 343.576 164.088 345.048 166.648L337.752 173.848C336.472 171.736 335.032 169.976 333.432 168.568C331.832 167.096 330.072 166.008 328.152 165.304C326.232 164.536 324.184 164.152 322.008 164.152C319.512 164.152 317.336 164.536 315.48 165.304C313.624 166.072 312.152 167.16 311.064 168.568C310.04 169.912 309.528 171.512 309.528 173.368C309.528 174.712 309.784 175.96 310.296 177.112C310.808 178.2 311.576 179.192 312.6 180.088C313.688 180.92 315.128 181.688 316.92 182.392C318.712 183.032 320.856 183.608 323.352 184.12C326.872 184.888 330.008 185.88 332.76 187.096C335.512 188.248 337.848 189.624 339.768 191.224C341.688 192.824 343.128 194.616 344.088 196.6C345.112 198.584 345.624 200.728 345.624 203.032C345.624 207.32 344.632 211.032 342.648 214.168C340.664 217.304 337.848 219.736 334.2 221.464C330.552 223.128 326.2 223.96 321.144 223.96ZM375.482 223.96C371.898 223.96 368.762 223.128 366.074 221.464C363.45 219.8 361.402 217.464 359.93 214.456C358.522 211.448 357.818 207.864 357.818 203.704V172.6H367.706V201.016C367.706 203.96 368.154 206.52 369.05 208.696C370.01 210.808 371.354 212.44 373.082 213.592C374.874 214.744 377.018 215.32 379.514 215.32C381.37 215.32 383.066 215.032 384.602 214.456C386.138 213.816 387.45 212.952 388.538 211.864C389.69 210.776 390.586 209.464 391.226 207.928C391.866 206.392 392.186 204.728 392.186 202.936V172.6H402.074V223H392.186V212.44L393.914 211.288C393.146 213.656 391.834 215.8 389.978 217.72C388.186 219.64 386.042 221.176 383.546 222.328C381.05 223.416 378.362 223.96 375.482 223.96ZM415.943 223V172.6H425.831V182.968L424.103 184.12C424.743 181.88 425.991 179.832 427.847 177.976C429.703 176.056 431.911 174.52 434.471 173.368C437.031 172.152 439.655 171.544 442.343 171.544C446.183 171.544 449.383 172.312 451.943 173.848C454.503 175.32 456.423 177.592 457.703 180.664C458.983 183.736 459.623 187.608 459.623 192.28V223H449.735V192.952C449.735 190.072 449.351 187.704 448.583 185.848C447.815 183.928 446.631 182.552 445.031 181.72C443.431 180.824 441.447 180.44 439.079 180.568C437.159 180.568 435.399 180.888 433.799 181.528C432.199 182.104 430.791 182.936 429.575 184.024C428.423 185.112 427.495 186.392 426.791 187.864C426.151 189.272 425.831 190.808 425.831 192.472V223H420.935C420.103 223 419.271 223 418.439 223C417.607 223 416.775 223 415.943 223ZM494.061 223.96C489.453 223.96 485.325 222.84 481.677 220.6C478.093 218.296 475.245 215.192 473.133 211.288C471.021 207.32 469.965 202.808 469.965 197.752C469.965 192.696 470.989 188.216 473.037 184.312C475.149 180.344 477.997 177.24 481.581 175C485.165 172.696 489.229 171.544 493.773 171.544C496.269 171.544 498.669 171.96 500.973 172.792C503.341 173.56 505.453 174.648 507.309 176.056C509.165 177.4 510.605 178.904 511.629 180.568C512.717 182.168 513.261 183.8 513.261 185.464L510.381 185.656V151.96H520.269V223H510.381V211H512.301C512.301 212.536 511.789 214.072 510.765 215.608C509.741 217.08 508.365 218.456 506.637 219.736C504.973 221.016 503.021 222.04 500.781 222.808C498.605 223.576 496.365 223.96 494.061 223.96ZM495.405 215.416C498.413 215.416 501.069 214.648 503.373 213.112C505.677 211.576 507.469 209.496 508.749 206.872C510.093 204.184 510.765 201.144 510.765 197.752C510.765 194.36 510.093 191.352 508.749 188.728C507.469 186.04 505.677 183.928 503.373 182.392C501.069 180.856 498.413 180.088 495.405 180.088C492.397 180.088 489.741 180.856 487.437 182.392C485.133 183.928 483.309 186.04 481.965 188.728C480.685 191.352 480.045 194.36 480.045 197.752C480.045 201.144 480.685 204.184 481.965 206.872C483.309 209.496 485.133 211.576 487.437 213.112C489.741 214.648 492.397 215.416 495.405 215.416ZM533.881 223V172.6H543.865V188.44L542.905 184.6C543.609 182.168 544.793 179.96 546.457 177.976C548.185 175.992 550.137 174.424 552.313 173.272C554.553 172.12 556.857 171.544 559.225 171.544C560.313 171.544 561.337 171.64 562.297 171.832C563.321 172.024 564.121 172.248 564.697 172.504L562.105 183.256C561.337 182.936 560.473 182.68 559.513 182.488C558.617 182.232 557.721 182.104 556.825 182.104C555.097 182.104 553.433 182.456 551.833 183.16C550.297 183.8 548.921 184.728 547.705 185.944C546.553 187.096 545.625 188.472 544.921 190.072C544.217 191.608 543.865 193.304 543.865 195.16V223H533.881ZM574.232 223V172.6H584.12V223H574.232ZM579.032 161.464C576.92 161.464 575.288 160.92 574.136 159.832C572.984 158.744 572.408 157.208 572.408 155.224C572.408 153.368 572.984 151.864 574.136 150.712C575.352 149.56 576.984 148.984 579.032 148.984C581.144 148.984 582.776 149.528 583.928 150.616C585.08 151.704 585.656 153.24 585.656 155.224C585.656 157.08 585.048 158.584 583.832 159.736C582.68 160.888 581.08 161.464 579.032 161.464ZM622.838 223.96C617.654 223.96 613.046 222.872 609.014 220.696C605.046 218.456 601.91 215.416 599.606 211.576C597.366 207.736 596.246 203.32 596.246 198.328C596.246 194.36 596.886 190.744 598.166 187.48C599.446 184.216 601.206 181.4 603.446 179.032C605.75 176.6 608.47 174.744 611.606 173.464C614.806 172.12 618.262 171.448 621.974 171.448C625.238 171.448 628.278 172.088 631.094 173.368C633.91 174.584 636.342 176.28 638.39 178.456C640.502 180.632 642.102 183.224 643.19 186.232C644.342 189.176 644.886 192.408 644.822 195.928L644.726 200.152H603.542L601.334 192.28H636.182L634.742 193.912V191.608C634.55 189.496 633.846 187.608 632.63 185.944C631.414 184.28 629.878 182.968 628.022 182.008C626.166 181.048 624.15 180.568 621.974 180.568C618.518 180.568 615.606 181.24 613.238 182.584C610.87 183.864 609.078 185.784 607.862 188.344C606.646 190.84 606.038 193.944 606.038 197.656C606.038 201.176 606.774 204.248 608.246 206.872C609.718 209.432 611.798 211.416 614.486 212.824C617.174 214.232 620.278 214.936 623.798 214.936C626.294 214.936 628.598 214.52 630.71 213.688C632.886 212.856 635.222 211.352 637.718 209.176L642.71 216.184C641.174 217.72 639.286 219.064 637.046 220.216C634.87 221.368 632.534 222.296 630.038 223C627.606 223.64 625.206 223.96 622.838 223.96ZM672.368 223.96C668.144 223.96 664.336 223.224 660.944 221.752C657.552 220.28 654.736 218.104 652.496 215.224L659.216 209.464C661.136 211.704 663.216 213.336 665.456 214.36C667.76 215.32 670.352 215.8 673.232 215.8C674.384 215.8 675.44 215.672 676.4 215.416C677.424 215.096 678.288 214.648 678.992 214.072C679.76 213.496 680.336 212.824 680.72 212.056C681.104 211.224 681.296 210.328 681.296 209.368C681.296 207.704 680.688 206.36 679.472 205.336C678.832 204.888 677.808 204.408 676.4 203.896C675.056 203.32 673.296 202.744 671.12 202.168C667.408 201.208 664.368 200.12 662 198.904C659.632 197.688 657.808 196.312 656.528 194.776C655.568 193.56 654.864 192.248 654.416 190.84C653.968 189.368 653.744 187.768 653.744 186.04C653.744 183.928 654.192 182.008 655.088 180.28C656.048 178.488 657.328 176.952 658.928 175.672C660.592 174.328 662.512 173.304 664.688 172.6C666.928 171.896 669.296 171.544 671.792 171.544C674.16 171.544 676.496 171.864 678.8 172.504C681.168 173.144 683.344 174.072 685.328 175.288C687.312 176.504 688.976 177.944 690.32 179.608L684.656 185.848C683.44 184.632 682.096 183.576 680.624 182.68C679.216 181.72 677.776 180.984 676.304 180.472C674.832 179.96 673.488 179.704 672.272 179.704C670.928 179.704 669.712 179.832 668.624 180.088C667.536 180.344 666.608 180.728 665.84 181.24C665.136 181.752 664.592 182.392 664.208 183.16C663.824 183.928 663.632 184.792 663.632 185.752C663.696 186.584 663.888 187.384 664.208 188.152C664.592 188.856 665.104 189.464 665.744 189.976C666.448 190.488 667.504 191.032 668.912 191.608C670.32 192.184 672.112 192.728 674.288 193.24C677.488 194.072 680.112 195 682.16 196.024C684.272 196.984 685.936 198.104 687.152 199.384C688.432 200.6 689.328 202.008 689.84 203.608C690.352 205.208 690.608 207 690.608 208.984C690.608 211.864 689.776 214.456 688.112 216.76C686.512 219 684.336 220.76 681.584 222.04C678.832 223.32 675.76 223.96 672.368 223.96Z" fill="#3C81BD"/>
<path d="M327.672 137.96C323 137.96 318.712 137.128 314.808 135.464C310.904 133.8 307.512 131.432 304.632 128.36C301.752 125.224 299.512 121.544 297.912 117.32C296.376 113.096 295.608 108.456 295.608 103.4C295.608 98.6 296.44 94.152 298.104 90.056C299.832 85.896 302.2 82.248 305.208 79.112C308.216 75.976 311.704 73.544 315.672 71.816C319.64 70.088 323.928 69.224 328.536 69.224C331.8 69.224 334.968 69.736 338.04 70.76C341.176 71.72 343.992 73.096 346.488 74.888C349.048 76.616 351.128 78.6 352.728 80.84L345.816 88.04C343.96 86.184 342.072 84.648 340.152 83.432C338.296 82.152 336.376 81.192 334.392 80.552C332.472 79.912 330.52 79.592 328.536 79.592C325.4 79.592 322.456 80.2 319.704 81.416C317.016 82.568 314.648 84.2 312.6 86.312C310.616 88.424 309.048 90.952 307.896 93.896C306.744 96.776 306.168 99.944 306.168 103.4C306.168 107.048 306.712 110.376 307.8 113.384C308.952 116.328 310.552 118.856 312.6 120.968C314.648 123.08 317.08 124.712 319.896 125.864C322.776 126.952 325.944 127.496 329.4 127.496C331.512 127.496 333.592 127.208 335.64 126.632C337.688 126.056 339.608 125.224 341.4 124.136C343.192 123.048 344.824 121.768 346.296 120.296L351.48 128.744C350.008 130.472 347.992 132.04 345.432 133.448C342.936 134.856 340.12 135.976 336.984 136.808C333.912 137.576 330.808 137.96 327.672 137.96ZM385.724 137.96C380.796 137.96 376.38 136.84 372.476 134.6C368.636 132.296 365.596 129.192 363.356 125.288C361.116 121.32 359.996 116.808 359.996 111.752C359.996 106.696 361.116 102.216 363.356 98.312C365.596 94.344 368.636 91.24 372.476 89C376.38 86.696 380.796 85.544 385.724 85.544C390.588 85.544 394.94 86.696 398.78 89C402.684 91.24 405.756 94.344 407.996 98.312C410.236 102.216 411.356 106.696 411.356 111.752C411.356 116.808 410.236 121.32 407.996 125.288C405.756 129.192 402.684 132.296 398.78 134.6C394.94 136.84 390.588 137.96 385.724 137.96ZM385.724 128.936C388.732 128.936 391.42 128.2 393.788 126.728C396.156 125.192 398.012 123.144 399.356 120.584C400.7 117.96 401.34 115.016 401.276 111.752C401.34 108.424 400.7 105.48 399.356 102.92C398.012 100.296 396.156 98.248 393.788 96.776C391.42 95.304 388.732 94.568 385.724 94.568C382.716 94.568 379.996 95.336 377.564 96.872C375.196 98.344 373.34 100.392 371.996 103.016C370.652 105.576 370.012 108.488 370.076 111.752C370.012 115.016 370.652 117.96 371.996 120.584C373.34 123.144 375.196 125.192 377.564 126.728C379.996 128.2 382.716 128.936 385.724 128.936ZM439.795 137.96C436.211 137.96 433.075 137.128 430.387 135.464C427.763 133.8 425.715 131.464 424.243 128.456C422.835 125.448 422.131 121.864 422.131 117.704V86.6H432.019V115.016C432.019 117.96 432.467 120.52 433.363 122.696C434.323 124.808 435.667 126.44 437.395 127.592C439.187 128.744 441.331 129.32 443.827 129.32C445.683 129.32 447.379 129.032 448.915 128.456C450.451 127.816 451.763 126.952 452.851 125.864C454.003 124.776 454.899 123.464 455.539 121.928C456.179 120.392 456.499 118.728 456.499 116.936V86.6H466.387V137H456.499V126.44L458.227 125.288C457.459 127.656 456.147 129.8 454.291 131.72C452.499 133.64 450.355 135.176 447.859 136.328C445.363 137.416 442.675 137.96 439.795 137.96ZM480.256 137V86.6H490.144V96.968L488.416 98.12C489.056 95.88 490.304 93.832 492.16 91.976C494.016 90.056 496.224 88.52 498.784 87.368C501.344 86.152 503.968 85.544 506.656 85.544C510.496 85.544 513.696 86.312 516.256 87.848C518.816 89.32 520.736 91.592 522.016 94.664C523.296 97.736 523.936 101.608 523.936 106.28V137H514.048V106.952C514.048 104.072 513.664 101.704 512.896 99.848C512.128 97.928 510.944 96.552 509.344 95.72C507.744 94.824 505.76 94.44 503.392 94.568C501.472 94.568 499.712 94.888 498.112 95.528C496.512 96.104 495.104 96.936 493.888 98.024C492.736 99.112 491.808 100.392 491.104 101.864C490.464 103.272 490.144 104.808 490.144 106.472V137H485.248C484.416 137 483.584 137 482.752 137C481.92 137 481.088 137 480.256 137ZM543.59 137V73.736H553.478V137H543.59ZM533.126 96.2V86.6H565.19V96.2H533.126ZM574.193 137V86.6H584.177V102.44L583.217 98.6C583.921 96.168 585.105 93.96 586.769 91.976C588.497 89.992 590.449 88.424 592.625 87.272C594.865 86.12 597.169 85.544 599.537 85.544C600.625 85.544 601.649 85.64 602.609 85.832C603.633 86.024 604.433 86.248 605.009 86.504L602.417 97.256C601.649 96.936 600.785 96.68 599.825 96.488C598.929 96.232 598.033 96.104 597.137 96.104C595.409 96.104 593.745 96.456 592.145 97.16C590.609 97.8 589.233 98.728 588.017 99.944C586.865 101.096 585.937 102.472 585.233 104.072C584.529 105.608 584.177 107.304 584.177 109.16V137H574.193ZM614.544 137V86.6H624.432V137H614.544ZM619.344 75.464C617.232 75.464 615.6 74.92 614.448 73.832C613.296 72.744 612.72 71.208 612.72 69.224C612.72 67.368 613.296 65.864 614.448 64.712C615.664 63.56 617.296 62.984 619.344 62.984C621.456 62.984 623.088 63.528 624.24 64.616C625.392 65.704 625.968 67.24 625.968 69.224C625.968 71.08 625.36 72.584 624.144 73.736C622.992 74.888 621.392 75.464 619.344 75.464ZM663.151 137.96C657.967 137.96 653.359 136.872 649.327 134.696C645.359 132.456 642.223 129.416 639.919 125.576C637.679 121.736 636.559 117.32 636.559 112.328C636.559 108.36 637.199 104.744 638.479 101.48C639.759 98.216 641.519 95.4 643.759 93.032C646.063 90.6 648.783 88.744 651.919 87.464C655.119 86.12 658.575 85.448 662.287 85.448C665.551 85.448 668.591 86.088 671.407 87.368C674.223 88.584 676.655 90.28 678.703 92.456C680.815 94.632 682.415 97.224 683.503 100.232C684.655 103.176 685.199 106.408 685.135 109.928L685.039 114.152H643.855L641.647 106.28H676.495L675.055 107.912V105.608C674.863 103.496 674.159 101.608 672.943 99.944C671.727 98.28 670.191 96.968 668.335 96.008C666.479 95.048 664.463 94.568 662.287 94.568C658.831 94.568 655.919 95.24 653.551 96.584C651.183 97.864 649.391 99.784 648.175 102.344C646.959 104.84 646.351 107.944 646.351 111.656C646.351 115.176 647.087 118.248 648.559 120.872C650.031 123.432 652.111 125.416 654.799 126.824C657.487 128.232 660.591 128.936 664.111 128.936C666.607 128.936 668.911 128.52 671.023 127.688C673.199 126.856 675.535 125.352 678.031 123.176L683.023 130.184C681.487 131.72 679.599 133.064 677.359 134.216C675.183 135.368 672.847 136.296 670.351 137C667.919 137.64 665.519 137.96 663.151 137.96ZM712.681 137.96C708.457 137.96 704.649 137.224 701.257 135.752C697.865 134.28 695.049 132.104 692.809 129.224L699.529 123.464C701.449 125.704 703.529 127.336 705.769 128.36C708.073 129.32 710.665 129.8 713.545 129.8C714.697 129.8 715.753 129.672 716.713 129.416C717.737 129.096 718.601 128.648 719.305 128.072C720.073 127.496 720.649 126.824 721.033 126.056C721.417 125.224 721.609 124.328 721.609 123.368C721.609 121.704 721.001 120.36 719.785 119.336C719.145 118.888 718.121 118.408 716.713 117.896C715.369 117.32 713.609 116.744 711.433 116.168C707.721 115.208 704.681 114.12 702.313 112.904C699.945 111.688 698.121 110.312 696.841 108.776C695.881 107.56 695.177 106.248 694.729 104.84C694.281 103.368 694.057 101.768 694.057 100.04C694.057 97.928 694.505 96.008 695.401 94.28C696.361 92.488 697.641 90.952 699.241 89.672C700.905 88.328 702.825 87.304 705.001 86.6C707.241 85.896 709.609 85.544 712.105 85.544C714.473 85.544 716.809 85.864 719.113 86.504C721.481 87.144 723.657 88.072 725.641 89.288C727.625 90.504 729.289 91.944 730.633 93.608L724.969 99.848C723.753 98.632 722.409 97.576 720.937 96.68C719.529 95.72 718.089 94.984 716.617 94.472C715.145 93.96 713.801 93.704 712.585 93.704C711.241 93.704 710.025 93.832 708.937 94.088C707.849 94.344 706.921 94.728 706.153 95.24C705.449 95.752 704.905 96.392 704.521 97.16C704.137 97.928 703.945 98.792 703.945 99.752C704.009 100.584 704.201 101.384 704.521 102.152C704.905 102.856 705.417 103.464 706.057 103.976C706.761 104.488 707.817 105.032 709.225 105.608C710.633 106.184 712.425 106.728 714.601 107.24C717.801 108.072 720.425 109 722.473 110.024C724.585 110.984 726.249 112.104 727.465 113.384C728.745 114.6 729.641 116.008 730.153 117.608C730.665 119.208 730.921 121 730.921 122.984C730.921 125.864 730.089 128.456 728.425 130.76C726.825 133 724.649 134.76 721.897 136.04C719.145 137.32 716.073 137.96 712.681 137.96Z" fill="white"/>
</svg>
