<?xml version="1.0" encoding="UTF-8"?>
<svg xmlns="http://www.w3.org/2000/svg" xmlns:xlink="http://www.w3.org/1999/xlink" width="375pt" height="375pt" viewBox="0 0 375 375" version="1.1">
<defs>
<clipPath id="clip1">
  <path d="M 187 177 L 293 177 L 293 188 L 187 188 Z M 187 177 "/>
</clipPath>
<clipPath id="clip2">
  <path d="M 187.496094 187.503906 L 292.699219 187.503906 L 239.089844 177.246094 Z M 187.496094 187.503906 "/>
</clipPath>
<linearGradient id="linear0" gradientUnits="userSpaceOnUse" x1="-207.5223" y1="781.9563" x2="-205.5021" y2="781.9563" gradientTransform="matrix(52.07566,0,0,-52.07566,10994.351702,40903.2506)">
<stop offset="0" style="stop-color:rgb(71.764706%,58.039216%,9.411765%);stop-opacity:1;"/>
<stop offset="0.5664" style="stop-color:rgb(86.666667%,72.54902%,2.745098%);stop-opacity:1;"/>
<stop offset="1" style="stop-color:rgb(86.666667%,72.54902%,2.745098%);stop-opacity:1;"/>
</linearGradient>
<clipPath id="clip3">
  <path d="M 187 187 L 293 187 L 293 198 L 187 198 Z M 187 187 "/>
</clipPath>
<clipPath id="clip4">
  <path d="M 187.496094 187.503906 L 239.089844 197.761719 L 292.699219 187.503906 Z M 187.496094 187.503906 "/>
</clipPath>
<linearGradient id="linear1" gradientUnits="userSpaceOnUse" x1="-207.5223" y1="781.8568" x2="-205.5021" y2="781.8568" gradientTransform="matrix(52.07566,0,0,-52.07566,10994.351702,40908.329065)">
<stop offset="0" style="stop-color:rgb(63.529412%,50.980392%,11.764706%);stop-opacity:1;"/>
<stop offset="0.6172" style="stop-color:rgb(78.823529%,63.529412%,5.490196%);stop-opacity:1;"/>
<stop offset="1" style="stop-color:rgb(78.823529%,63.529412%,5.490196%);stop-opacity:1;"/>
</linearGradient>
<clipPath id="clip5">
  <path d="M 187 187 L 262 187 L 262 262 L 187 262 Z M 187 187 "/>
</clipPath>
<clipPath id="clip6">
  <path d="M 216.71875 231.238281 L 261.886719 261.886719 L 187.496094 187.503906 Z M 216.71875 231.238281 "/>
</clipPath>
<linearGradient id="linear2" gradientUnits="userSpaceOnUse" x1="-208.3347" y1="781.3618" x2="-206.3145" y2="781.3618" gradientTransform="matrix(36.823151,0,0,-36.823151,7859.038162,28996.917827)">
<stop offset="0" style="stop-color:rgb(71.764706%,58.039216%,9.411765%);stop-opacity:1;"/>
<stop offset="0.5469" style="stop-color:rgb(86.666667%,72.54902%,2.745098%);stop-opacity:1;"/>
<stop offset="1" style="stop-color:rgb(86.666667%,72.54902%,2.745098%);stop-opacity:1;"/>
</linearGradient>
<clipPath id="clip7">
  <path d="M 187 113 L 262 113 L 262 188 L 187 188 Z M 187 113 "/>
</clipPath>
<clipPath id="clip8">
  <path d="M 216.726562 143.769531 L 187.496094 187.503906 L 261.886719 113.113281 Z M 216.726562 143.769531 "/>
</clipPath>
<linearGradient id="linear3" gradientUnits="userSpaceOnUse" x1="-208.3345" y1="782.382" x2="-206.3143" y2="782.382" gradientTransform="matrix(36.824897,0,0,-36.824897,7859.389421,28961.429952)">
<stop offset="0" style="stop-color:rgb(71.764706%,58.039216%,9.411765%);stop-opacity:1;"/>
<stop offset="0.4727" style="stop-color:rgb(90.980392%,79.215686%,15.686275%);stop-opacity:1;"/>
<stop offset="1" style="stop-color:rgb(90.980392%,79.215686%,15.686275%);stop-opacity:1;"/>
</linearGradient>
<clipPath id="clip9">
  <path d="M 187 113 L 262 113 L 262 188 L 187 188 Z M 187 113 "/>
</clipPath>
<clipPath id="clip10">
  <path d="M 187.496094 187.503906 L 231.230469 158.28125 L 261.886719 113.113281 Z M 187.496094 187.503906 "/>
</clipPath>
<linearGradient id="linear4" gradientUnits="userSpaceOnUse" x1="-208.3345" y1="782.382" x2="-206.3143" y2="782.382" gradientTransform="matrix(36.824897,0,0,-36.824897,7859.389421,28961.429952)">
<stop offset="0" style="stop-color:rgb(63.529412%,50.980392%,11.764706%);stop-opacity:1;"/>
<stop offset="0.6641" style="stop-color:rgb(71.764706%,58.039216%,9.411765%);stop-opacity:1;"/>
<stop offset="1" style="stop-color:rgb(71.764706%,58.039216%,9.411765%);stop-opacity:1;"/>
</linearGradient>
<clipPath id="clip11">
  <path d="M 187 187 L 220 187 L 220 266 L 187 266 Z M 187 187 "/>
</clipPath>
<clipPath id="clip12">
  <path d="M 197.753906 239.097656 L 219.707031 265.257812 L 187.496094 187.503906 Z M 197.753906 239.097656 "/>
</clipPath>
<linearGradient id="linear5" gradientUnits="userSpaceOnUse" x1="-211.9664" y1="780.4854" x2="-209.9462" y2="780.4854" gradientTransform="matrix(15.944812,0,0,-15.944812,3567.263004,12671.08428)">
<stop offset="0" style="stop-color:rgb(71.764706%,58.039216%,9.411765%);stop-opacity:1;"/>
<stop offset="0.3672" style="stop-color:rgb(79.215686%,63.921569%,5.490196%);stop-opacity:1;"/>
<stop offset="1" style="stop-color:rgb(79.215686%,63.921569%,5.490196%);stop-opacity:1;"/>
</linearGradient>
<clipPath id="clip13">
  <path d="M 187 155 L 266 155 L 266 188 L 187 188 Z M 187 155 "/>
</clipPath>
<clipPath id="clip14">
  <path d="M 231.222656 158.289062 L 187.496094 187.503906 L 265.238281 155.3125 Z M 231.222656 158.289062 "/>
</clipPath>
<linearGradient id="linear6" gradientUnits="userSpaceOnUse" x1="-208.2151" y1="782.0882" x2="-206.1948" y2="782.0882" gradientTransform="matrix(38.482444,0,0,-38.482444,8200.122791,30268.083919)">
<stop offset="0" style="stop-color:rgb(71.764706%,58.039216%,9.411765%);stop-opacity:1;"/>
<stop offset="0.543" style="stop-color:rgb(90.980392%,79.215686%,15.686275%);stop-opacity:1;"/>
<stop offset="1" style="stop-color:rgb(90.980392%,79.215686%,15.686275%);stop-opacity:1;"/>
</linearGradient>
<clipPath id="clip15">
  <path d="M 187 155 L 266 155 L 266 188 L 187 188 Z M 187 155 "/>
</clipPath>
<clipPath id="clip16">
  <path d="M 187.496094 187.503906 L 239.089844 177.253906 L 265.238281 155.3125 Z M 187.496094 187.503906 "/>
</clipPath>
<linearGradient id="linear7" gradientUnits="userSpaceOnUse" x1="-208.2151" y1="782.0882" x2="-206.1948" y2="782.0882" gradientTransform="matrix(38.482444,0,0,-38.482444,8200.122791,30268.083919)">
<stop offset="0" style="stop-color:rgb(63.529412%,50.980392%,11.764706%);stop-opacity:1;"/>
<stop offset="0.9961" style="stop-color:rgb(78.823529%,63.529412%,5.490196%);stop-opacity:1;"/>
<stop offset="1" style="stop-color:rgb(78.823529%,63.529412%,5.490196%);stop-opacity:1;"/>
</linearGradient>
<clipPath id="clip17">
  <path d="M 187 187 L 266 187 L 266 220 L 187 220 Z M 187 187 "/>
</clipPath>
<clipPath id="clip18">
  <path d="M 231.222656 216.738281 L 265.246094 219.714844 L 187.496094 187.503906 Z M 231.222656 216.738281 "/>
</clipPath>
<linearGradient id="linear8" gradientUnits="userSpaceOnUse" x1="-208.2148" y1="781.6656" x2="-206.1947" y2="781.6656" gradientTransform="matrix(38.485849,0,0,-38.485849,8200.824524,30286.692472)">
<stop offset="0" style="stop-color:rgb(71.764706%,58.039216%,9.411765%);stop-opacity:1;"/>
<stop offset="1" style="stop-color:rgb(86.666667%,72.54902%,2.745098%);stop-opacity:1;"/>
</linearGradient>
<clipPath id="clip19">
  <path d="M 187 109 L 220 109 L 220 188 L 187 188 Z M 187 109 "/>
</clipPath>
<clipPath id="clip20">
  <path d="M 197.753906 135.929688 L 187.496094 187.503906 L 219.695312 109.769531 Z M 197.753906 135.929688 "/>
</clipPath>
<linearGradient id="linear9" gradientUnits="userSpaceOnUse" x1="-211.9678" y1="782.9478" x2="-209.9476" y2="782.9478" gradientTransform="matrix(15.941407,0,0,-15.941407,3566.561882,12629.93469)">
<stop offset="0" style="stop-color:rgb(78.823529%,63.529412%,5.490196%);stop-opacity:1;"/>
<stop offset="0.3398" style="stop-color:rgb(90.980392%,79.215686%,15.686275%);stop-opacity:1;"/>
<stop offset="1" style="stop-color:rgb(90.980392%,79.215686%,15.686275%);stop-opacity:1;"/>
</linearGradient>
</defs>
<g id="surface1">
<path style=" stroke:none;fill-rule:nonzero;fill:rgb(86.27451%,7.058824%,9.411765%);fill-opacity:1;" d="M 375 187.503906 C 375 291.058594 291.058594 375 187.503906 375 C 83.941406 375 0 291.058594 0 187.503906 C 0 83.941406 83.941406 0 187.503906 0 C 291.058594 0 375 83.941406 375 187.503906 "/>
<path style=" stroke:none;fill-rule:nonzero;fill:rgb(63.529412%,50.980392%,11.764706%);fill-opacity:1;" d="M 351.75 199.875 L 342.765625 187.503906 L 351.75 175.140625 L 334.773438 187.46875 L 351.75 175.140625 L 337.210938 179.863281 L 328.226562 167.5 L 328.226562 167.492188 L 328.226562 182.78125 L 313.6875 187.503906 L 328.226562 192.226562 L 328.226562 207.515625 L 337.210938 195.152344 L 334.84375 187.6875 L 337.210938 195.152344 Z M 351.75 199.875 "/>
<path style=" stroke:none;fill-rule:nonzero;fill:rgb(63.529412%,50.980392%,11.764706%);fill-opacity:1;" d="M 37.789062 195.144531 L 46.773438 207.507812 L 46.773438 192.21875 L 40.226562 187.53125 L 46.773438 192.21875 L 61.3125 187.496094 L 46.773438 182.773438 L 46.773438 167.484375 L 37.789062 179.855469 L 40.023438 186.894531 L 37.789062 179.855469 L 23.25 175.125 L 32.234375 187.496094 L 23.25 199.859375 L 40.226562 187.53125 L 23.25 199.867188 Z M 37.789062 195.144531 "/>
<path style=" stroke:none;fill-rule:nonzero;fill:rgb(63.529412%,50.980392%,11.764706%);fill-opacity:1;" d="M 196.714844 27.574219 L 187.46875 40.226562 L 195.144531 37.789062 L 199.875 23.25 L 187.503906 32.234375 L 175.132812 23.25 L 187.46875 40.226562 Z M 196.714844 27.574219 "/>
<path style=" stroke:none;fill-rule:nonzero;fill:rgb(63.529412%,50.980392%,11.764706%);fill-opacity:1;" d="M 167.492188 46.773438 L 182.78125 46.773438 L 187.503906 61.3125 L 192.226562 46.773438 L 207.515625 46.773438 L 195.144531 37.789062 L 187.46875 40.226562 L 175.132812 23.25 L 179.855469 37.789062 Z M 167.492188 46.773438 "/>
<path style=" stroke:none;fill-rule:nonzero;fill:rgb(63.529412%,50.980392%,11.764706%);fill-opacity:1;" d="M 207.5 328.226562 L 192.21875 328.226562 L 187.53125 334.773438 L 192.21875 328.226562 L 187.496094 313.6875 L 182.773438 328.226562 L 167.484375 328.226562 L 179.847656 337.210938 L 186.414062 335.125 L 179.847656 337.210938 L 175.125 351.75 L 187.496094 342.765625 L 199.859375 351.75 L 195.675781 346.003906 L 199.859375 351.75 L 195.136719 337.210938 Z M 207.5 328.226562 "/>
<path style=" stroke:none;fill-rule:nonzero;fill:rgb(63.529412%,50.980392%,11.764706%);fill-opacity:1;" d="M 272.871094 73.847656 L 283.671875 84.660156 L 276.730469 98.28125 L 277.621094 97.378906 L 276.730469 98.28125 L 290.351562 91.339844 L 301.160156 102.136719 L 301.160156 102.148438 L 301.160156 102.136719 L 298.777344 87.050781 L 312.386719 80.109375 L 291.625 83.339844 L 312.386719 80.109375 L 297.292969 77.71875 L 294.898438 62.613281 L 287.957031 76.234375 L 272.871094 73.847656 L 272.863281 73.847656 L 272.871094 73.847656 L 272.863281 73.847656 Z M 272.871094 73.847656 "/>
<path style=" stroke:none;fill-rule:nonzero;fill:rgb(63.529412%,50.980392%,11.764706%);fill-opacity:1;" d="M 83.375 291.660156 L 102.128906 301.152344 L 91.328125 290.351562 L 98.261719 276.730469 L 83.375 291.660156 L 98.261719 276.730469 L 84.648438 283.660156 L 73.839844 272.863281 L 73.839844 272.851562 L 73.839844 272.863281 L 73.832031 272.863281 L 73.839844 272.863281 L 76.222656 287.957031 L 62.601562 294.898438 L 83.375 291.660156 L 62.601562 294.898438 L 77.707031 297.28125 L 80.101562 312.378906 L 87.035156 298.765625 L 102.136719 301.152344 Z M 83.375 291.660156 "/>
<path style=" stroke:none;fill-rule:nonzero;fill:rgb(63.529412%,50.980392%,11.764706%);fill-opacity:1;" d="M 62.613281 80.101562 L 76.234375 87.035156 L 73.847656 102.128906 L 73.847656 102.136719 L 73.847656 102.128906 L 84.660156 91.328125 L 98.269531 98.269531 L 94.75 94.761719 L 98.269531 98.269531 L 91.328125 84.648438 L 102.136719 73.839844 L 102.148438 73.839844 L 102.136719 73.839844 L 87.042969 76.234375 L 80.101562 62.613281 L 77.71875 77.707031 L 80.660156 80.675781 L 77.71875 77.707031 L 62.621094 80.101562 Z M 62.613281 80.101562 "/>
<path style=" stroke:none;fill-rule:nonzero;fill:rgb(63.529412%,50.980392%,11.764706%);fill-opacity:1;" d="M 312.378906 294.90625 L 298.757812 287.957031 L 301.152344 272.871094 L 301.152344 272.863281 L 301.152344 272.871094 L 290.339844 283.671875 L 276.730469 276.730469 L 283.660156 290.351562 L 272.863281 301.160156 L 272.851562 301.160156 L 272.863281 301.160156 L 287.949219 298.777344 L 294.890625 312.386719 L 294.898438 312.398438 L 294.898438 312.386719 L 297.28125 297.292969 L 312.378906 294.90625 L 312.386719 294.90625 Z M 312.378906 294.90625 "/>
<path style=" stroke:none;fill-rule:nonzero;fill:rgb(63.529412%,50.980392%,11.764706%);fill-opacity:1;" d="M 309.847656 115.164062 L 309.855469 115.175781 L 309.847656 115.164062 L 309.855469 115.175781 L 315.707031 129.292969 L 304.074219 139.21875 L 319.320312 138.023438 L 325.171875 152.144531 L 323.546875 131.117188 L 325.1875 133.066406 L 323.546875 131.117188 L 325.171875 152.144531 L 328.734375 137.273438 L 343.96875 136.078125 L 336.039062 134.148438 L 343.96875 136.078125 L 330.941406 128.089844 L 334.511719 113.226562 L 322.890625 123.15625 L 309.855469 115.175781 Z M 309.847656 115.164062 "/>
<path style=" stroke:none;fill-rule:nonzero;fill:rgb(63.529412%,50.980392%,11.764706%);fill-opacity:1;" d="M 65.144531 259.835938 L 65.144531 259.824219 L 59.292969 245.707031 L 70.914062 235.78125 L 55.679688 236.984375 L 49.828125 222.855469 L 51.453125 243.882812 L 51.445312 243.882812 L 49.828125 222.855469 L 46.257812 237.726562 L 31.023438 238.921875 L 39.964844 241.097656 L 31.023438 238.921875 L 44.050781 246.910156 L 40.488281 261.773438 L 52.109375 251.84375 Z M 65.144531 259.835938 "/>
<path style=" stroke:none;fill-rule:nonzero;fill:rgb(63.529412%,50.980392%,11.764706%);fill-opacity:1;" d="M 113.226562 40.488281 L 123.15625 52.109375 L 115.175781 65.144531 L 115.164062 65.144531 L 115.175781 65.144531 L 129.285156 59.292969 L 139.21875 70.925781 L 138.015625 55.679688 L 152.144531 49.828125 L 131.117188 51.453125 L 133.195312 49.699219 L 131.117188 51.453125 L 152.144531 49.828125 L 137.273438 46.257812 L 136.078125 31.03125 L 134.113281 39.109375 L 136.078125 31.023438 L 128.089844 44.058594 Z M 113.226562 40.488281 "/>
<path style=" stroke:none;fill-rule:nonzero;fill:rgb(63.529412%,50.980392%,11.764706%);fill-opacity:1;" d="M 259.824219 309.855469 L 245.707031 315.714844 L 235.78125 304.085938 L 236.984375 319.320312 L 222.855469 325.171875 L 243.882812 323.546875 L 222.855469 325.171875 L 237.71875 328.734375 L 238.921875 343.976562 L 240.679688 336.757812 L 238.921875 343.976562 L 246.910156 330.941406 L 261.773438 334.511719 L 251.835938 322.882812 Z M 259.824219 309.855469 "/>
<path style=" stroke:none;fill-rule:nonzero;fill:rgb(63.529412%,50.980392%,11.764706%);fill-opacity:1;" d="M 222.875 49.839844 L 236.992188 55.6875 L 243.828125 51.425781 L 236.992188 55.6875 L 235.789062 70.925781 L 243.828125 51.425781 L 235.789062 70.925781 L 245.722656 59.292969 L 259.84375 65.144531 L 259.84375 65.152344 L 259.84375 65.144531 L 251.855469 52.117188 L 261.78125 40.496094 L 261.789062 40.496094 L 261.78125 40.496094 L 246.921875 44.066406 L 243.828125 51.425781 L 246.921875 44.066406 L 238.929688 31.03125 L 237.734375 46.265625 L 222.875 49.839844 L 230.332031 50.40625 Z M 222.875 49.839844 "/>
<path style=" stroke:none;fill-rule:nonzero;fill:rgb(63.529412%,50.980392%,11.764706%);fill-opacity:1;" d="M 152.125 325.160156 L 138.007812 319.320312 L 139.203125 304.074219 L 131.160156 323.574219 L 134.277344 321.632812 L 131.171875 323.574219 L 131.160156 323.574219 L 139.203125 304.074219 L 129.277344 315.695312 L 115.15625 309.855469 L 115.15625 309.847656 L 115.15625 309.855469 L 123.144531 322.882812 L 113.21875 334.503906 L 113.210938 334.503906 L 113.21875 334.503906 L 128.078125 330.941406 L 131.160156 323.574219 L 128.078125 330.941406 L 136.058594 343.96875 L 136.070312 343.96875 L 136.058594 343.96875 L 137.265625 328.734375 L 152.125 325.160156 L 144.179688 324.558594 Z M 152.125 325.160156 "/>
<path style=" stroke:none;fill-rule:nonzero;fill:rgb(63.529412%,50.980392%,11.764706%);fill-opacity:1;" d="M 31.03125 136.058594 L 46.265625 137.265625 L 49.839844 152.125 L 50.421875 144.355469 L 49.839844 152.125 L 55.679688 138.007812 L 70.925781 139.203125 L 51.425781 131.171875 L 70.925781 139.203125 L 59.292969 129.277344 L 51.425781 131.171875 L 59.292969 129.277344 L 65.144531 115.164062 L 65.144531 115.15625 L 52.117188 123.144531 L 40.496094 113.21875 L 44.058594 128.078125 L 51.425781 131.171875 L 44.058594 128.078125 L 31.03125 136.058594 L 31.023438 136.058594 Z M 31.03125 136.058594 "/>
<path style=" stroke:none;fill-rule:nonzero;fill:rgb(63.529412%,50.980392%,11.764706%);fill-opacity:1;" d="M 343.96875 238.929688 L 328.722656 237.734375 L 325.160156 222.875 L 324.359375 233.429688 L 325.160156 222.875 L 319.3125 237.003906 L 323.574219 243.828125 L 319.3125 237.003906 L 304.074219 235.796875 L 323.574219 243.828125 L 304.074219 235.796875 L 315.695312 245.722656 L 309.847656 259.835938 L 309.847656 259.84375 L 322.882812 251.855469 L 334.503906 261.78125 L 330.933594 246.921875 L 323.574219 243.828125 L 330.933594 246.921875 Z M 343.96875 238.929688 "/>
<path style=" stroke:none;fill-rule:nonzero;fill:rgb(63.529412%,50.980392%,11.764706%);fill-opacity:1;" d="M 239.089844 197.773438 L 187.503906 187.503906 L 187.496094 187.503906 L 239.089844 197.761719 L 292.699219 187.503906 L 239.097656 177.246094 L 265.238281 155.3125 L 231.222656 158.289062 L 187.496094 187.496094 L 231.230469 158.28125 L 261.886719 113.113281 L 216.726562 143.769531 L 216.71875 143.769531 L 219.695312 109.769531 L 197.753906 135.929688 L 190.820312 170.792969 L 197.753906 135.921875 L 187.496094 82.300781 L 177.238281 135.910156 L 155.292969 109.753906 L 187.496094 187.496094 L 187.496094 187.503906 L 155.292969 109.753906 L 158.273438 143.769531 L 113.113281 113.121094 L 143.769531 158.28125 L 183.234375 184.65625 L 143.761719 158.28125 L 109.742188 155.304688 L 135.894531 177.246094 L 82.300781 187.503906 L 135.921875 197.761719 L 187.496094 187.503906 L 135.902344 197.773438 L 109.742188 219.714844 L 181.734375 189.898438 L 109.742188 219.714844 L 143.761719 216.738281 L 143.769531 216.738281 L 113.113281 261.886719 L 158.273438 231.238281 L 158.261719 231.25 L 155.285156 265.265625 L 187.144531 188.332031 L 155.285156 265.265625 L 177.238281 239.105469 L 177.238281 239.097656 L 187.496094 292.707031 L 197.753906 239.089844 L 197.753906 239.097656 L 219.707031 265.257812 L 216.726562 231.238281 L 261.886719 261.886719 L 219.382812 219.382812 L 261.886719 261.886719 L 231.238281 216.738281 L 265.238281 219.714844 L 265.246094 219.714844 Z M 239.089844 197.773438 "/>
<path style=" stroke:none;fill-rule:evenodd;fill:rgb(90.980392%,79.215686%,15.686275%);fill-opacity:1;" d="M 328.226562 192.226562 L 334.773438 187.46875 L 328.226562 207.515625 Z M 328.226562 192.226562 "/>
<path style=" stroke:none;fill-rule:evenodd;fill:rgb(63.529412%,50.980392%,11.764706%);fill-opacity:1;" d="M 337.210938 195.152344 L 334.773438 187.46875 L 328.226562 207.515625 Z M 337.210938 195.152344 "/>
<path style=" stroke:none;fill-rule:evenodd;fill:rgb(78.823529%,63.529412%,5.490196%);fill-opacity:1;" d="M 351.75 199.875 L 334.773438 187.46875 L 337.210938 195.152344 Z M 351.75 199.875 "/>
<path style=" stroke:none;fill-rule:evenodd;fill:rgb(71.372549%,57.647059%,9.803922%);fill-opacity:1;" d="M 342.765625 187.503906 L 334.773438 187.46875 L 351.75 199.875 Z M 342.765625 187.503906 "/>
<path style=" stroke:none;fill-rule:evenodd;fill:rgb(63.529412%,50.980392%,11.764706%);fill-opacity:1;" d="M 351.75 175.140625 L 334.773438 187.46875 L 342.765625 187.503906 Z M 351.75 175.140625 "/>
<path style=" stroke:none;fill-rule:evenodd;fill:rgb(90.980392%,79.215686%,15.686275%);fill-opacity:1;" d="M 337.210938 179.863281 L 334.773438 187.46875 L 351.75 175.140625 Z M 337.210938 179.863281 "/>
<path style=" stroke:none;fill-rule:evenodd;fill:rgb(71.372549%,57.647059%,9.803922%);fill-opacity:1;" d="M 337.210938 179.863281 L 334.773438 187.46875 L 328.226562 167.492188 Z M 337.210938 179.863281 "/>
<path style=" stroke:none;fill-rule:evenodd;fill:rgb(90.980392%,79.215686%,15.686275%);fill-opacity:1;" d="M 328.226562 167.5 L 334.773438 187.46875 L 328.226562 182.78125 Z M 328.226562 167.5 "/>
<path style=" stroke:none;fill-rule:evenodd;fill:rgb(86.666667%,72.54902%,2.745098%);fill-opacity:1;" d="M 328.226562 182.78125 L 334.773438 187.46875 L 313.6875 187.503906 Z M 328.226562 182.78125 "/>
<path style=" stroke:none;fill-rule:evenodd;fill:rgb(71.372549%,57.647059%,9.803922%);fill-opacity:1;" d="M 313.6875 187.503906 L 334.773438 187.46875 L 328.226562 192.226562 Z M 313.6875 187.503906 "/>
<path style=" stroke:none;fill-rule:evenodd;fill:rgb(63.529412%,50.980392%,11.764706%);fill-opacity:1;" d="M 46.773438 182.773438 L 40.226562 187.523438 L 46.773438 167.484375 Z M 46.773438 182.773438 "/>
<path style=" stroke:none;fill-rule:evenodd;fill:rgb(90.980392%,79.215686%,15.686275%);fill-opacity:1;" d="M 37.789062 179.855469 L 40.226562 187.53125 L 46.773438 167.484375 Z M 37.789062 179.855469 "/>
<path style=" stroke:none;fill-rule:evenodd;fill:rgb(86.666667%,72.54902%,2.745098%);fill-opacity:1;" d="M 23.25 175.125 L 40.226562 187.523438 L 37.789062 179.855469 Z M 23.25 175.125 "/>
<path style=" stroke:none;fill-rule:evenodd;fill:rgb(78.823529%,63.529412%,5.490196%);fill-opacity:1;" d="M 32.234375 187.496094 L 40.226562 187.53125 L 23.25 175.125 Z M 32.234375 187.496094 "/>
<path style=" stroke:none;fill-rule:evenodd;fill:rgb(90.980392%,79.215686%,15.686275%);fill-opacity:1;" d="M 23.25 199.859375 L 40.226562 187.53125 L 32.234375 187.496094 Z M 23.25 199.859375 "/>
<path style=" stroke:none;fill-rule:evenodd;fill:rgb(63.529412%,50.980392%,11.764706%);fill-opacity:1;" d="M 37.789062 195.144531 L 40.226562 187.53125 L 23.25 199.867188 Z M 37.789062 195.144531 "/>
<path style=" stroke:none;fill-rule:evenodd;fill:rgb(78.823529%,63.529412%,5.490196%);fill-opacity:1;" d="M 37.789062 195.144531 L 40.226562 187.53125 L 46.773438 207.507812 Z M 37.789062 195.144531 "/>
<path style=" stroke:none;fill-rule:evenodd;fill:rgb(86.666667%,72.54902%,2.745098%);fill-opacity:1;" d="M 46.773438 207.507812 L 40.226562 187.53125 L 46.773438 192.21875 Z M 46.773438 207.507812 "/>
<path style=" stroke:none;fill-rule:evenodd;fill:rgb(71.372549%,57.647059%,9.803922%);fill-opacity:1;" d="M 46.773438 192.21875 L 40.226562 187.53125 L 61.3125 187.496094 Z M 46.773438 192.21875 "/>
<path style=" stroke:none;fill-rule:evenodd;fill:rgb(78.823529%,63.529412%,5.490196%);fill-opacity:1;" d="M 61.3125 187.496094 L 40.226562 187.53125 L 46.773438 182.773438 Z M 61.3125 187.496094 "/>
<path style=" stroke:none;fill-rule:evenodd;fill:rgb(71.372549%,57.647059%,9.803922%);fill-opacity:1;" d="M 192.226562 46.773438 L 187.46875 40.226562 L 207.515625 46.773438 Z M 192.226562 46.773438 "/>
<path style=" stroke:none;fill-rule:evenodd;fill:rgb(78.823529%,63.529412%,5.490196%);fill-opacity:1;" d="M 195.144531 37.789062 L 187.46875 40.226562 L 207.515625 46.773438 Z M 195.144531 37.789062 "/>
<path style=" stroke:none;fill-rule:evenodd;fill:rgb(63.529412%,50.980392%,11.764706%);fill-opacity:1;" d="M 199.875 23.25 L 187.46875 40.226562 L 195.144531 37.789062 Z M 199.875 23.25 "/>
<path style=" stroke:none;fill-rule:evenodd;fill:rgb(90.980392%,79.215686%,15.686275%);fill-opacity:1;" d="M 187.503906 32.234375 L 187.46875 40.226562 L 199.875 23.25 Z M 187.503906 32.234375 "/>
<path style=" stroke:none;fill-rule:evenodd;fill:rgb(78.823529%,63.529412%,5.490196%);fill-opacity:1;" d="M 175.132812 23.25 L 187.46875 40.226562 L 187.503906 32.234375 Z M 175.132812 23.25 "/>
<path style=" stroke:none;fill-rule:evenodd;fill:rgb(90.980392%,79.215686%,15.686275%);fill-opacity:1;" d="M 179.855469 37.789062 L 187.46875 40.226562 L 175.132812 23.25 Z M 179.855469 37.789062 "/>
<path style=" stroke:none;fill-rule:evenodd;fill:rgb(86.666667%,72.54902%,2.745098%);fill-opacity:1;" d="M 179.855469 37.789062 L 187.46875 40.226562 L 167.492188 46.773438 Z M 179.855469 37.789062 "/>
<path style=" stroke:none;fill-rule:evenodd;fill:rgb(71.372549%,57.647059%,9.803922%);fill-opacity:1;" d="M 167.492188 46.773438 L 187.46875 40.226562 L 182.78125 46.773438 Z M 167.492188 46.773438 "/>
<path style=" stroke:none;fill-rule:evenodd;fill:rgb(78.823529%,63.529412%,5.490196%);fill-opacity:1;" d="M 182.78125 46.773438 L 187.46875 40.226562 L 187.503906 61.3125 Z M 182.78125 46.773438 "/>
<path style=" stroke:none;fill-rule:evenodd;fill:rgb(63.529412%,50.980392%,11.764706%);fill-opacity:1;" d="M 187.503906 61.3125 L 187.46875 40.226562 L 192.226562 46.773438 Z M 187.503906 61.3125 "/>
<path style=" stroke:none;fill-rule:evenodd;fill:rgb(78.823529%,63.529412%,5.490196%);fill-opacity:1;" d="M 182.773438 328.226562 L 187.53125 334.773438 L 167.484375 328.226562 Z M 182.773438 328.226562 "/>
<path style=" stroke:none;fill-rule:evenodd;fill:rgb(86.666667%,72.54902%,2.745098%);fill-opacity:1;" d="M 179.847656 337.210938 L 187.53125 334.773438 L 167.484375 328.226562 Z M 179.847656 337.210938 "/>
<path style=" stroke:none;fill-rule:evenodd;fill:rgb(78.431373%,63.529412%,6.666667%);fill-opacity:1;" d="M 175.125 351.75 L 187.53125 334.773438 L 179.847656 337.210938 Z M 175.125 351.75 "/>
<path style=" stroke:none;fill-rule:evenodd;fill:rgb(63.529412%,50.980392%,11.764706%);fill-opacity:1;" d="M 187.496094 342.765625 L 187.53125 334.773438 L 175.125 351.75 Z M 187.496094 342.765625 "/>
<path style=" stroke:none;fill-rule:evenodd;fill:rgb(78.823529%,63.529412%,5.490196%);fill-opacity:1;" d="M 199.859375 351.75 L 187.53125 334.773438 L 187.496094 342.765625 Z M 199.859375 351.75 "/>
<path style=" stroke:none;fill-rule:evenodd;fill:rgb(71.372549%,57.647059%,9.803922%);fill-opacity:1;" d="M 195.136719 337.210938 L 187.523438 334.773438 L 199.859375 351.75 Z M 195.136719 337.210938 "/>
<path style=" stroke:none;fill-rule:evenodd;fill:rgb(63.529412%,50.980392%,11.764706%);fill-opacity:1;" d="M 195.136719 337.210938 L 187.523438 334.773438 L 207.5 328.226562 Z M 195.136719 337.210938 "/>
<path style=" stroke:none;fill-rule:evenodd;fill:rgb(86.666667%,72.54902%,2.745098%);fill-opacity:1;" d="M 207.5 328.226562 L 187.53125 334.773438 L 192.21875 328.226562 Z M 207.5 328.226562 "/>
<path style=" stroke:none;fill-rule:evenodd;fill:rgb(63.529412%,50.980392%,11.764706%);fill-opacity:1;" d="M 192.21875 328.226562 L 187.53125 334.773438 L 187.496094 313.6875 Z M 192.21875 328.226562 "/>
<path style=" stroke:none;fill-rule:evenodd;fill:rgb(90.980392%,79.215686%,15.686275%);fill-opacity:1;" d="M 187.496094 313.6875 L 187.53125 334.773438 L 182.773438 328.226562 Z M 187.496094 313.6875 "/>
<path style=" stroke:none;fill-rule:evenodd;fill:rgb(78.823529%,63.529412%,5.490196%);fill-opacity:1;" d="M 290.351562 91.339844 L 291.625 83.339844 L 301.160156 102.148438 Z M 290.351562 91.339844 "/>
<path style=" stroke:none;fill-rule:evenodd;fill:rgb(71.372549%,57.647059%,9.803922%);fill-opacity:1;" d="M 298.777344 87.050781 L 291.617188 83.339844 L 301.160156 102.148438 Z M 298.777344 87.050781 "/>
<path style=" stroke:none;fill-rule:evenodd;fill:rgb(78.823529%,63.529412%,5.490196%);fill-opacity:1;" d="M 312.386719 80.109375 L 291.625 83.339844 L 298.765625 87.050781 Z M 312.386719 80.109375 "/>
<path style=" stroke:none;fill-rule:evenodd;fill:rgb(86.666667%,72.54902%,2.745098%);fill-opacity:1;" d="M 297.292969 77.71875 L 291.617188 83.339844 L 312.386719 80.109375 Z M 297.292969 77.71875 "/>
<path style=" stroke:none;fill-rule:evenodd;fill:rgb(63.529412%,50.980392%,11.764706%);fill-opacity:1;" d="M 294.898438 62.613281 L 291.625 83.339844 L 297.292969 77.71875 Z M 294.898438 62.613281 "/>
<path style=" stroke:none;fill-rule:evenodd;fill:rgb(90.980392%,79.215686%,15.686275%);fill-opacity:1;" d="M 287.957031 76.234375 L 291.617188 83.339844 L 294.898438 62.613281 Z M 287.957031 76.234375 "/>
<path style=" stroke:none;fill-rule:evenodd;fill:rgb(86.666667%,72.54902%,2.745098%);fill-opacity:1;" d="M 287.957031 76.234375 L 291.617188 83.339844 L 272.863281 73.847656 Z M 287.957031 76.234375 "/>
<path style=" stroke:none;fill-rule:evenodd;fill:rgb(90.980392%,79.215686%,15.686275%);fill-opacity:1;" d="M 272.863281 73.847656 L 291.617188 83.339844 L 283.671875 84.660156 Z M 272.863281 73.847656 "/>
<path style=" stroke:none;fill-rule:evenodd;fill:rgb(86.666667%,72.54902%,2.745098%);fill-opacity:1;" d="M 283.671875 84.660156 L 291.617188 83.339844 L 276.730469 98.28125 Z M 283.671875 84.660156 "/>
<path style=" stroke:none;fill-rule:evenodd;fill:rgb(63.529412%,50.980392%,11.764706%);fill-opacity:1;" d="M 276.730469 98.28125 L 291.617188 83.339844 L 290.351562 91.339844 Z M 276.730469 98.28125 "/>
<path style=" stroke:none;fill-rule:evenodd;fill:rgb(78.823529%,63.529412%,5.490196%);fill-opacity:1;" d="M 84.648438 283.660156 L 83.375 291.660156 L 73.832031 272.863281 Z M 84.648438 283.660156 "/>
<path style=" stroke:none;fill-rule:evenodd;fill:rgb(86.666667%,72.54902%,2.745098%);fill-opacity:1;" d="M 76.222656 287.957031 L 83.375 291.660156 L 73.839844 272.851562 Z M 76.222656 287.957031 "/>
<path style=" stroke:none;fill-rule:evenodd;fill:rgb(90.980392%,79.215686%,15.686275%);fill-opacity:1;" d="M 62.601562 294.898438 L 83.375 291.660156 L 76.222656 287.949219 Z M 62.601562 294.898438 "/>
<path style=" stroke:none;fill-rule:evenodd;fill:rgb(71.372549%,57.647059%,9.803922%);fill-opacity:1;" d="M 77.707031 297.28125 L 83.375 291.660156 L 62.601562 294.898438 Z M 77.707031 297.28125 "/>
<path style=" stroke:none;fill-rule:evenodd;fill:rgb(86.666667%,72.54902%,2.745098%);fill-opacity:1;" d="M 80.101562 312.378906 L 83.375 291.660156 L 77.707031 297.28125 Z M 80.101562 312.378906 "/>
<path style=" stroke:none;fill-rule:evenodd;fill:rgb(63.529412%,50.980392%,11.764706%);fill-opacity:1;" d="M 87.035156 298.765625 L 83.375 291.660156 L 80.101562 312.386719 Z M 87.035156 298.765625 "/>
<path style=" stroke:none;fill-rule:evenodd;fill:rgb(78.823529%,63.529412%,5.490196%);fill-opacity:1;" d="M 87.035156 298.765625 L 83.375 291.660156 L 102.136719 301.152344 Z M 87.035156 298.765625 "/>
<path style=" stroke:none;fill-rule:evenodd;fill:rgb(71.372549%,57.647059%,9.803922%);fill-opacity:1;" d="M 102.128906 301.152344 L 83.375 291.660156 L 91.328125 290.351562 Z M 102.128906 301.152344 "/>
<path style=" stroke:none;fill-rule:evenodd;fill:rgb(63.529412%,50.980392%,11.764706%);fill-opacity:1;" d="M 91.328125 290.351562 L 83.375 291.660156 L 98.261719 276.730469 Z M 91.328125 290.351562 "/>
<path style=" stroke:none;fill-rule:evenodd;fill:rgb(86.666667%,72.54902%,2.745098%);fill-opacity:1;" d="M 98.261719 276.730469 L 83.375 291.660156 L 84.648438 283.660156 Z M 98.261719 276.730469 "/>
<path style=" stroke:none;fill-rule:evenodd;fill:rgb(63.529412%,50.980392%,11.764706%);fill-opacity:1;" d="M 91.328125 84.648438 L 83.339844 83.375 L 102.148438 73.839844 Z M 91.328125 84.648438 "/>
<path style=" stroke:none;fill-rule:evenodd;fill:rgb(86.666667%,72.54902%,2.745098%);fill-opacity:1;" d="M 87.042969 76.234375 L 83.339844 83.375 L 102.148438 73.839844 Z M 87.042969 76.234375 "/>
<path style=" stroke:none;fill-rule:evenodd;fill:rgb(63.529412%,50.980392%,11.764706%);fill-opacity:1;" d="M 80.101562 62.613281 L 83.339844 83.375 L 87.042969 76.234375 Z M 80.101562 62.613281 "/>
<path style=" stroke:none;fill-rule:evenodd;fill:rgb(90.980392%,79.215686%,15.686275%);fill-opacity:1;" d="M 77.71875 77.707031 L 83.339844 83.375 L 80.101562 62.613281 Z M 77.71875 77.707031 "/>
<path style=" stroke:none;fill-rule:evenodd;fill:rgb(86.666667%,72.54902%,2.745098%);fill-opacity:1;" d="M 62.613281 80.101562 L 83.339844 83.375 L 77.71875 77.707031 Z M 62.613281 80.101562 "/>
<path style=" stroke:none;fill-rule:evenodd;fill:rgb(78.823529%,63.529412%,5.490196%);fill-opacity:1;" d="M 76.234375 87.035156 L 83.339844 83.375 L 62.613281 80.101562 Z M 76.234375 87.035156 "/>
<path style=" stroke:none;fill-rule:evenodd;fill:rgb(90.980392%,79.215686%,15.686275%);fill-opacity:1;" d="M 76.234375 87.035156 L 83.339844 83.375 L 73.847656 102.136719 Z M 76.234375 87.035156 "/>
<path style=" stroke:none;fill-rule:evenodd;fill:rgb(63.529412%,50.980392%,11.764706%);fill-opacity:1;" d="M 73.847656 102.136719 L 83.339844 83.375 L 84.660156 91.328125 Z M 73.847656 102.136719 "/>
<path style=" stroke:none;fill-rule:evenodd;fill:rgb(78.823529%,63.529412%,5.490196%);fill-opacity:1;" d="M 84.660156 91.328125 L 83.339844 83.375 L 98.269531 98.269531 Z M 84.660156 91.328125 "/>
<path style=" stroke:none;fill-rule:evenodd;fill:rgb(71.372549%,57.647059%,9.803922%);fill-opacity:1;" d="M 98.269531 98.269531 L 83.339844 83.375 L 91.328125 84.648438 Z M 98.269531 98.269531 "/>
<path style=" stroke:none;fill-rule:evenodd;fill:rgb(86.666667%,72.54902%,2.745098%);fill-opacity:1;" d="M 283.660156 290.351562 L 291.660156 291.617188 L 272.851562 301.160156 Z M 283.660156 290.351562 "/>
<path style=" stroke:none;fill-rule:evenodd;fill:rgb(71.372549%,57.647059%,9.803922%);fill-opacity:1;" d="M 287.949219 298.777344 L 291.660156 291.617188 L 272.851562 301.160156 Z M 287.949219 298.777344 "/>
<path style=" stroke:none;fill-rule:evenodd;fill:rgb(78.823529%,63.529412%,5.490196%);fill-opacity:1;" d="M 294.898438 312.398438 L 291.660156 291.617188 L 287.949219 298.765625 Z M 294.898438 312.398438 "/>
<path style=" stroke:none;fill-rule:evenodd;fill:rgb(63.529412%,50.980392%,11.764706%);fill-opacity:1;" d="M 297.28125 297.292969 L 291.660156 291.617188 L 294.898438 312.398438 Z M 297.28125 297.292969 "/>
<path style=" stroke:none;fill-rule:evenodd;fill:rgb(71.372549%,57.647059%,9.803922%);fill-opacity:1;" d="M 312.378906 294.90625 L 291.660156 291.617188 L 297.28125 297.292969 Z M 312.378906 294.90625 "/>
<path style=" stroke:none;fill-rule:evenodd;fill:rgb(78.823529%,63.529412%,5.490196%);fill-opacity:1;" d="M 298.757812 287.957031 L 291.660156 291.617188 L 312.386719 294.90625 Z M 298.757812 287.957031 "/>
<path style=" stroke:none;fill-rule:evenodd;fill:rgb(71.372549%,57.647059%,9.803922%);fill-opacity:1;" d="M 298.757812 287.957031 L 291.660156 291.617188 L 301.152344 272.863281 Z M 298.757812 287.957031 "/>
<path style=" stroke:none;fill-rule:evenodd;fill:rgb(90.980392%,79.215686%,15.686275%);fill-opacity:1;" d="M 301.152344 272.863281 L 291.660156 291.617188 L 290.339844 283.671875 Z M 301.152344 272.863281 "/>
<path style=" stroke:none;fill-rule:evenodd;fill:rgb(86.666667%,72.54902%,2.745098%);fill-opacity:1;" d="M 290.339844 283.671875 L 291.660156 291.617188 L 276.730469 276.730469 Z M 290.339844 283.671875 "/>
<path style=" stroke:none;fill-rule:evenodd;fill:rgb(90.980392%,79.215686%,15.686275%);fill-opacity:1;" d="M 276.730469 276.730469 L 291.660156 291.617188 L 283.660156 290.351562 Z M 276.730469 276.730469 "/>
<path style=" stroke:none;fill-rule:evenodd;fill:rgb(86.666667%,72.54902%,2.745098%);fill-opacity:1;" d="M 319.320312 138.023438 L 323.546875 131.117188 L 325.171875 152.144531 Z M 319.320312 138.023438 "/>
<path style=" stroke:none;fill-rule:evenodd;fill:rgb(63.529412%,50.980392%,11.764706%);fill-opacity:1;" d="M 328.734375 137.273438 L 323.546875 131.117188 L 325.171875 152.144531 Z M 328.734375 137.273438 "/>
<path style=" stroke:none;fill-rule:evenodd;fill:rgb(71.372549%,57.647059%,9.803922%);fill-opacity:1;" d="M 343.96875 136.078125 L 323.546875 131.117188 L 328.734375 137.273438 Z M 343.96875 136.078125 "/>
<path style=" stroke:none;fill-rule:evenodd;fill:rgb(78.823529%,63.529412%,5.490196%);fill-opacity:1;" d="M 330.941406 128.089844 L 323.546875 131.117188 L 343.96875 136.078125 Z M 330.941406 128.089844 "/>
<path style=" stroke:none;fill-rule:evenodd;fill:rgb(63.529412%,50.980392%,11.764706%);fill-opacity:1;" d="M 334.511719 113.226562 L 323.546875 131.117188 L 330.941406 128.097656 Z M 334.511719 113.226562 "/>
<path style=" stroke:none;fill-rule:evenodd;fill:rgb(86.666667%,72.54902%,2.745098%);fill-opacity:1;" d="M 322.890625 123.15625 L 323.546875 131.117188 L 334.511719 113.226562 Z M 322.890625 123.15625 "/>
<path style=" stroke:none;fill-rule:evenodd;fill:rgb(78.823529%,63.529412%,5.490196%);fill-opacity:1;" d="M 322.890625 123.15625 L 323.546875 131.117188 L 309.847656 115.164062 Z M 322.890625 123.15625 "/>
<path style=" stroke:none;fill-rule:evenodd;fill:rgb(90.980392%,79.215686%,15.686275%);fill-opacity:1;" d="M 309.847656 115.164062 L 323.546875 131.117188 L 315.707031 129.292969 Z M 309.847656 115.164062 "/>
<path style=" stroke:none;fill-rule:evenodd;fill:rgb(86.666667%,72.54902%,2.745098%);fill-opacity:1;" d="M 315.707031 129.292969 L 323.546875 131.117188 L 304.074219 139.21875 Z M 315.707031 129.292969 "/>
<path style=" stroke:none;fill-rule:evenodd;fill:rgb(71.372549%,57.647059%,9.803922%);fill-opacity:1;" d="M 304.074219 139.21875 L 323.546875 131.117188 L 319.320312 138.023438 Z M 304.074219 139.21875 "/>
<path style=" stroke:none;fill-rule:evenodd;fill:rgb(63.529412%,50.980392%,11.764706%);fill-opacity:1;" d="M 55.679688 236.984375 L 51.453125 243.882812 L 49.828125 222.855469 Z M 55.679688 236.984375 "/>
<path style=" stroke:none;fill-rule:evenodd;fill:rgb(90.980392%,79.215686%,15.686275%);fill-opacity:1;" d="M 46.257812 237.726562 L 51.445312 243.882812 L 49.828125 222.855469 Z M 46.257812 237.726562 "/>
<path style=" stroke:none;fill-rule:evenodd;fill:rgb(86.666667%,72.54902%,2.745098%);fill-opacity:1;" d="M 31.023438 238.921875 L 51.453125 243.882812 L 46.257812 237.726562 Z M 31.023438 238.921875 "/>
<path style=" stroke:none;fill-rule:evenodd;fill:rgb(78.823529%,63.529412%,5.490196%);fill-opacity:1;" d="M 44.050781 246.910156 L 51.445312 243.882812 L 31.023438 238.921875 Z M 44.050781 246.910156 "/>
<path style=" stroke:none;fill-rule:evenodd;fill:rgb(90.980392%,79.215686%,15.686275%);fill-opacity:1;" d="M 40.488281 261.773438 L 51.453125 243.882812 L 44.050781 246.910156 Z M 40.488281 261.773438 "/>
<path style=" stroke:none;fill-rule:evenodd;fill:rgb(63.529412%,50.980392%,11.764706%);fill-opacity:1;" d="M 52.109375 251.84375 L 51.453125 243.882812 L 40.488281 261.773438 Z M 52.109375 251.84375 "/>
<path style=" stroke:none;fill-rule:evenodd;fill:rgb(71.372549%,57.647059%,9.803922%);fill-opacity:1;" d="M 52.109375 251.84375 L 51.453125 243.882812 L 65.144531 259.835938 Z M 52.109375 251.84375 "/>
<path style=" stroke:none;fill-rule:evenodd;fill:rgb(86.666667%,72.54902%,2.745098%);fill-opacity:1;" d="M 65.144531 259.835938 L 51.445312 243.882812 L 59.292969 245.707031 Z M 65.144531 259.835938 "/>
<path style=" stroke:none;fill-rule:evenodd;fill:rgb(63.529412%,50.980392%,11.764706%);fill-opacity:1;" d="M 59.292969 245.707031 L 51.453125 243.882812 L 70.914062 235.78125 Z M 59.292969 245.707031 "/>
<path style=" stroke:none;fill-rule:evenodd;fill:rgb(86.666667%,72.54902%,2.745098%);fill-opacity:1;" d="M 70.914062 235.78125 L 51.453125 243.882812 L 55.679688 236.984375 Z M 70.914062 235.78125 "/>
<path style=" stroke:none;fill-rule:evenodd;fill:rgb(63.529412%,50.980392%,11.764706%);fill-opacity:1;" d="M 138.015625 55.679688 L 131.117188 51.453125 L 152.144531 49.828125 Z M 138.015625 55.679688 "/>
<path style=" stroke:none;fill-rule:evenodd;fill:rgb(78.823529%,63.529412%,5.490196%);fill-opacity:1;" d="M 137.273438 46.257812 L 131.117188 51.453125 L 152.144531 49.828125 Z M 137.273438 46.257812 "/>
<path style=" stroke:none;fill-rule:evenodd;fill:rgb(63.529412%,50.980392%,11.764706%);fill-opacity:1;" d="M 136.078125 31.03125 L 131.117188 51.453125 L 137.273438 46.265625 Z M 136.078125 31.03125 "/>
<path style=" stroke:none;fill-rule:evenodd;fill:rgb(90.980392%,79.215686%,15.686275%);fill-opacity:1;" d="M 128.089844 44.058594 L 131.117188 51.453125 L 136.078125 31.023438 Z M 128.089844 44.058594 "/>
<path style=" stroke:none;fill-rule:evenodd;fill:rgb(86.666667%,72.54902%,2.745098%);fill-opacity:1;" d="M 113.226562 40.488281 L 131.117188 51.453125 L 128.089844 44.058594 Z M 113.226562 40.488281 "/>
<path style=" stroke:none;fill-rule:evenodd;fill:rgb(78.823529%,63.529412%,5.490196%);fill-opacity:1;" d="M 123.15625 52.109375 L 131.117188 51.453125 L 113.226562 40.488281 Z M 123.15625 52.109375 "/>
<path style=" stroke:none;fill-rule:evenodd;fill:rgb(90.980392%,79.215686%,15.686275%);fill-opacity:1;" d="M 123.15625 52.109375 L 131.117188 51.453125 L 115.175781 65.144531 Z M 123.15625 52.109375 "/>
<path style=" stroke:none;fill-rule:evenodd;fill:rgb(63.529412%,50.980392%,11.764706%);fill-opacity:1;" d="M 115.164062 65.144531 L 131.117188 51.453125 L 129.285156 59.292969 Z M 115.164062 65.144531 "/>
<path style=" stroke:none;fill-rule:evenodd;fill:rgb(78.823529%,63.529412%,5.490196%);fill-opacity:1;" d="M 129.285156 59.292969 L 131.117188 51.453125 L 139.21875 70.925781 Z M 129.285156 59.292969 "/>
<path style=" stroke:none;fill-rule:evenodd;fill:rgb(63.529412%,50.980392%,11.764706%);fill-opacity:1;" d="M 139.21875 70.925781 L 131.117188 51.453125 L 138.015625 55.679688 Z M 139.21875 70.925781 "/>
<path style=" stroke:none;fill-rule:evenodd;fill:rgb(86.666667%,72.54902%,2.745098%);fill-opacity:1;" d="M 236.984375 319.320312 L 243.882812 323.546875 L 222.855469 325.171875 Z M 236.984375 319.320312 "/>
<path style=" stroke:none;fill-rule:evenodd;fill:rgb(71.372549%,57.647059%,9.803922%);fill-opacity:1;" d="M 237.71875 328.734375 L 243.882812 323.546875 L 222.855469 325.171875 Z M 237.71875 328.734375 "/>
<path style=" stroke:none;fill-rule:evenodd;fill:rgb(78.823529%,63.529412%,5.490196%);fill-opacity:1;" d="M 238.921875 343.976562 L 243.882812 323.546875 L 237.71875 328.734375 Z M 238.921875 343.976562 "/>
<path style=" stroke:none;fill-rule:evenodd;fill:rgb(63.529412%,50.980392%,11.764706%);fill-opacity:1;" d="M 246.910156 330.941406 L 243.882812 323.546875 L 238.921875 343.976562 Z M 246.910156 330.941406 "/>
<path style=" stroke:none;fill-rule:evenodd;fill:rgb(71.372549%,57.647059%,9.803922%);fill-opacity:1;" d="M 261.773438 334.511719 L 243.882812 323.546875 L 246.910156 330.941406 Z M 261.773438 334.511719 "/>
<path style=" stroke:none;fill-rule:evenodd;fill:rgb(78.823529%,63.529412%,5.490196%);fill-opacity:1;" d="M 251.835938 322.882812 L 243.882812 323.546875 L 261.773438 334.511719 Z M 251.835938 322.882812 "/>
<path style=" stroke:none;fill-rule:evenodd;fill:rgb(63.529412%,50.980392%,11.764706%);fill-opacity:1;" d="M 251.835938 322.882812 L 243.882812 323.546875 L 259.824219 309.855469 Z M 251.835938 322.882812 "/>
<path style=" stroke:none;fill-rule:evenodd;fill:rgb(86.666667%,72.54902%,2.745098%);fill-opacity:1;" d="M 259.824219 309.855469 L 243.882812 323.546875 L 245.707031 315.714844 Z M 259.824219 309.855469 "/>
<path style=" stroke:none;fill-rule:evenodd;fill:rgb(78.823529%,63.529412%,5.490196%);fill-opacity:1;" d="M 245.707031 315.714844 L 243.882812 323.546875 L 235.78125 304.085938 Z M 245.707031 315.714844 "/>
<path style=" stroke:none;fill-rule:evenodd;fill:rgb(90.980392%,79.215686%,15.686275%);fill-opacity:1;" d="M 235.78125 304.085938 L 243.882812 323.546875 L 236.984375 319.320312 Z M 235.78125 304.085938 "/>
<path style=" stroke:none;fill-rule:evenodd;fill:rgb(78.823529%,63.529412%,5.490196%);fill-opacity:1;" d="M 245.722656 59.292969 L 243.828125 51.425781 L 259.84375 65.152344 Z M 245.722656 59.292969 "/>
<path style=" stroke:none;fill-rule:evenodd;fill:rgb(71.372549%,57.647059%,9.803922%);fill-opacity:1;" d="M 251.855469 52.117188 L 243.828125 51.425781 L 259.84375 65.152344 Z M 251.855469 52.117188 "/>
<path style=" stroke:none;fill-rule:evenodd;fill:rgb(63.529412%,50.980392%,11.764706%);fill-opacity:1;" d="M 261.78125 40.496094 L 243.828125 51.425781 L 251.855469 52.125 Z M 261.78125 40.496094 "/>
<path style=" stroke:none;fill-rule:evenodd;fill:rgb(78.823529%,63.529412%,5.490196%);fill-opacity:1;" d="M 246.921875 44.066406 L 243.828125 51.425781 L 261.789062 40.496094 Z M 246.921875 44.066406 "/>
<path style=" stroke:none;fill-rule:evenodd;fill:rgb(71.372549%,57.647059%,9.803922%);fill-opacity:1;" d="M 238.929688 31.03125 L 243.828125 51.425781 L 246.921875 44.066406 Z M 238.929688 31.03125 "/>
<path style=" stroke:none;fill-rule:evenodd;fill:rgb(90.980392%,79.215686%,15.686275%);fill-opacity:1;" d="M 237.734375 46.265625 L 243.828125 51.425781 L 238.929688 31.03125 Z M 237.734375 46.265625 "/>
<path style=" stroke:none;fill-rule:evenodd;fill:rgb(86.666667%,72.54902%,2.745098%);fill-opacity:1;" d="M 237.734375 46.265625 L 243.828125 51.425781 L 222.875 49.839844 Z M 237.734375 46.265625 "/>
<path style=" stroke:none;fill-rule:evenodd;fill:rgb(78.823529%,63.529412%,5.490196%);fill-opacity:1;" d="M 222.875 49.839844 L 243.828125 51.425781 L 236.992188 55.6875 Z M 222.875 49.839844 "/>
<path style=" stroke:none;fill-rule:evenodd;fill:rgb(86.666667%,72.54902%,2.745098%);fill-opacity:1;" d="M 236.992188 55.6875 L 243.828125 51.425781 L 235.789062 70.925781 Z M 236.992188 55.6875 "/>
<path style=" stroke:none;fill-rule:evenodd;fill:rgb(71.372549%,57.647059%,9.803922%);fill-opacity:1;" d="M 235.789062 70.925781 L 243.828125 51.425781 L 245.722656 59.292969 Z M 235.789062 70.925781 "/>
<path style=" stroke:none;fill-rule:evenodd;fill:rgb(86.666667%,72.54902%,2.745098%);fill-opacity:1;" d="M 129.277344 315.695312 L 131.160156 323.574219 L 115.15625 309.855469 Z M 129.277344 315.695312 "/>
<path style=" stroke:none;fill-rule:evenodd;fill:rgb(78.823529%,63.529412%,5.490196%);fill-opacity:1;" d="M 123.144531 322.882812 L 131.160156 323.574219 L 115.15625 309.847656 Z M 123.144531 322.882812 "/>
<path style=" stroke:none;fill-rule:evenodd;fill:rgb(90.980392%,79.215686%,15.686275%);fill-opacity:1;" d="M 113.210938 334.503906 L 131.171875 323.574219 L 123.144531 322.882812 Z M 113.210938 334.503906 "/>
<path style=" stroke:none;fill-rule:evenodd;fill:rgb(63.529412%,50.980392%,11.764706%);fill-opacity:1;" d="M 128.078125 330.941406 L 131.160156 323.574219 L 113.210938 334.503906 Z M 128.078125 330.941406 "/>
<path style=" stroke:none;fill-rule:evenodd;fill:rgb(78.823529%,63.529412%,5.490196%);fill-opacity:1;" d="M 136.070312 343.96875 L 131.171875 323.574219 L 128.078125 330.941406 Z M 136.070312 343.96875 "/>
<path style=" stroke:none;fill-rule:evenodd;fill:rgb(63.529412%,50.980392%,11.764706%);fill-opacity:1;" d="M 137.265625 328.734375 L 131.160156 323.574219 L 136.058594 343.96875 Z M 137.265625 328.734375 "/>
<path style=" stroke:none;fill-rule:evenodd;fill:rgb(86.666667%,72.54902%,2.745098%);fill-opacity:1;" d="M 137.265625 328.734375 L 131.160156 323.574219 L 152.125 325.160156 Z M 137.265625 328.734375 "/>
<path style=" stroke:none;fill-rule:evenodd;fill:rgb(78.823529%,63.529412%,5.490196%);fill-opacity:1;" d="M 152.125 325.160156 L 131.160156 323.574219 L 138.007812 319.320312 Z M 152.125 325.160156 "/>
<path style=" stroke:none;fill-rule:evenodd;fill:rgb(63.529412%,50.980392%,11.764706%);fill-opacity:1;" d="M 138.007812 319.320312 L 131.160156 323.574219 L 139.203125 304.074219 Z M 138.007812 319.320312 "/>
<path style=" stroke:none;fill-rule:evenodd;fill:rgb(90.980392%,79.215686%,15.686275%);fill-opacity:1;" d="M 139.203125 304.074219 L 131.160156 323.574219 L 129.277344 315.695312 Z M 139.203125 304.074219 "/>
<path style=" stroke:none;fill-rule:evenodd;fill:rgb(63.529412%,50.980392%,11.764706%);fill-opacity:1;" d="M 59.292969 129.277344 L 51.425781 131.171875 L 65.144531 115.15625 Z M 59.292969 129.277344 "/>
<path style=" stroke:none;fill-rule:evenodd;fill:rgb(86.666667%,72.54902%,2.745098%);fill-opacity:1;" d="M 52.117188 123.144531 L 51.425781 131.171875 L 65.144531 115.15625 Z M 52.117188 123.144531 "/>
<path style=" stroke:none;fill-rule:evenodd;fill:rgb(78.823529%,63.529412%,5.490196%);fill-opacity:1;" d="M 40.496094 113.21875 L 51.425781 131.171875 L 52.117188 123.144531 Z M 40.496094 113.21875 "/>
<path style=" stroke:none;fill-rule:evenodd;fill:rgb(86.666667%,72.54902%,2.745098%);fill-opacity:1;" d="M 44.058594 128.078125 L 51.425781 131.171875 L 40.496094 113.21875 Z M 44.058594 128.078125 "/>
<path style=" stroke:none;fill-rule:evenodd;fill:rgb(90.980392%,79.215686%,15.686275%);fill-opacity:1;" d="M 31.03125 136.058594 L 51.425781 131.171875 L 44.058594 128.078125 Z M 31.03125 136.058594 "/>
<path style=" stroke:none;fill-rule:evenodd;fill:rgb(71.372549%,57.647059%,9.803922%);fill-opacity:1;" d="M 46.265625 137.265625 L 51.425781 131.171875 L 31.023438 136.058594 Z M 46.265625 137.265625 "/>
<path style=" stroke:none;fill-rule:evenodd;fill:rgb(78.823529%,63.529412%,5.490196%);fill-opacity:1;" d="M 46.265625 137.265625 L 51.425781 131.171875 L 49.839844 152.125 Z M 46.265625 137.265625 "/>
<path style=" stroke:none;fill-rule:evenodd;fill:rgb(63.529412%,50.980392%,11.764706%);fill-opacity:1;" d="M 49.839844 152.125 L 51.425781 131.171875 L 55.679688 138.007812 Z M 49.839844 152.125 "/>
<path style=" stroke:none;fill-rule:evenodd;fill:rgb(71.372549%,57.647059%,9.803922%);fill-opacity:1;" d="M 55.679688 138.007812 L 51.425781 131.171875 L 70.925781 139.203125 Z M 55.679688 138.007812 "/>
<path style=" stroke:none;fill-rule:evenodd;fill:rgb(78.823529%,63.529412%,5.490196%);fill-opacity:1;" d="M 70.925781 139.203125 L 51.425781 131.171875 L 59.292969 129.277344 Z M 70.925781 139.203125 "/>
<path style=" stroke:none;fill-rule:evenodd;fill:rgb(90.980392%,79.215686%,15.686275%);fill-opacity:1;" d="M 315.695312 245.722656 L 323.574219 243.828125 L 309.847656 259.84375 Z M 315.695312 245.722656 "/>
<path style=" stroke:none;fill-rule:evenodd;fill:rgb(63.529412%,50.980392%,11.764706%);fill-opacity:1;" d="M 322.882812 251.855469 L 323.574219 243.828125 L 309.847656 259.84375 Z M 322.882812 251.855469 "/>
<path style=" stroke:none;fill-rule:evenodd;fill:rgb(78.823529%,63.529412%,5.490196%);fill-opacity:1;" d="M 334.503906 261.78125 L 323.574219 243.828125 L 322.882812 251.855469 Z M 334.503906 261.78125 "/>
<path style=" stroke:none;fill-rule:evenodd;fill:rgb(86.666667%,72.54902%,2.745098%);fill-opacity:1;" d="M 330.933594 246.921875 L 323.574219 243.828125 L 334.503906 261.78125 Z M 330.933594 246.921875 "/>
<path style=" stroke:none;fill-rule:evenodd;fill:rgb(71.372549%,57.647059%,9.803922%);fill-opacity:1;" d="M 343.96875 238.929688 L 323.574219 243.828125 L 330.933594 246.921875 Z M 343.96875 238.929688 "/>
<path style=" stroke:none;fill-rule:evenodd;fill:rgb(86.666667%,72.54902%,2.745098%);fill-opacity:1;" d="M 328.722656 237.734375 L 323.574219 243.828125 L 343.96875 238.929688 Z M 328.722656 237.734375 "/>
<path style=" stroke:none;fill-rule:evenodd;fill:rgb(63.529412%,50.980392%,11.764706%);fill-opacity:1;" d="M 328.722656 237.734375 L 323.574219 243.828125 L 325.160156 222.875 Z M 328.722656 237.734375 "/>
<path style=" stroke:none;fill-rule:evenodd;fill:rgb(90.980392%,79.215686%,15.686275%);fill-opacity:1;" d="M 325.160156 222.875 L 323.574219 243.828125 L 319.3125 237.003906 Z M 325.160156 222.875 "/>
<path style=" stroke:none;fill-rule:evenodd;fill:rgb(78.823529%,63.529412%,5.490196%);fill-opacity:1;" d="M 319.3125 237.003906 L 323.574219 243.828125 L 304.074219 235.796875 Z M 319.3125 237.003906 "/>
<path style=" stroke:none;fill-rule:evenodd;fill:rgb(86.666667%,72.54902%,2.745098%);fill-opacity:1;" d="M 304.074219 235.796875 L 323.574219 243.828125 L 315.707031 245.722656 Z M 304.074219 235.796875 "/>
<path style=" stroke:none;fill-rule:evenodd;fill:rgb(90.980392%,79.607843%,30.588235%);fill-opacity:1;" d="M 187.496094 82.300781 L 187.496094 187.503906 L 177.238281 135.921875 Z M 187.496094 82.300781 "/>
<path style=" stroke:none;fill-rule:evenodd;fill:rgb(63.529412%,50.980392%,11.764706%);fill-opacity:1;" d="M 187.496094 82.300781 L 187.496094 187.503906 L 197.753906 135.921875 Z M 187.496094 82.300781 "/>
<path style=" stroke:none;fill-rule:evenodd;fill:rgb(63.529412%,50.980392%,11.764706%);fill-opacity:1;" d="M 187.496094 292.707031 L 187.496094 187.503906 L 197.753906 239.089844 Z M 187.496094 292.707031 "/>
<path style=" stroke:none;fill-rule:evenodd;fill:rgb(78.823529%,63.529412%,5.490196%);fill-opacity:1;" d="M 187.496094 292.707031 L 187.496094 187.503906 L 177.238281 239.089844 Z M 187.496094 292.707031 "/>
<path style=" stroke:none;fill-rule:evenodd;fill:rgb(78.823529%,63.529412%,5.490196%);fill-opacity:1;" d="M 82.300781 187.503906 L 187.496094 187.503906 L 135.921875 197.761719 Z M 82.300781 187.503906 "/>
<path style=" stroke:none;fill-rule:evenodd;fill:rgb(86.666667%,72.54902%,2.745098%);fill-opacity:1;" d="M 82.300781 187.503906 L 187.496094 187.503906 L 135.921875 177.246094 Z M 82.300781 187.503906 "/>
<g clip-path="url(#clip1)" clip-rule="nonzero">
<g clip-path="url(#clip2)" clip-rule="nonzero">
<path style=" stroke:none;fill-rule:nonzero;fill:url(#linear0);" d="M 187.496094 177.246094 L 292.699219 177.246094 L 292.699219 187.503906 L 187.496094 187.503906 Z M 187.496094 177.246094 "/>
</g>
</g>
<g clip-path="url(#clip3)" clip-rule="nonzero">
<g clip-path="url(#clip4)" clip-rule="nonzero">
<path style=" stroke:none;fill-rule:nonzero;fill:url(#linear1);" d="M 187.496094 187.503906 L 292.699219 187.503906 L 292.699219 197.761719 L 187.496094 197.761719 Z M 187.496094 187.503906 "/>
</g>
</g>
<path style=" stroke:none;fill-rule:evenodd;fill:rgb(86.666667%,72.54902%,2.745098%);fill-opacity:1;" d="M 113.113281 113.121094 L 187.496094 187.503906 L 143.769531 158.28125 Z M 113.113281 113.121094 "/>
<path style=" stroke:none;fill-rule:evenodd;fill:rgb(78.823529%,63.529412%,5.490196%);fill-opacity:1;" d="M 113.113281 113.121094 L 187.496094 187.503906 L 158.28125 143.777344 Z M 113.113281 113.121094 "/>
<path style=" stroke:none;fill-rule:evenodd;fill:rgb(71.372549%,57.647059%,9.803922%);fill-opacity:1;" d="M 261.886719 261.886719 L 187.496094 187.503906 L 231.230469 216.726562 Z M 261.886719 261.886719 "/>
<g clip-path="url(#clip5)" clip-rule="nonzero">
<g clip-path="url(#clip6)" clip-rule="nonzero">
<path style=" stroke:none;fill-rule:nonzero;fill:url(#linear2);" d="M 187.496094 187.503906 L 261.886719 187.503906 L 261.886719 261.894531 L 187.496094 261.894531 Z M 187.496094 187.503906 "/>
</g>
</g>
<path style=" stroke:none;fill-rule:evenodd;fill:rgb(71.372549%,57.647059%,9.803922%);fill-opacity:1;" d="M 113.113281 261.886719 L 187.496094 187.503906 L 158.28125 231.230469 Z M 113.113281 261.886719 "/>
<path style=" stroke:none;fill-rule:evenodd;fill:rgb(86.666667%,72.54902%,2.745098%);fill-opacity:1;" d="M 113.113281 261.886719 L 187.496094 187.503906 L 143.777344 216.726562 Z M 113.113281 261.886719 "/>
<g clip-path="url(#clip7)" clip-rule="nonzero">
<g clip-path="url(#clip8)" clip-rule="nonzero">
<path style=" stroke:none;fill-rule:nonzero;fill:url(#linear3);" d="M 187.496094 113.113281 L 261.886719 113.113281 L 261.886719 187.503906 L 187.496094 187.503906 Z M 187.496094 113.113281 "/>
</g>
</g>
<g clip-path="url(#clip9)" clip-rule="nonzero">
<g clip-path="url(#clip10)" clip-rule="nonzero">
<path style=" stroke:none;fill-rule:nonzero;fill:url(#linear4);" d="M 187.496094 113.113281 L 261.886719 113.113281 L 261.886719 187.503906 L 187.496094 187.503906 Z M 187.496094 113.113281 "/>
</g>
</g>
<path style=" stroke:none;fill-rule:evenodd;fill:rgb(90.980392%,79.215686%,15.686275%);fill-opacity:1;" d="M 158.273438 143.777344 L 187.496094 187.503906 L 155.292969 109.753906 Z M 158.273438 143.777344 "/>
<path style=" stroke:none;fill-rule:evenodd;fill:rgb(71.372549%,57.647059%,9.803922%);fill-opacity:1;" d="M 177.246094 135.921875 L 187.496094 187.503906 L 155.292969 109.753906 Z M 177.246094 135.921875 "/>
<path style=" stroke:none;fill-rule:evenodd;fill:rgb(63.529412%,50.980392%,11.764706%);fill-opacity:1;" d="M 216.726562 231.238281 L 187.496094 187.503906 L 219.707031 265.257812 Z M 216.726562 231.238281 "/>
<g clip-path="url(#clip11)" clip-rule="nonzero">
<g clip-path="url(#clip12)" clip-rule="nonzero">
<path style=" stroke:none;fill-rule:nonzero;fill:url(#linear5);" d="M 187.496094 187.503906 L 219.707031 187.503906 L 219.707031 265.257812 L 187.496094 265.257812 Z M 187.496094 187.503906 "/>
</g>
</g>
<path style=" stroke:none;fill-rule:evenodd;fill:rgb(71.372549%,57.647059%,9.803922%);fill-opacity:1;" d="M 143.761719 216.738281 L 187.496094 187.503906 L 109.742188 219.714844 Z M 143.761719 216.738281 "/>
<path style=" stroke:none;fill-rule:evenodd;fill:rgb(86.666667%,72.54902%,2.745098%);fill-opacity:1;" d="M 135.902344 197.773438 L 187.496094 187.503906 L 109.742188 219.714844 Z M 135.902344 197.773438 "/>
<g clip-path="url(#clip13)" clip-rule="nonzero">
<g clip-path="url(#clip14)" clip-rule="nonzero">
<path style=" stroke:none;fill-rule:nonzero;fill:url(#linear6);" d="M 187.496094 155.3125 L 265.238281 155.3125 L 265.238281 187.503906 L 187.496094 187.503906 Z M 187.496094 155.3125 "/>
</g>
</g>
<g clip-path="url(#clip15)" clip-rule="nonzero">
<g clip-path="url(#clip16)" clip-rule="nonzero">
<path style=" stroke:none;fill-rule:nonzero;fill:url(#linear7);" d="M 187.496094 155.3125 L 265.238281 155.3125 L 265.238281 187.503906 L 187.496094 187.503906 Z M 187.496094 155.3125 "/>
</g>
</g>
<path style=" stroke:none;fill-rule:evenodd;fill:rgb(78.823529%,63.529412%,5.490196%);fill-opacity:1;" d="M 135.902344 177.253906 L 187.496094 187.503906 L 109.742188 155.304688 Z M 135.902344 177.253906 "/>
<path style=" stroke:none;fill-rule:evenodd;fill:rgb(86.666667%,72.54902%,2.745098%);fill-opacity:1;" d="M 143.761719 158.28125 L 187.496094 187.503906 L 109.742188 155.304688 Z M 143.761719 158.28125 "/>
<path style=" stroke:none;fill-rule:evenodd;fill:rgb(71.372549%,57.647059%,9.803922%);fill-opacity:1;" d="M 239.089844 197.773438 L 187.496094 187.503906 L 265.246094 219.714844 Z M 239.089844 197.773438 "/>
<g clip-path="url(#clip17)" clip-rule="nonzero">
<g clip-path="url(#clip18)" clip-rule="nonzero">
<path style=" stroke:none;fill-rule:nonzero;fill:url(#linear8);" d="M 187.496094 187.503906 L 265.246094 187.503906 L 265.246094 219.714844 L 187.496094 219.714844 Z M 187.496094 187.503906 "/>
</g>
</g>
<path style=" stroke:none;fill-rule:evenodd;fill:rgb(71.372549%,57.647059%,9.803922%);fill-opacity:1;" d="M 177.238281 239.105469 L 187.496094 187.503906 L 155.285156 265.265625 Z M 177.238281 239.105469 "/>
<path style=" stroke:none;fill-rule:evenodd;fill:rgb(78.823529%,63.529412%,5.490196%);fill-opacity:1;" d="M 158.261719 231.25 L 187.496094 187.503906 L 155.285156 265.265625 Z M 158.261719 231.25 "/>
<g clip-path="url(#clip19)" clip-rule="nonzero">
<g clip-path="url(#clip20)" clip-rule="nonzero">
<path style=" stroke:none;fill-rule:nonzero;fill:url(#linear9);" d="M 187.496094 109.769531 L 219.695312 109.769531 L 219.695312 187.503906 L 187.496094 187.503906 Z M 187.496094 109.769531 "/>
</g>
</g>
<path style=" stroke:none;fill-rule:evenodd;fill:rgb(63.529412%,50.980392%,11.764706%);fill-opacity:1;" d="M 216.71875 143.785156 L 187.496094 187.503906 L 219.695312 109.769531 Z M 216.71875 143.785156 "/>
</g>
</svg>
