<svg xmlns="http://www.w3.org/2000/svg" fill="none" viewBox="0 0 470 242"><path fill="#232323" d="M0 0h470v242H0z"/><path fill="#fff" d="m411.88 109.63-23.79-64.22c-43.8-13.44-59.07 50.23-102.88 36.78l-6.08 2.22 46.3 125.06h6.9L309 146.44c43.81 13.44 59.08-50.22 102.88-36.78M36.6 182l6.5-16.8h2.64L52.2 182h-2.76l-1.58-4.18h-7.04L39.24 182H36.6Zm10.32-6.67-1.32-3.46-.29-.81a45.2 45.2 0 0 0-.45-1.44 144.05 144.05 0 0 1-.5-1.52l-.06.22a1181.3 1181.3 0 0 0-.88 2.62l-.36 1.03-1.28 3.36h5.14Zm8.24 6.67v-16.8H62a4.99 4.99 0 0 1 4.27 2.54c.45.79.67 1.66.67 2.62 0 .96-.22 1.83-.67 2.62a5.38 5.38 0 0 1-1.8 1.9c-.74.46-1.56.69-2.47.69h-4.25V182h-2.6Zm2.59-8.93h4.2c.43 0 .82-.12 1.17-.36.36-.25.64-.58.84-.98.23-.42.34-.87.34-1.37 0-.5-.11-.94-.34-1.34-.2-.4-.48-.72-.84-.96a2.04 2.04 0 0 0-1.17-.36h-4.2v5.37Zm12 8.93v-2.4h2.7v-12h-2.7v-2.4h8.01v2.4h-2.71v12h2.71v2.4h-8.02Z"/><path fill="#712FFF" d="M49.07 151.48a17.3 17.3 0 0 1-5.09-.72 13.9 13.9 0 0 1-4.22-2.16c-1.25-1-2.37-2.2-3.36-3.65l3.55-4.08c1.57 2.24 3.07 3.8 4.51 4.66a9.8 9.8 0 0 0 5.14 1.3 9.1 9.1 0 0 0 3.31-.58c1-.39 1.78-.91 2.35-1.59.58-.67.87-1.44.87-2.3 0-.58-.1-1.12-.29-1.63-.2-.51-.5-.98-.91-1.4-.39-.41-.9-.8-1.54-1.15a18.9 18.9 0 0 0-5.04-1.63 21.47 21.47 0 0 1-4.51-1.39 10.7 10.7 0 0 1-3.22-2.16 8.3 8.3 0 0 1-1.92-2.93 10.69 10.69 0 0 1-.62-3.74c0-1.35.29-2.6.86-3.75a9.53 9.53 0 0 1 2.45-2.97 11.07 11.07 0 0 1 3.7-1.97 15.94 15.94 0 0 1 9.31-.05 11.6 11.6 0 0 1 6.62 5.23l-3.64 3.6a11.23 11.23 0 0 0-2.16-2.64 7.9 7.9 0 0 0-2.64-1.63 8.2 8.2 0 0 0-3.08-.57 8.5 8.5 0 0 0-3.26.57c-.93.39-1.66.93-2.2 1.63a3.85 3.85 0 0 0-.78 2.4c0 .68.13 1.3.39 1.88.25.54.64 1.04 1.15 1.48.54.42 1.26.8 2.16 1.16.9.32 1.97.6 3.22.86 1.76.38 3.32.88 4.7 1.49 1.38.57 2.54 1.26 3.5 2.06a8.1 8.1 0 0 1 2.16 2.69c.52 1 .77 2.06.77 3.22 0 2.14-.5 4-1.49 5.56a9.84 9.84 0 0 1-4.22 3.65c-1.82.83-4 1.25-6.53 1.25Zm27.17 0c-1.8 0-3.36-.42-4.7-1.25a8.42 8.42 0 0 1-3.07-3.5c-.7-1.5-1.06-3.3-1.06-5.38V125.8h4.94V140c0 1.48.23 2.76.68 3.85a5.68 5.68 0 0 0 2.01 2.45c.9.57 1.97.86 3.22.86a6.02 6.02 0 0 0 5.86-3.7c.31-.76.47-1.6.47-2.5V125.8h4.95V151h-4.95v-4.03c-.32.48-.67.94-1.05 1.39a9.98 9.98 0 0 1-7.3 3.12Zm20.23-.48v-25.2h4.95v3.89c.28-.42.62-.83 1-1.25.93-.93 2.04-1.68 3.32-2.26 1.28-.6 2.59-.9 3.93-.9a9.2 9.2 0 0 1 4.8 1.14 6.78 6.78 0 0 1 2.88 3.41c.64 1.54.96 3.47.96 5.81V151h-4.94v-15.02c0-1.44-.2-2.63-.58-3.56a3.8 3.8 0 0 0-1.77-2.06 5.4 5.4 0 0 0-2.98-.58c-.96 0-1.84.16-2.64.48-.8.3-1.5.7-2.11 1.25a6.43 6.43 0 0 0-1.4 1.92 5.5 5.5 0 0 0-.47 2.3V151h-4.95Zm39.06.48c-2.3 0-4.37-.56-6.2-1.68a12.49 12.49 0 0 1-4.26-4.66 14.18 14.18 0 0 1-1.59-6.76c0-2.53.52-4.77 1.54-6.72a12.02 12.02 0 0 1 4.27-4.66 11.03 11.03 0 0 1 6.1-1.73c1.25 0 2.45.21 3.6.63 1.18.38 2.24.9 3.16 1.58.61.45 1.13.93 1.54 1.44v-13.44h4.94V151h-4.94v-3.46a9.83 9.83 0 0 1-1.82 1.83 10.9 10.9 0 0 1-6.34 2.11Zm.67-4.27c1.5 0 2.84-.39 3.99-1.15a7.75 7.75 0 0 0 2.69-3.12c.67-1.35 1-2.87 1-4.56 0-1.7-.33-3.2-1-4.52a7.68 7.68 0 0 0-2.7-3.16 7.01 7.01 0 0 0-3.98-1.16c-1.5 0-2.83.39-3.98 1.16a8.03 8.03 0 0 0-2.74 3.16 10.17 10.17 0 0 0-.96 4.52c0 1.7.32 3.21.96 4.56a8.11 8.11 0 0 0 2.74 3.12 7.01 7.01 0 0 0 3.98 1.15Zm19.24 3.79v-25.2h5v4.7c.34-.7.8-1.37 1.34-2.01a9.6 9.6 0 0 1 2.88-2.35 7.47 7.47 0 0 1 4.99-.72c.51.1.91.2 1.2.33l-1.3 5.38a6.88 6.88 0 0 0-1.3-.39c-.44-.12-.89-.19-1.34-.19-.86 0-1.7.18-2.5.53a6.36 6.36 0 0 0-3.45 3.46 6.03 6.03 0 0 0-.53 2.54V151h-4.99Zm20.18 0v-25.2h4.94V151h-4.94Zm2.4-30.77a3.43 3.43 0 0 1-2.45-.81 3.02 3.02 0 0 1-.87-2.3c0-.94.3-1.69.87-2.26.6-.58 1.42-.87 2.45-.87 1.05 0 1.87.27 2.44.82.58.54.87 1.31.87 2.3 0 .93-.3 1.68-.91 2.26-.58.57-1.38.86-2.4.86Zm21.9 31.25c-2.6 0-4.9-.54-6.91-1.63a12.62 12.62 0 0 1-4.7-4.56 12.9 12.9 0 0 1-1.69-6.63c0-1.98.32-3.79.96-5.42a12.95 12.95 0 0 1 2.64-4.22 11.58 11.58 0 0 1 4.08-2.79c1.6-.67 3.33-1 5.19-1 1.63 0 3.15.31 4.56.95 1.4.61 2.62 1.46 3.64 2.55a10.76 10.76 0 0 1 2.4 3.89c.58 1.47.85 3.08.82 4.84l-.05 2.12h-19.3a8.96 8.96 0 0 0 1.06 3.3 7.48 7.48 0 0 0 3.12 3.03c1.35.7 2.9 1.06 4.66 1.06 1.25 0 2.4-.21 3.45-.63a12.1 12.1 0 0 0 3.5-2.25l2.5 3.5c-.76.77-1.7 1.44-2.83 2.02a17.78 17.78 0 0 1-3.5 1.39 14.1 14.1 0 0 1-3.6.48Zm-8.16-15.84h14.11v-.34c-.1-1.05-.45-2-1.06-2.83a6.53 6.53 0 0 0-5.32-2.69c-1.73 0-3.19.34-4.37 1.01a6.23 6.23 0 0 0-2.69 2.83c-.29.61-.51 1.28-.67 2.02Zm32.92 15.84a14.2 14.2 0 0 1-5.7-1.1c-1.7-.74-3.11-1.83-4.23-3.27l3.36-2.88c.96 1.12 2 1.94 3.12 2.45 1.15.48 2.45.72 3.89.72.57 0 1.1-.06 1.58-.2.51-.15.94-.38 1.3-.66.38-.3.67-.63.86-1.01.2-.42.29-.87.29-1.35 0-.83-.3-1.5-.91-2.01a19.68 19.68 0 0 0-4.18-1.58 22.41 22.41 0 0 1-4.56-1.64 8.64 8.64 0 0 1-2.74-2.06 6.19 6.19 0 0 1-1.05-1.97 8.2 8.2 0 0 1-.34-2.4c0-1.06.23-2.02.67-2.88a7.4 7.4 0 0 1 1.92-2.3 8.89 8.89 0 0 1 2.88-1.54c1.12-.35 2.3-.53 3.56-.53a13.03 13.03 0 0 1 6.76 1.87c1 .61 1.83 1.33 2.5 2.16l-2.83 3.12c-.61-.6-1.28-1.13-2.02-1.58a9.2 9.2 0 0 0-2.16-1.1 6.19 6.19 0 0 0-2.01-.39c-.68 0-1.28.07-1.83.2-.54.12-1 .31-1.39.57-.35.26-.62.58-.82.96-.19.38-.28.82-.28 1.3.03.41.12.81.28 1.2a3 3 0 0 0 .77.9c.35.26.88.54 1.59.82.7.3 1.6.56 2.68.82 1.6.42 2.92.88 3.94 1.4a7.91 7.91 0 0 1 2.5 1.67c.64.61 1.08 1.31 1.34 2.11.26.8.38 1.7.38 2.7 0 1.43-.41 2.73-1.24 3.88-.8 1.12-1.9 2-3.27 2.64a10.8 10.8 0 0 1-4.6.96Z"/><path fill="#fff" d="M52.34 102.48c-2.34 0-4.48-.42-6.44-1.25a14.91 14.91 0 0 1-5.08-3.55 16.93 16.93 0 0 1-3.36-5.52 20.23 20.23 0 0 1-1.16-6.96c0-2.4.42-4.62 1.25-6.67.87-2.08 2.05-3.9 3.55-5.47a15.93 15.93 0 0 1 16.42-4.18c1.57.48 2.98 1.17 4.22 2.06 1.28.87 2.32 1.86 3.12 2.98l-3.45 3.6c-.93-.93-1.87-1.7-2.83-2.3a11.03 11.03 0 0 0-2.88-1.44 9.2 9.2 0 0 0-2.93-.48c-1.57 0-3.04.3-4.42.9-1.34.58-2.53 1.4-3.55 2.46-1 1.05-1.78 2.32-2.35 3.79a12.68 12.68 0 0 0-.87 4.75c0 1.82.28 3.49.82 5a11.28 11.28 0 0 0 2.4 3.78 10.62 10.62 0 0 0 3.65 2.45 13.35 13.35 0 0 0 7.87.39c1.02-.3 1.98-.7 2.88-1.25.9-.55 1.71-1.19 2.45-1.92l2.59 4.22c-.74.87-1.74 1.65-3.02 2.35a17.9 17.9 0 0 1-8.88 2.26Zm29.02 0c-2.46 0-4.67-.56-6.62-1.68a12.73 12.73 0 0 1-4.56-4.66 13.53 13.53 0 0 1-1.68-6.76c0-2.53.56-4.77 1.68-6.72A12.26 12.26 0 0 1 74.74 78a12.78 12.78 0 0 1 6.62-1.73c2.43 0 4.61.58 6.53 1.73a12.15 12.15 0 0 1 4.6 4.66 13.26 13.26 0 0 1 1.69 6.72c0 2.52-.56 4.78-1.68 6.76a12.61 12.61 0 0 1-4.61 4.66 12.71 12.71 0 0 1-6.53 1.68Zm0-4.51c1.5 0 2.85-.37 4.03-1.1a8.06 8.06 0 0 0 2.79-3.08c.67-1.31.99-2.78.96-4.41a8.98 8.98 0 0 0-.96-4.42 7.48 7.48 0 0 0-6.82-4.18A7.62 7.62 0 0 0 74.5 85a8.87 8.87 0 0 0-.96 4.38c-.03 1.63.29 3.1.96 4.41a8.06 8.06 0 0 0 2.78 3.07 7.73 7.73 0 0 0 4.08 1.1Zm27.04 4.51c-1.8 0-3.36-.42-4.7-1.25a8.42 8.42 0 0 1-3.08-3.5 12.6 12.6 0 0 1-1.05-5.38V76.8h4.94V91c0 1.48.22 2.76.67 3.85a5.68 5.68 0 0 0 2.02 2.45c.9.57 1.97.86 3.21.86a6.02 6.02 0 0 0 5.86-3.7c.32-.76.48-1.6.48-2.5V76.8h4.94V102h-4.94v-4.03c-.32.48-.67.94-1.06 1.39a9.98 9.98 0 0 1-7.3 3.12Zm20.23-.48V76.8h4.94v3.89c.29-.42.63-.83 1.01-1.25.93-.93 2.03-1.68 3.31-2.26 1.28-.6 2.6-.9 3.94-.9a9.2 9.2 0 0 1 4.8 1.14 6.78 6.78 0 0 1 2.88 3.41c.64 1.54.96 3.47.96 5.81V102h-4.95V86.98c0-1.44-.19-2.63-.57-3.56a3.8 3.8 0 0 0-1.78-2.06 5.4 5.4 0 0 0-2.97-.58c-.96 0-1.84.16-2.64.48-.8.3-1.5.7-2.12 1.25a6.43 6.43 0 0 0-1.39 1.92 5.5 5.5 0 0 0-.48 2.3V102h-4.94Zm31.66 0V81.6h-5.23v-4.8h5.23v-6.43h4.95v6.43h5.85v4.8h-5.85V102h-4.95Zm15.3 0V76.8h5v4.7c.35-.7.8-1.37 1.34-2.01a9.6 9.6 0 0 1 2.88-2.35 7.47 7.47 0 0 1 5-.72c.5.1.9.2 1.2.33l-1.3 5.38a6.88 6.88 0 0 0-1.3-.39c-.44-.12-.9-.19-1.34-.19-.86 0-1.7.18-2.5.53a6.36 6.36 0 0 0-3.45 3.46 6.03 6.03 0 0 0-.53 2.54V102h-5Zm20.18 0V76.8h4.95V102h-4.95Zm2.4-30.77a3.43 3.43 0 0 1-2.45-.81 3.02 3.02 0 0 1-.86-2.3c0-.94.29-1.69.86-2.26.61-.58 1.43-.87 2.45-.87 1.06 0 1.87.27 2.45.82.58.54.86 1.31.86 2.3 0 .93-.3 1.68-.9 2.26-.58.57-1.38.86-2.4.86Zm21.9 31.25c-2.59 0-4.9-.54-6.9-1.63a12.62 12.62 0 0 1-4.71-4.56 12.9 12.9 0 0 1-1.68-6.63c0-1.98.32-3.79.96-5.42a12.95 12.95 0 0 1 2.64-4.22 11.58 11.58 0 0 1 4.08-2.79c1.6-.67 3.33-1 5.18-1 1.64 0 3.16.31 4.56.95 1.41.61 2.63 1.46 3.65 2.55a10.76 10.76 0 0 1 2.4 3.89c.58 1.47.85 3.08.82 4.84l-.05 2.12h-19.3a8.96 8.96 0 0 0 1.06 3.3 7.48 7.48 0 0 0 3.12 3.03c1.34.7 2.9 1.06 4.66 1.06 1.24 0 2.4-.21 3.45-.63a12.1 12.1 0 0 0 3.5-2.25l2.5 3.5c-.77.77-1.71 1.44-2.83 2.02a17.78 17.78 0 0 1-3.5 1.39 14.1 14.1 0 0 1-3.6.48Zm-8.16-15.84h14.12v-.34c-.1-1.05-.45-2-1.06-2.83a6.53 6.53 0 0 0-5.33-2.69c-1.72 0-3.18.34-4.36 1.01a6.23 6.23 0 0 0-2.7 2.83c-.28.61-.5 1.28-.67 2.02Zm32.93 15.84a14.2 14.2 0 0 1-5.71-1.1c-1.7-.74-3.1-1.83-4.23-3.27l3.36-2.88c.96 1.12 2 1.94 3.12 2.45 1.16.48 2.45.72 3.9.72.57 0 1.1-.06 1.58-.2.5-.15.94-.38 1.3-.66.38-.3.66-.63.86-1.01.19-.42.28-.87.28-1.35 0-.83-.3-1.5-.9-2.01a19.68 19.68 0 0 0-4.18-1.58 22.41 22.41 0 0 1-4.56-1.64 8.64 8.64 0 0 1-2.74-2.06 6.19 6.19 0 0 1-1.06-1.97 8.2 8.2 0 0 1-.33-2.4c0-1.06.22-2.02.67-2.88a7.4 7.4 0 0 1 1.92-2.3A8.89 8.89 0 0 1 241 76.8c1.12-.35 2.3-.53 3.55-.53a13.03 13.03 0 0 1 6.77 1.87c1 .61 1.82 1.33 2.5 2.16l-2.84 3.12c-.6-.6-1.28-1.13-2.01-1.58a9.2 9.2 0 0 0-2.16-1.1 6.19 6.19 0 0 0-2.02-.39c-.67 0-1.28.07-1.82.2-.55.12-1.01.31-1.4.57-.35.26-.62.58-.81.96-.2.38-.29.82-.29 1.3.03.41.13.81.29 1.2a3 3 0 0 0 .77.9c.35.26.88.54 1.58.82.7.3 1.6.56 2.69.82 1.6.42 2.91.88 3.94 1.4a7.91 7.91 0 0 1 2.5 1.67c.63.61 1.08 1.31 1.34 2.11.25.8.38 1.7.38 2.7 0 1.43-.42 2.73-1.25 3.88-.8 1.12-1.89 2-3.26 2.64a10.8 10.8 0 0 1-4.61.96Z"/></svg>