<?xml version="1.0" encoding="UTF-8" standalone="no"?>
<!-- Created with Inkscape (http://www.inkscape.org/) -->

<svg
   xmlns:dc="http://purl.org/dc/elements/1.1/"
   xmlns:cc="http://creativecommons.org/ns#"
   xmlns:rdf="http://www.w3.org/1999/02/22-rdf-syntax-ns#"
   xmlns:svg="http://www.w3.org/2000/svg"
   xmlns="http://www.w3.org/2000/svg"
   xmlns:sodipodi="http://sodipodi.sourceforge.net/DTD/sodipodi-0.dtd"
   xmlns:inkscape="http://www.inkscape.org/namespaces/inkscape"
   sodipodi:docname="Civil_Ensign_of_Jersey.svg"
   inkscape:version="0.48.4 r9939"
   sodipodi:version="0.32"
   id="svg2"
   x="0.00000000"
   y="0.00000000"
   height="237.31975"
   width="197.92212"
   version="1.0"
   inkscape:output_extension="org.inkscape.output.svg.inkscape">
  <defs
     id="defs3" />
  <sodipodi:namedview
     showguides="true"
     showgrid="false"
     inkscape:window-y="-8"
     inkscape:window-x="-8"
     inkscape:window-height="706"
     inkscape:window-width="1366"
     inkscape:current-layer="svg2"
     inkscape:document-units="px"
     inkscape:cy="80.73949"
     inkscape:cx="57.34123"
     inkscape:zoom="1"
     inkscape:pageshadow="2"
     inkscape:pageopacity="0.0"
     borderopacity="1.0"
     bordercolor="#666666"
     pagecolor="#ffffff"
     id="base"
     inkscape:guide-bbox="true"
     inkscape:grid-bbox="false"
     inkscape:grid-points="false"
     gridtolerance="25px"
     inkscape:window-maximized="1"
     fit-margin-top="0"
     fit-margin-left="0"
     fit-margin-right="0"
     fit-margin-bottom="0">
    <inkscape:grid
       id="GridFromPre046Settings"
       type="xygrid"
       originx="-501.03872px"
       originy="-100.22784px"
       spacingx="100px"
       spacingy="100px"
       color="#0000ff"
       empcolor="#0000ff"
       opacity="0.2"
       empopacity="0.4"
       empspacing="5"
       visible="true"
       enabled="true"
       snapvisiblegridlinesonly="true" />
  </sodipodi:namedview>
  <metadata
     id="metadata4">
    <rdf:RDF>
      <cc:Work
         rdf:about="">
        <dc:format>image/svg+xml</dc:format>
        <dc:type
           rdf:resource="http://purl.org/dc/dcmitype/StillImage" />
      </cc:Work>
    </rdf:RDF>
  </metadata>
  <!-- Main outline of the flag -->
  <path
     sodipodi:nodetypes="cczccc"
     d="m 27.43583,69.495735 0,100.704725 c 0,28.76239 38.65137,66.11928 71.52522,66.11928 32.87386,0 71.52523,-37.35689 71.52523,-66.11928 l 0,-100.704725 -143.05045,0 z"
     style="fill:#cf142b;fill-opacity:1;fill-rule:evenodd;stroke:#000000;stroke-width:2;stroke-linecap:square;stroke-linejoin:miter;stroke-miterlimit:4;stroke-opacity:1;stroke-dasharray:none"
     id="path3376"
     inkscape:connector-curvature="0" />
  <g
     transform="matrix(0.6074699,0,0,0.6074699,-355.54685,4.572831)"
     id="g2976">
    <path
       style="fill:#0139ab;fill-opacity:1;fill-rule:evenodd;stroke:#000000;stroke-width:0.67720532pt;stroke-linecap:butt;stroke-linejoin:miter;stroke-opacity:1"
       id="path595"
       d="m 832.62925,250.11373 c 0,2.92921 0.65144,5.85859 0.97717,6.835 0.32517,0.97648 0.48831,2.19695 0.48831,2.19695 0,0 1.13921,-1.70867 1.13921,-3.66156 0,-1.95289 -0.32573,-4.63813 -0.32573,-4.63813"
       inkscape:connector-curvature="0" />
    <path
       style="fill:#0139ab;fill-opacity:1;fill-rule:evenodd;stroke:#000000;stroke-width:0.67720532pt;stroke-linecap:butt;stroke-linejoin:miter;stroke-opacity:1"
       id="path594"
       d="m 826.76952,250.11373 c 0,0.24406 -0.97717,1.46461 -0.81404,3.66156 0.16259,2.19703 0.6509,3.9057 0.6509,3.66164 0,-0.24406 0,-2.19695 1.13976,-3.4175 1.13921,-1.22054 2.92986,-1.95281 2.92986,-1.95281"
       inkscape:connector-curvature="0" />
    <path
       style="fill:#0139ab;fill-opacity:1;fill-rule:evenodd;stroke:#000000;stroke-width:0.67720532pt;stroke-linecap:butt;stroke-linejoin:miter;stroke-opacity:1"
       id="path593"
       d="m 825.62976,244.98741 c -3.7439,4.14984 -2.44155,6.34687 -2.44155,6.34687 0,0 0.16258,-0.97649 1.46493,-0.97649 1.30234,0 3.7439,1.22055 3.7439,1.22055"
       inkscape:connector-curvature="0" />
    <path
       style="fill:#0139ab;fill-opacity:1;fill-rule:evenodd;stroke:#000000;stroke-width:0.67720532pt;stroke-linecap:butt;stroke-linejoin:miter;stroke-opacity:1"
       id="path592"
       d="m 766.37663,253.77529 c -0.32573,3.90578 0.81348,6.34687 0.81348,6.34687 0,0 1.30235,-1.22054 1.13976,-4.39398 -0.16314,-3.17344 -0.97662,-4.88219 -0.97662,-4.88219"
       inkscape:connector-curvature="0" />
    <path
       style="fill:#0139ab;fill-opacity:1;fill-rule:evenodd;stroke:#000000;stroke-width:0.67720532pt;stroke-linecap:butt;stroke-linejoin:miter;stroke-opacity:1"
       id="path591"
       d="m 760.51635,251.33428 c -0.16314,0 -1.46548,1.22046 -2.44211,2.44101 -0.97662,1.22054 -0.81403,3.17344 -0.81403,3.17344 0,0 2.93042,-1.95298 3.90704,-1.70875 0.97662,0.24414 1.46493,1.22046 1.46493,1.22046"
       inkscape:connector-curvature="0" />
    <path
       style="fill:#0139ab;fill-opacity:1;fill-rule:evenodd;stroke:#000000;stroke-width:0.67720532pt;stroke-linecap:butt;stroke-linejoin:miter;stroke-opacity:1"
       id="path590"
       d="m 761.49297,245.23155 c -2.76728,-1.22055 -4.72107,1.46469 -4.55793,1.46469 0.16258,0 2.76728,0 3.25559,1.4646 0.48831,1.46461 1.79065,3.17344 1.79065,3.17344"
       inkscape:connector-curvature="0" />
    <path
       style="fill:#0139ab;fill-opacity:1;fill-rule:evenodd;stroke:#000000;stroke-width:0.67720532pt;stroke-linecap:butt;stroke-linejoin:miter;stroke-opacity:1"
       id="path589"
       d="m 767.51584,242.30226 c -0.32573,0 -0.32573,-1.9529 -1.79066,-2.19695 -1.46493,-0.24415 -2.60469,1.22054 -2.60469,1.22054 0,0 3.093,2.9293 3.25614,2.9293 0.16258,0 1.13921,-1.46469 1.13921,-1.95289 z"
       inkscape:connector-curvature="0" />
    <path
       style="fill:#0139ab;fill-opacity:1;fill-rule:evenodd;stroke:#000000;stroke-width:0.67720532pt;stroke-linecap:butt;stroke-linejoin:miter;stroke-opacity:1"
       id="path604"
       d="m 670.19025,210.47816 c 0.23022,-2.07139 -0.28779,-5.43722 -0.28779,-5.43722 0,0 1.03596,-0.17266 2.07192,1.38084 1.03596,1.55351 0.57552,4.05638 0.57552,4.05638"
       inkscape:connector-curvature="0" />
    <path
       style="fill:#0139ab;fill-opacity:1;fill-rule:evenodd;stroke:#000000;stroke-width:0.67720532pt;stroke-linecap:butt;stroke-linejoin:miter;stroke-opacity:1"
       id="path603"
       d="m 664.1472,209.70137 c 0.23022,-4.22896 -1.55391,-5.3509 -1.61148,-5.3509 -0.0576,0 1.66905,-0.77679 2.82009,0 1.15104,0.77671 1.61148,4.66052 1.61148,4.66052"
       inkscape:connector-curvature="0" />
    <path
       style="fill:#0139ab;fill-opacity:1;fill-rule:evenodd;stroke:#000000;stroke-width:0.67720532pt;stroke-linecap:butt;stroke-linejoin:miter;stroke-opacity:1"
       id="path602"
       d="m 659.19768,210.99597 c -1.38132,-3.79739 -2.64744,-2.93435 -2.64744,-2.93435 0,0 1.03596,-1.46718 2.47473,-1.0357 1.43883,0.43148 2.70501,2.41654 2.70501,2.33022"
       inkscape:connector-curvature="0" />
    <path
       style="fill:#0139ab;fill-opacity:1;fill-rule:evenodd;stroke:#000000;stroke-width:0.67720532pt;stroke-linecap:butt;stroke-linejoin:miter;stroke-opacity:1"
       id="path601"
       d="m 660.57894,219.45388 c -1.26618,1.03561 -1.61148,1.46717 -2.64744,1.20827 -1.03596,-0.2589 -1.8417,-0.34523 -1.8417,-0.34523 0,0 0.63309,-3.02077 1.43883,-3.36592 0.80574,-0.34523 2.24457,-0.2589 2.24457,-0.2589"
       inkscape:connector-curvature="0" />
    <path
       style="fill:#0139ab;fill-opacity:1;fill-rule:evenodd;stroke:#000000;stroke-width:0.67720532pt;stroke-linecap:butt;stroke-linejoin:miter;stroke-opacity:1"
       id="path596"
       d="m 664.31078,238.39656 c 0,-1.95289 -0.81392,-2.9293 -0.81392,-2.9293 0,0 1.13953,-1.22063 2.27902,0.48812 1.13948,1.70883 1.62779,4.39398 1.62779,4.39398 l 0,0"
       inkscape:connector-curvature="0" />
    <path
       style="fill:#0139ab;fill-opacity:1;fill-rule:evenodd;stroke:#000000;stroke-width:0.67720532pt;stroke-linecap:butt;stroke-linejoin:miter;stroke-opacity:1"
       id="path600"
       d="m 659.60055,241.11646 c -0.0576,0 -0.57558,-1.46726 -1.32375,-1.98507 -0.74817,-0.51772 -1.43883,-0.60405 -1.20861,-0.60405 0.23022,0 0,-1.0357 1.61148,-1.0357 1.61148,0 2.64744,0.77671 2.64744,0.77671"
       inkscape:connector-curvature="0" />
    <path
       style="fill:#0139ab;fill-opacity:1;fill-rule:evenodd;stroke:#000000;stroke-width:0.67720532pt;stroke-linecap:butt;stroke-linejoin:miter;stroke-opacity:1"
       id="path599"
       d="m 658.96746,245.51807 c -3.51075,-0.34523 -3.85605,2.84802 -3.74097,2.93427 0.11514,0.0863 1.43883,1.03561 2.24457,1.12202 0.80574,0.0863 1.4964,0 1.4964,0"
       inkscape:connector-curvature="0" />
    <path
       style="fill:#0139ab;fill-opacity:1;fill-rule:evenodd;stroke:#000000;stroke-width:0.67720532pt;stroke-linecap:butt;stroke-linejoin:miter;stroke-opacity:1"
       id="path598"
       d="m 660.57894,252.94028 c -1.78413,3.71106 -1.43883,5.69613 -1.26618,5.69613 0.17265,0 0.80574,-0.51781 1.72656,-1.55351 0.92088,-1.03561 1.55397,-3.02068 1.55397,-3.02068"
       inkscape:connector-curvature="0" />
    <path
       style="fill:#fdd400;fill-opacity:1;fill-rule:evenodd;stroke:#000000;stroke-width:0.67720532pt;stroke-linecap:butt;stroke-linejoin:miter;stroke-opacity:1"
       sodipodi:nodetypes="cccc"
       id="path597"
       d="m 662.03181,244.98741 c 0.16281,0 0.81393,-7.8114 3.09289,-7.3232 2.27897,0.48821 1.4651,0.48829 2.27897,0.97641 0.81393,0.4882 2.44177,5.85859 2.44177,5.85859"
       inkscape:connector-curvature="0" />
    <path
       style="fill:#fdd400;fill-opacity:1;fill-rule:evenodd;stroke:#000000;stroke-width:0.67720532pt;stroke-linecap:butt;stroke-linejoin:miter;stroke-opacity:1"
       sodipodi:nodetypes="ccc"
       id="path577"
       d="m 826.44601,249.57627 c -0.34564,-0.34523 -2.99291,-2.41663 -1.61148,-4.14271 1.38087,-1.72599 9.55385,-0.34523 9.55385,-0.34523"
       inkscape:connector-curvature="0" />
    <path
       style="fill:#fdd400;fill-opacity:1;fill-rule:evenodd;stroke:#000000;stroke-width:0.67720532pt;stroke-linecap:butt;stroke-linejoin:miter;stroke-opacity:1"
       id="path578"
       d="m 772.69148,249.05846 c -0.92076,-0.51789 -1.95656,-0.69046 -3.10793,-3.45224 -1.15082,-2.76178 -0.46011,-2.76178 -0.92077,-3.45224 -0.4601,-0.69038 -1.38142,-0.34507 -2.9929,0.17266 -1.61148,0.5178 -1.15082,6.04136 -1.15082,6.04136"
       inkscape:connector-curvature="0" />
    <path
       style="fill:#f7d917;fill-opacity:1;fill-rule:evenodd;stroke:#000000;stroke-width:0.67720532pt;stroke-linecap:butt;stroke-linejoin:miter;stroke-opacity:1"
       id="path579"
       d="m 786.38906,226.61918 c -0.92076,0.5178 -8.86314,6.21385 -8.63308,9.32086 0.2306,3.10701 5.06504,4.83309 4.95002,6.73183 -0.11558,1.89874 -4.60439,3.27958 -8.74812,3.45216 -4.14372,0.17266 -5.2951,1.20835 -7.71232,0.51789 -2.41721,-0.69047 -5.98525,-4.14271 -6.67597,-0.17266 -0.69071,3.97005 0.23006,4.14263 0.23006,4.14263 0,0 -0.57514,2.07131 0,3.79747 0.57568,1.72608 1.15137,2.76178 2.64727,2.76178 1.49645,0 1.95711,-1.38093 1.95711,-1.38093 0,0 0.23006,1.72608 2.87733,1.89874 2.64782,0.17257 3.45356,-1.72617 3.56859,-1.72617 0.11503,0 2.30219,0.69055 3.33799,0.34532 1.03579,-0.34532 2.41722,-1.20827 2.41722,-1.20827 0,0 -1.15082,2.41646 -1.0358,2.41646 0.11503,0 2.3022,-0.17266 4.60384,-0.69047 2.30219,-0.51772 4.0287,-2.76169 3.91367,-2.76169 -0.11503,0 -1.95656,3.10693 0.92077,2.93435 2.87788,-0.17266 4.2593,-3.45224 6.33089,-3.10701 2.07214,0.34523 3.22296,-0.34523 3.22296,-0.34523 0,0 0.57569,-1.38085 1.2664,-2.07131 0.69071,-0.69047 1.49645,-0.86304 1.49645,-0.86304 0,0 1.84154,-0.34515 1.84154,-0.51781 0,-0.17258 0,-4.3152 0,-4.3152 0,0 -2.99291,-0.34523 -2.99291,-3.45224 0,-3.10693 8.0574,-6.3866 8.0574,-6.3866 l -17.84131,-9.32086 z"
       inkscape:connector-curvature="0" />
    <path
       style="fill:#fdd400;fill-opacity:1;fill-rule:evenodd;stroke:#000000;stroke-width:0.67720532pt;stroke-linecap:butt;stroke-linejoin:miter;stroke-opacity:1"
       sodipodi:nodetypes="cccc"
       id="path587"
       d="m 670.13262,224.54778 c 0.46044,-14.15396 2.99274,-8.28525 2.99274,-11.39218 0,-3.10701 -1.03595,-5.17832 -1.84169,-5.17832 -1.84165,0 -6.44587,5.8687 -6.44587,5.8687"
       inkscape:connector-curvature="0" />
    <path
       style="fill:#f7d917;fill-opacity:1;fill-rule:evenodd;stroke:#000000;stroke-width:0.67720532pt;stroke-linecap:butt;stroke-linejoin:miter;stroke-opacity:1"
       sodipodi:nodetypes="cccccccsccccccccccccc"
       id="path572"
       d="m 702.24703,234.21396 c -1.1511,-0.51689 -18.9924,-4.14171 -24.97788,-7.59396 -5.98548,-3.45216 -8.51779,-8.97571 -8.97822,-11.73741 -0.46044,-2.76177 0.69065,-7.24955 -2.76253,-7.24955 -3.45317,0 -1.61148,4.48778 -1.61148,4.48778 0,0 -2.76252,-7.24956 -4.83444,-3.10693 -2.07186,4.14262 2.53236,7.24963 2.53236,7.24963 0,0 -4.45446,-2.78118 -3.3381,1.726 1.87638,7.57538 4.94958,4.83309 5.40996,6.55917 0.46044,1.72616 -2.30208,3.45224 -1.84164,3.79748 0.46038,0.34523 2.30208,1.55342 3.45312,1.89865 1.1511,0.34532 2.76253,0.86304 2.76253,0.86304 l -1.72657,2.07049 c 0,0 3.22296,3.45216 4.83444,4.3152 1.61148,0.86312 3.6834,0 3.56826,0 -0.11508,0 -2.99274,1.89873 -2.99274,1.89873 0,0 1.61148,1.38077 3.33805,1.72608 1.72661,0.34524 3.22296,0.51781 3.22296,0.51781 l -1.84165,1.20827 24.86275,7.4223 0.92082,-16.05278 z"
       inkscape:connector-curvature="0" />
    <path
       id="path573"
       style="fill:#f7d917;fill-opacity:1;fill-rule:evenodd;stroke:#000000;stroke-width:0.67720532pt;stroke-linecap:butt;stroke-linejoin:miter;stroke-opacity:1"
       d="m 703.85851,231.45218 c -0.57552,0.17266 -11.16522,11.73758 -22.33044,12.25539 -11.16523,0.51772 -17.49601,-0.34532 -17.49601,-0.34532 0,0 -1.61148,-7.9401 -4.374,-4.3152 -2.76252,3.62482 -0.57552,5.00567 -0.57552,5.00567 0,0 0.46038,-0.17258 1.15104,0.69046 0.6906,0.86304 1.15104,1.89874 1.15104,1.89874 0,0 -3.68334,-4.48794 -3.68334,0.86296 0,5.35098 2.41716,3.45224 2.30208,3.45224 -0.11508,0 -0.57552,4.66052 0,4.83309 0.57552,0.17257 2.87766,1.03561 4.14378,0.69047 1.26618,-0.34524 1.1511,-1.38094 1.4964,-1.55351 0.3453,-0.17266 2.30208,-1.38085 2.64744,-0.86304 0.3453,0.51781 -2.18706,3.79739 -1.72662,3.79739 0.46044,0 4.25892,0 5.40996,-1.38084 1.15104,-1.38085 1.72657,-3.45216 1.8417,-3.27959 0.11508,0.17257 -1.95678,4.14263 -1.72661,4.14263 0.23021,0 4.37405,0.69046 5.40996,0.17257 1.03596,-0.51781 2.07191,-2.24389 2.07191,-2.24389 0,0 -0.69065,2.07132 -0.46043,2.24389 0.23022,0.17266 2.30213,0.34523 4.25891,-0.69047 1.95679,-1.03561 2.76253,-1.89865 2.76253,-1.89865 l -0.57552,2.41655 c 0,0 2.99274,-0.17258 4.7193,-2.07132 1.72661,-1.89874 2.53235,-2.07131 2.53235,-2.07131 0,0 -1.72661,2.93435 -1.49639,2.93435 0.23022,0 3.33804,-0.17257 4.7193,-0.86304 1.38132,-0.69046 2.76258,-1.20827 2.76258,-1.20827 0,0 -1.61148,2.41655 -1.4964,2.41655 0.11514,0 2.30214,0.17257 5.06466,-0.86304 2.76274,-1.0357 4.7193,-2.24398 4.7193,-2.24398 0,0 -3.22296,3.45216 -2.53225,3.45216 0.69072,0 4.83444,0.17266 6.90603,-1.03561 2.07214,-1.20827 2.5328,-2.41655 2.5328,-2.41655 0,0 6.67597,0.34532 8.0574,-1.20827 1.38087,-1.5535 1.03579,-2.24389 0.92076,-2.07131 -0.11502,0.17266 4.0287,1.03561 6.21532,1.5535 2.18716,0.51781 6.79155,0.69047 9.89948,-0.17265 3.10738,-0.86304 36.94846,-20.71313 43.16433,-20.3679 6.21586,0.34515 7.36668,2.58912 9.20822,2.41647 1.84208,-0.17258 2.87788,-1.0357 2.87788,-0.86304 0,0.17265 9.09319,10.5293 21.40934,9.83883 12.31671,-0.69046 9.89949,-1.72616 11.85605,-1.89873 1.95656,-0.17258 4.25875,1.72608 4.0287,3.45216 -0.23006,1.72616 -1.2664,2.76177 -2.53225,2.93443 -1.2664,0.17258 -2.64727,1.38085 -2.64727,3.10693 0,1.72608 1.38087,4.14262 2.87732,4.14262 1.49646,0 1.95712,-0.86304 2.41722,-1.03561 0.46066,-0.17257 0.92077,1.89874 2.87788,1.03561 1.95656,-0.86304 2.53225,-1.72608 2.99236,-1.89865 0.46066,-0.17266 3.45356,-0.34532 3.45356,-0.51789 0,-0.17258 0.23006,-5.69613 0.23006,-5.69613 0,0 3.22296,-0.34515 3.22296,-1.38085 0,-1.03561 -1.15082,-3.27958 -1.84154,-4.3152 -0.69071,-1.0357 -1.49645,-1.89874 -1.49645,-1.89874 0,0 2.18717,1.20828 2.64727,1.03562 0.46066,-0.17258 1.49646,-0.86304 1.49646,-0.86304 0,0 -1.49646,-2.58912 -2.64728,-3.45216 -1.15137,-0.86304 -3.91367,-1.72616 -3.91367,-1.72616 0,0 1.61148,-0.34515 2.87733,-1.38085 1.2664,-1.03562 2.41722,-2.41655 2.41722,-2.58921 0,-0.17257 -3.45302,-3.10684 -6.10029,-2.76169 -2.64727,0.34523 -6.33089,3.62482 -10.82025,3.62482 -4.48881,0 -9.32325,-3.45225 -9.32325,-3.45225 0,0 6.56095,0 9.55385,-0.17257 2.99236,-0.17257 9.43828,-2.24389 9.43828,-8.63048 0,-6.3866 -4.94947,-9.83884 -16.92054,-10.18399 -11.97052,-0.34523 -36.20516,-0.01 -43.76926,0.84631 -12.26149,1.38741 -24.12738,0.3787 -29.76756,0.3787 -5.64018,0 -7.13663,-1.20827 -7.25166,-3.97005 -0.0603,-1.44738 2.50345,-1.9466 4.95739,-2.16847 0.79681,-0.072 6.08246,-1.36534 12.54501,-1.34881 11.61155,0.0297 27.0225,1.40941 27.0225,1.25111 0,-0.5178 0.23006,-1.20827 0.34508,-1.20827 0.11503,0 0.92077,2.07131 2.07214,2.24389 1.15082,0.17257 3.45301,-0.34523 3.45301,-0.34523 0,0 0.92077,1.5535 2.53225,1.38093 1.61148,-0.17266 2.30219,-1.38093 2.30219,-1.38093 0,0 0.92077,1.20827 2.64728,1.03569 1.72706,-0.17257 2.9929,-2.41654 3.33854,-2.41654 0.34508,0 1.61148,0.34515 2.7623,-0.34523 1.15082,-0.69039 6.44592,-5.86871 6.44592,-5.86871 0,0 -4.60439,1.20827 -7.36669,1.20827 -2.76285,0 -4.48936,-1.5535 -7.94237,-1.03569 -3.45302,0.5178 -7.13664,2.07131 -9.0932,1.89873 -1.26935,-0.11193 -16.66822,-1.57889 -28.5278,-1.6882 -6.42582,-0.0592 -11.8126,1.19268 -13.34982,1.19268 -4.37378,0 -8.28745,4.3152 -8.74756,9.32086 -0.46066,5.00575 3.76925,4.9512 8.63253,7.59487 6.494,3.53012 65.13434,-1.57025 73.88245,-1.22501 8.74811,0.34515 14.38829,1.03569 14.38829,4.83309 0,3.79739 -5.87078,3.96996 -10.12954,3.79739 -4.25875,-0.17258 -14.15768,-1.89866 -21.40934,-1.72608 -7.25166,0.17257 -53.86955,10.18399 -62.27203,10.01133 -8.40303,-0.17257 -13.58255,-0.86304 -13.58255,-1.03561 0,-0.17258 -20.1435,2.5892 -20.1435,2.24388 z m 83.67609,-30.5575 c 0,0 0.57514,1.72624 1.38088,2.41663 0.80574,0.69038 1.95711,1.55342 1.95711,1.55342 m 1.49645,-3.45216 c 0,0 0.80574,0.17266 1.15082,0.86304 0.34564,0.69046 1.15138,1.5535 1.15138,1.5535 m 3.22296,-3.27958 c 0.69016,0 1.4959,2.07131 1.4959,2.07131"
       sodipodi:nodetypes="cscscscssssssssssscssccscsscsscsscssssssssssssssssscsscscscsssscssssssssssscscssscsssssssssssssccsccsccc"
       inkscape:connector-curvature="0" />
    <path
       style="fill:#f7d917;fill-opacity:1;fill-rule:evenodd;stroke:#000000;stroke-width:0.67720532pt;stroke-linecap:butt;stroke-linejoin:miter;stroke-opacity:1"
       sodipodi:nodetypes="ccccccccccccccccccccccccc"
       id="path554"
       d="m 696.29772,234.24987 c 0.16275,-0.24414 0.65106,-2.56308 1.05802,-4.27183 0.40696,-1.70875 1.13954,-3.90578 1.13954,-3.90578 0,0 -1.62785,1.09847 -1.54645,0.85442 0.0813,-0.24415 -0.32556,-3.66164 0.56972,-6.10274 0.89533,-2.441 1.7906,-3.78362 1.7906,-4.76003 0,-0.97648 -0.89527,-0.4882 -0.89527,-2.44109 0,-1.95289 -0.40697,-4.76019 0.65111,-5.37038 1.05808,-0.61028 4.3135,3.66155 4.3135,3.41749 0,-0.24406 -0.73224,-5.85859 0.65145,-6.22472 1.38364,-0.36613 3.33688,1.95289 3.33688,1.95289 0,0 0.65145,-4.88218 1.13976,-4.88218 0.48831,0 1.79066,3.78371 1.79066,3.78371 0,0 1.30235,-4.02777 1.79066,-4.02777 0.48831,0 1.95324,4.27183 1.95324,4.27183 0,0 0.73219,-3.66156 1.70936,-3.66156 0.97662,0 1.70881,4.3939 1.70881,4.3939 0,0 0.65145,-2.31902 1.54678,-2.07488 0.89533,0.24406 1.62752,6.10265 1.62752,6.10265 0,0 2.36081,-3.78371 3.90703,-3.29551 1.54623,0.48829 0,5.49254 0.0813,7.68941 0.0813,2.19695 1.54677,3.29551 1.62807,4.88219 0.0813,1.58667 0.0813,11.47303 0,11.47303 -0.0819,0 -16.35979,6.34671 -18.23174,5.98058 -1.87195,-0.36614 -11.63915,-3.53957 -11.72055,-3.78363 z"
       inkscape:connector-curvature="0" />
    <path
       style="fill:#f7d917;fill-opacity:1;fill-rule:evenodd;stroke:#000000;stroke-width:0.67720532pt;stroke-linecap:butt;stroke-linejoin:miter;stroke-opacity:1"
       sodipodi:nodetypes="ccccccccccccccccccccccccccccccccccccccccc"
       id="path552"
       d="m 704.95182,223.34141 c -1.15138,2.84985 -5.58261,10.87628 -6.50349,12.25713 -0.92082,1.38085 -3.22291,3.45216 -3.22291,3.45216 0,0 0.92083,2.07123 2.53231,1.72608 1.61148,-0.34523 3.91356,-2.76178 3.91356,-2.76178 0,0 -2.58976,3.01886 -3.3955,4.65861 -0.80574,1.63983 -1.32369,4.40161 -1.32369,4.40161 0,0 3.22296,-0.0863 5.17974,-2.50287 1.95672,-2.41646 3.22312,-4.40153 3.16561,-4.40153 -0.0575,0 -1.8996,2.84819 -1.78457,4.91942 0.11558,2.07123 -0.28757,3.79739 -0.23,3.79739 0.0575,0 2.35965,-1.46718 3.39544,-2.67545 1.03635,-1.20827 2.64783,-3.97005 2.64783,-3.97005 0,0 -0.57569,3.53857 -0.23061,5.17832 0.34564,1.63976 1.2664,3.96997 1.20889,3.96997 -0.0575,0 1.61148,-1.12194 2.47473,-3.62473 0.86326,-2.50288 1.15082,-4.48786 1.15082,-4.48786 0,0 0.28812,3.45216 1.20889,4.66043 0.92077,1.20827 5.06449,0.94937 5.06449,0.94937 0,0 -1.43894,-0.51789 -1.89905,-2.93443 -0.46065,-2.41647 -0.28811,-5.26449 -0.28811,-5.26449 0,0 1.03634,3.19326 2.01462,3.53849 0.97828,0.34515 1.78402,-0.69047 2.47473,0 0.69072,0.69038 1.61148,3.0206 1.669,2.93427 0.0575,-0.0863 1.95656,-1.29452 0.92076,-4.22887 -1.03579,-2.93436 -3.10793,-3.10701 -4.20124,-5.00567 -1.09385,-1.89874 -1.7265,-4.83309 -1.7265,-4.91933 0,-0.0863 0.92076,4.22887 2.30219,5.17824 1.38087,0.94928 2.18661,1.98498 4.14373,2.07131 1.95656,0.0862 2.93484,1.5535 2.93484,2.76178 0,1.20827 -0.17254,1.98498 -0.17254,1.98498 0,0 2.24468,-0.51781 2.24468,-3.97005 0,-3.45216 -1.38143,-4.83309 -2.87788,-5.3509 -1.49646,-0.51781 -4.25876,-1.46717 -4.89196,-2.50279 -0.6332,-1.0357 -0.80574,-2.07131 -0.80574,-2.07131 0,0 0.23006,1.89865 1.49646,2.50279 1.2664,0.60414 2.93539,1.81241 4.08621,1.38085 1.15137,-0.43148 4.14373,-4.74677 4.14373,-4.74677 0,0 -2.7623,-0.51772 -5.64018,-1.72599 -2.87733,-1.20836 -3.54426,-5.43358 -3.54426,-5.43358 l -17.63503,0.25525 z"
       inkscape:connector-curvature="0" />
    <path
       style="fill:none;stroke:#000000;stroke-width:0.67720532pt;stroke-linecap:butt;stroke-linejoin:miter;stroke-opacity:1"
       id="path568"
       d="m 708.99489,237.30115 c 0,0 1.2205,-1.95272 3.1743,-2.07488 1.95324,-0.12207 4.15091,2.56317 4.15091,2.56317"
       inkscape:connector-curvature="0" />
    <path
       style="fill:#0139ab;fill-opacity:1;fill-rule:evenodd;stroke:#000000;stroke-width:0.67720532pt;stroke-linecap:butt;stroke-linejoin:miter;stroke-opacity:1"
       id="path566"
       d="m 710.78544,229.00153 c 0,0.36613 -0.73274,2.31902 -0.5696,5.12624 0.16259,2.80722 2.36026,4.8821 2.36026,4.8821 0,0 2.36026,-1.4646 2.44155,-5.00417 0.0813,-3.53957 -0.32572,-5.49237 -0.32572,-5.49237 l -3.90649,0.4882 z"
       inkscape:connector-curvature="0" />
    <path
       style="fill:none;stroke:#000000;stroke-width:0.84650666;stroke-linecap:round;stroke-linejoin:miter;stroke-opacity:1"
       id="path567"
       d="m 712.73856,229.12365 c 0,0 0.0819,6.34679 0,6.34679"
       inkscape:connector-curvature="0" />
    <path
       style="fill:#fdd400;fill-opacity:0.996081;fill-rule:evenodd;stroke:#000000;stroke-width:0.67720532pt;stroke-linecap:butt;stroke-linejoin:miter;stroke-opacity:1"
       sodipodi:nodetypes="ccccccccccc"
       id="path553"
       d="m 701.0998,221.55629 c 0.0814,0 1.38364,0.85433 1.38364,3.17335 0,2.31902 0.56977,5.37039 2.36054,5.37039 1.79065,0 2.52284,-1.34262 2.60414,-1.22055 0.0818,0.12207 1.22105,3.78363 3.01171,3.29543 1.79065,-0.4882 2.36026,-3.29543 2.36026,-3.29543 0,0 0.97662,3.66156 2.36025,3.29543 1.38364,-0.36613 2.19768,-3.66156 2.19768,-3.66156 0,0 1.13976,2.07488 2.36026,1.70867 1.22105,-0.36613 2.19767,-1.83066 2.68598,-3.41742 0.48831,-1.58676 0.65145,-4.51597 0.57016,-4.51597"
       inkscape:connector-curvature="0" />
    <path
       style="fill:none;stroke:#000000;stroke-width:0.67720532pt;stroke-linecap:butt;stroke-linejoin:miter;stroke-opacity:1"
       id="path555"
       d="m 710.21539,215.2095 c 0,0 1.54678,7.07913 -2.11582,6.95706 -3.66261,-0.12207 -1.79066,-3.29551 -2.93042,-3.41749 -1.13921,-0.12207 -1.70881,0 -1.70881,0"
       inkscape:connector-curvature="0" />
    <path
       style="fill:none;stroke:#000000;stroke-width:0.67720532pt;stroke-linecap:butt;stroke-linejoin:miter;stroke-opacity:1"
       id="path556"
       d="m 713.47153,214.59923 c 0,0 -0.89532,8.17761 2.11583,7.56733 3.01171,-0.61027 3.7439,-3.78362 3.7439,-3.78362"
       inkscape:connector-curvature="0" />
    <path
       style="fill:#000000;fill-opacity:0.99607801;fill-rule:evenodd;stroke:none"
       sodipodi:nodetypes="ccccc"
       id="path557"
       d="m 700.12307,210.20533 c 0,0 0.40696,3.41758 1.22089,5.49245 0.81387,2.07488 1.46504,1.70859 2.19767,2.0748 0,-1.46469 0,-2.07488 -0.89538,-4.02777 -0.89527,-1.95281 -2.52318,-3.29542 -2.52318,-3.53948 z"
       inkscape:connector-curvature="0" />
    <path
       style="fill:#000000;fill-opacity:0.99607801;fill-rule:evenodd;stroke:none"
       id="path558"
       d="m 721.28505,217.28438 c 0,-0.12199 -0.32572,-2.56308 0.56961,-4.76003 0.89533,-2.19704 1.87195,-2.68515 1.87195,-2.68515 0,0 0.16258,1.9528 -0.48831,3.90569 -0.6509,1.95281 -1.70937,3.9057 -1.95325,3.53949 z"
       inkscape:connector-curvature="0" />
    <path
       style="fill:none;stroke:#000000;stroke-width:0.67720532pt;stroke-linecap:butt;stroke-linejoin:miter;stroke-opacity:1"
       sodipodi:nodetypes="cc"
       id="path559"
       d="m 705.90189,217.77258 c 0.40702,0 2.03454,-2.68523 3.98778,0"
       inkscape:connector-curvature="0" />
    <path
       style="fill:none;stroke:#000000;stroke-width:0.67720532pt;stroke-linecap:butt;stroke-linejoin:miter;stroke-opacity:1"
       sodipodi:nodetypes="cc"
       id="path560"
       d="m 714.61074,217.16239 c 2.03509,-2.19695 4.23221,0.4882 4.23221,0.4882"
       inkscape:connector-curvature="0" />
    <path
       style="font-size:12px;fill:none;stroke:#000000;stroke-width:0.75692601pt"
       id="path570"
       d="m 709.6458,219.35925 c 0,0.74119 -0.74763,1.34258 -1.66829,1.34258 -0.92126,0 -1.66889,-0.60139 -1.66889,-1.34258 0,-0.7411 0.74763,-1.34258 1.66889,-1.34258 0.92066,0 1.66829,0.60148 1.66829,1.34258 z"
       inkscape:connector-curvature="0" />
    <path
       style="font-size:12px;fill:none;stroke:#000000;stroke-width:0.74763823pt"
       id="path571"
       d="m 718.19203,219.11515 c 0,0.74119 -0.72939,1.34258 -1.6276,1.34258 -0.89879,0 -1.62819,-0.60139 -1.62819,-1.34258 0,-0.7411 0.7294,-1.34258 1.62819,-1.34258 0.89821,0 1.6276,0.60148 1.6276,1.34258 z"
       inkscape:connector-curvature="0" />
    <path
       style="fill:none;stroke:#000000;stroke-width:0.67720532pt;stroke-linecap:butt;stroke-linejoin:miter;stroke-opacity:1"
       id="path564"
       d="m 707.93643,217.65059 c 0,0.12199 0.0818,3.17335 0.0818,3.17335"
       inkscape:connector-curvature="0" />
    <path
       style="fill:none;stroke:#000000;stroke-width:0.67720532pt;stroke-linecap:butt;stroke-linejoin:miter;stroke-opacity:1"
       id="path565"
       d="m 716.4014,217.52852 0.0813,3.05137"
       inkscape:connector-curvature="0" />
    <path
       transform="matrix(0.487401,0,0,0.718722,654.5065,190.9849)"
       style="fill:#000000;fill-opacity:1;fill-rule:evenodd;stroke:none"
       sodipodi:type="arc"
       sodipodi:ry="3.3115389"
       sodipodi:rx="4.3417702"
       sodipodi:cy="49.413345"
       sodipodi:cx="119.14111"
       id="path569"
       d="m 123.48288,49.413345 c 0,1.828913 -1.94387,3.311539 -4.34177,3.311539 -2.39789,0 -4.34177,-1.482626 -4.34177,-3.311539 0,-1.828912 1.94388,-3.311539 4.34177,-3.311539 2.3979,0 4.34177,1.482627 4.34177,3.311539 z" />
    <path
       style="fill:none;stroke:#000000;stroke-width:0.67720532pt;stroke-linecap:butt;stroke-linejoin:miter;stroke-opacity:1"
       id="path574"
       d="m 836.11489,246.46926 c 0,0 -0.34564,1.89874 0.11502,2.93435 0.46011,1.0357 1.49646,3.10701 1.49646,3.10701"
       inkscape:connector-curvature="0" />
    <path
       style="fill:none;stroke:#000000;stroke-width:0.67720532pt;stroke-linecap:butt;stroke-linejoin:miter;stroke-opacity:1"
       id="path575"
       d="m 833.00695,248.02277 c 0,0 -1.7265,1.89873 -1.61148,3.10701 0.11503,1.20827 0.57514,2.41646 0.57514,2.41646"
       inkscape:connector-curvature="0" />
    <path
       style="fill:none;stroke:#000000;stroke-width:0.67720532pt;stroke-linecap:butt;stroke-linejoin:miter;stroke-opacity:1"
       id="path576"
       d="m 838.87719,244.05272 c 2.18716,0.69046 2.18716,2.41654 2.18716,2.41654"
       inkscape:connector-curvature="0" />
    <path
       style="fill:none;stroke:#000000;stroke-width:0.67720532pt;stroke-linecap:butt;stroke-linejoin:miter;stroke-opacity:1"
       id="path580"
       d="m 762.10184,249.23104 c -0.46066,0.17257 -2.30219,1.55342 -2.30219,1.55342"
       inkscape:connector-curvature="0" />
    <path
       style="fill:none;stroke:#000000;stroke-width:0.67720532pt;stroke-linecap:butt;stroke-linejoin:miter;stroke-opacity:1"
       id="path581"
       d="m 765.43982,251.82016 c -0.57568,0.34523 -1.15082,-0.17258 -1.38142,1.5535 -0.23005,1.72617 0.34563,2.58912 0.34563,2.58912"
       inkscape:connector-curvature="0" />
    <path
       style="fill:none;stroke:#000000;stroke-width:0.67720532pt;stroke-linecap:butt;stroke-linejoin:miter;stroke-opacity:1"
       id="path582"
       d="m 770.38929,252.51062 c 0.11503,0 0.80574,0.86304 0.80574,1.72608 0,0.86313 -0.46011,1.89874 -0.46011,1.89874"
       inkscape:connector-curvature="0" />
    <path
       style="fill:none;stroke:#000000;stroke-width:0.67720532pt;stroke-linecap:butt;stroke-linejoin:miter;stroke-opacity:1"
       sodipodi:nodetypes="cc"
       id="path586"
       d="m 660.9242,248.71317 c -0.11508,0 -0.92082,1.03569 -0.92082,2.24397"
       inkscape:connector-curvature="0" />
    <path
       style="fill:none;stroke:#000000;stroke-width:0.67720532pt;stroke-linecap:butt;stroke-linejoin:miter;stroke-opacity:1"
       sodipodi:nodetypes="cc"
       id="path588"
       d="m 794.60518,232.98603 c -1.14142,-1.2946 -2.18385,-3.13155 -2.18385,-3.13155"
       inkscape:connector-curvature="0" />
  </g>
  <g
     transform="matrix(0.6074699,0,0,0.6074699,-355.54685,-34.912709)"
     id="g3025">
    <path
       d="m 832.62925,250.11373 c 0,2.92921 0.65144,5.85859 0.97717,6.835 0.32517,0.97648 0.48831,2.19695 0.48831,2.19695 0,0 1.13921,-1.70867 1.13921,-3.66156 0,-1.95289 -0.32573,-4.63813 -0.32573,-4.63813"
       id="path3027"
       style="fill:#0139ab;fill-opacity:1;fill-rule:evenodd;stroke:#000000;stroke-width:0.67720532pt;stroke-linecap:butt;stroke-linejoin:miter;stroke-opacity:1"
       inkscape:connector-curvature="0" />
    <path
       d="m 826.76952,250.11373 c 0,0.24406 -0.97717,1.46461 -0.81404,3.66156 0.16259,2.19703 0.6509,3.9057 0.6509,3.66164 0,-0.24406 0,-2.19695 1.13976,-3.4175 1.13921,-1.22054 2.92986,-1.95281 2.92986,-1.95281"
       id="path3029"
       style="fill:#0139ab;fill-opacity:1;fill-rule:evenodd;stroke:#000000;stroke-width:0.67720532pt;stroke-linecap:butt;stroke-linejoin:miter;stroke-opacity:1"
       inkscape:connector-curvature="0" />
    <path
       d="m 825.62976,244.98741 c -3.7439,4.14984 -2.44155,6.34687 -2.44155,6.34687 0,0 0.16258,-0.97649 1.46493,-0.97649 1.30234,0 3.7439,1.22055 3.7439,1.22055"
       id="path3031"
       style="fill:#0139ab;fill-opacity:1;fill-rule:evenodd;stroke:#000000;stroke-width:0.67720532pt;stroke-linecap:butt;stroke-linejoin:miter;stroke-opacity:1"
       inkscape:connector-curvature="0" />
    <path
       d="m 766.37663,253.77529 c -0.32573,3.90578 0.81348,6.34687 0.81348,6.34687 0,0 1.30235,-1.22054 1.13976,-4.39398 -0.16314,-3.17344 -0.97662,-4.88219 -0.97662,-4.88219"
       id="path3033"
       style="fill:#0139ab;fill-opacity:1;fill-rule:evenodd;stroke:#000000;stroke-width:0.67720532pt;stroke-linecap:butt;stroke-linejoin:miter;stroke-opacity:1"
       inkscape:connector-curvature="0" />
    <path
       d="m 760.51635,251.33428 c -0.16314,0 -1.46548,1.22046 -2.44211,2.44101 -0.97662,1.22054 -0.81403,3.17344 -0.81403,3.17344 0,0 2.93042,-1.95298 3.90704,-1.70875 0.97662,0.24414 1.46493,1.22046 1.46493,1.22046"
       id="path3035"
       style="fill:#0139ab;fill-opacity:1;fill-rule:evenodd;stroke:#000000;stroke-width:0.67720532pt;stroke-linecap:butt;stroke-linejoin:miter;stroke-opacity:1"
       inkscape:connector-curvature="0" />
    <path
       d="m 761.49297,245.23155 c -2.76728,-1.22055 -4.72107,1.46469 -4.55793,1.46469 0.16258,0 2.76728,0 3.25559,1.4646 0.48831,1.46461 1.79065,3.17344 1.79065,3.17344"
       id="path3037"
       style="fill:#0139ab;fill-opacity:1;fill-rule:evenodd;stroke:#000000;stroke-width:0.67720532pt;stroke-linecap:butt;stroke-linejoin:miter;stroke-opacity:1"
       inkscape:connector-curvature="0" />
    <path
       d="m 767.51584,242.30226 c -0.32573,0 -0.32573,-1.9529 -1.79066,-2.19695 -1.46493,-0.24415 -2.60469,1.22054 -2.60469,1.22054 0,0 3.093,2.9293 3.25614,2.9293 0.16258,0 1.13921,-1.46469 1.13921,-1.95289 z"
       id="path3039"
       style="fill:#0139ab;fill-opacity:1;fill-rule:evenodd;stroke:#000000;stroke-width:0.67720532pt;stroke-linecap:butt;stroke-linejoin:miter;stroke-opacity:1"
       inkscape:connector-curvature="0" />
    <path
       d="m 670.19025,210.47816 c 0.23022,-2.07139 -0.28779,-5.43722 -0.28779,-5.43722 0,0 1.03596,-0.17266 2.07192,1.38084 1.03596,1.55351 0.57552,4.05638 0.57552,4.05638"
       id="path3041"
       style="fill:#0139ab;fill-opacity:1;fill-rule:evenodd;stroke:#000000;stroke-width:0.67720532pt;stroke-linecap:butt;stroke-linejoin:miter;stroke-opacity:1"
       inkscape:connector-curvature="0" />
    <path
       d="m 664.1472,209.70137 c 0.23022,-4.22896 -1.55391,-5.3509 -1.61148,-5.3509 -0.0576,0 1.66905,-0.77679 2.82009,0 1.15104,0.77671 1.61148,4.66052 1.61148,4.66052"
       id="path3043"
       style="fill:#0139ab;fill-opacity:1;fill-rule:evenodd;stroke:#000000;stroke-width:0.67720532pt;stroke-linecap:butt;stroke-linejoin:miter;stroke-opacity:1"
       inkscape:connector-curvature="0" />
    <path
       d="m 659.19768,210.99597 c -1.38132,-3.79739 -2.64744,-2.93435 -2.64744,-2.93435 0,0 1.03596,-1.46718 2.47473,-1.0357 1.43883,0.43148 2.70501,2.41654 2.70501,2.33022"
       id="path3045"
       style="fill:#0139ab;fill-opacity:1;fill-rule:evenodd;stroke:#000000;stroke-width:0.67720532pt;stroke-linecap:butt;stroke-linejoin:miter;stroke-opacity:1"
       inkscape:connector-curvature="0" />
    <path
       d="m 660.57894,219.45388 c -1.26618,1.03561 -1.61148,1.46717 -2.64744,1.20827 -1.03596,-0.2589 -1.8417,-0.34523 -1.8417,-0.34523 0,0 0.63309,-3.02077 1.43883,-3.36592 0.80574,-0.34523 2.24457,-0.2589 2.24457,-0.2589"
       id="path3047"
       style="fill:#0139ab;fill-opacity:1;fill-rule:evenodd;stroke:#000000;stroke-width:0.67720532pt;stroke-linecap:butt;stroke-linejoin:miter;stroke-opacity:1"
       inkscape:connector-curvature="0" />
    <path
       d="m 664.31078,238.39656 c 0,-1.95289 -0.81392,-2.9293 -0.81392,-2.9293 0,0 1.13953,-1.22063 2.27902,0.48812 1.13948,1.70883 1.62779,4.39398 1.62779,4.39398 l 0,0"
       id="path3049"
       style="fill:#0139ab;fill-opacity:1;fill-rule:evenodd;stroke:#000000;stroke-width:0.67720532pt;stroke-linecap:butt;stroke-linejoin:miter;stroke-opacity:1"
       inkscape:connector-curvature="0" />
    <path
       d="m 659.60055,241.11646 c -0.0576,0 -0.57558,-1.46726 -1.32375,-1.98507 -0.74817,-0.51772 -1.43883,-0.60405 -1.20861,-0.60405 0.23022,0 0,-1.0357 1.61148,-1.0357 1.61148,0 2.64744,0.77671 2.64744,0.77671"
       id="path3051"
       style="fill:#0139ab;fill-opacity:1;fill-rule:evenodd;stroke:#000000;stroke-width:0.67720532pt;stroke-linecap:butt;stroke-linejoin:miter;stroke-opacity:1"
       inkscape:connector-curvature="0" />
    <path
       d="m 658.96746,245.51807 c -3.51075,-0.34523 -3.85605,2.84802 -3.74097,2.93427 0.11514,0.0863 1.43883,1.03561 2.24457,1.12202 0.80574,0.0863 1.4964,0 1.4964,0"
       id="path3053"
       style="fill:#0139ab;fill-opacity:1;fill-rule:evenodd;stroke:#000000;stroke-width:0.67720532pt;stroke-linecap:butt;stroke-linejoin:miter;stroke-opacity:1"
       inkscape:connector-curvature="0" />
    <path
       d="m 660.57894,252.94028 c -1.78413,3.71106 -1.43883,5.69613 -1.26618,5.69613 0.17265,0 0.80574,-0.51781 1.72656,-1.55351 0.92088,-1.03561 1.55397,-3.02068 1.55397,-3.02068"
       id="path3055"
       style="fill:#0139ab;fill-opacity:1;fill-rule:evenodd;stroke:#000000;stroke-width:0.67720532pt;stroke-linecap:butt;stroke-linejoin:miter;stroke-opacity:1"
       inkscape:connector-curvature="0" />
    <path
       d="m 662.03181,244.98741 c 0.16281,0 0.81393,-7.8114 3.09289,-7.3232 2.27897,0.48821 1.4651,0.48829 2.27897,0.97641 0.81393,0.4882 2.44177,5.85859 2.44177,5.85859"
       id="path3057"
       sodipodi:nodetypes="cccc"
       style="fill:#fdd400;fill-opacity:1;fill-rule:evenodd;stroke:#000000;stroke-width:0.67720532pt;stroke-linecap:butt;stroke-linejoin:miter;stroke-opacity:1"
       inkscape:connector-curvature="0" />
    <path
       d="m 826.44601,249.57627 c -0.34564,-0.34523 -2.99291,-2.41663 -1.61148,-4.14271 1.38087,-1.72599 9.55385,-0.34523 9.55385,-0.34523"
       id="path3059"
       sodipodi:nodetypes="ccc"
       style="fill:#fdd400;fill-opacity:1;fill-rule:evenodd;stroke:#000000;stroke-width:0.67720532pt;stroke-linecap:butt;stroke-linejoin:miter;stroke-opacity:1"
       inkscape:connector-curvature="0" />
    <path
       d="m 772.69148,249.05846 c -0.92076,-0.51789 -1.95656,-0.69046 -3.10793,-3.45224 -1.15082,-2.76178 -0.46011,-2.76178 -0.92077,-3.45224 -0.4601,-0.69038 -1.38142,-0.34507 -2.9929,0.17266 -1.61148,0.5178 -1.15082,6.04136 -1.15082,6.04136"
       id="path3061"
       style="fill:#fdd400;fill-opacity:1;fill-rule:evenodd;stroke:#000000;stroke-width:0.67720532pt;stroke-linecap:butt;stroke-linejoin:miter;stroke-opacity:1"
       inkscape:connector-curvature="0" />
    <path
       d="m 786.38906,226.61918 c -0.92076,0.5178 -8.86314,6.21385 -8.63308,9.32086 0.2306,3.10701 5.06504,4.83309 4.95002,6.73183 -0.11558,1.89874 -4.60439,3.27958 -8.74812,3.45216 -4.14372,0.17266 -5.2951,1.20835 -7.71232,0.51789 -2.41721,-0.69047 -5.98525,-4.14271 -6.67597,-0.17266 -0.69071,3.97005 0.23006,4.14263 0.23006,4.14263 0,0 -0.57514,2.07131 0,3.79747 0.57568,1.72608 1.15137,2.76178 2.64727,2.76178 1.49645,0 1.95711,-1.38093 1.95711,-1.38093 0,0 0.23006,1.72608 2.87733,1.89874 2.64782,0.17257 3.45356,-1.72617 3.56859,-1.72617 0.11503,0 2.30219,0.69055 3.33799,0.34532 1.03579,-0.34532 2.41722,-1.20827 2.41722,-1.20827 0,0 -1.15082,2.41646 -1.0358,2.41646 0.11503,0 2.3022,-0.17266 4.60384,-0.69047 2.30219,-0.51772 4.0287,-2.76169 3.91367,-2.76169 -0.11503,0 -1.95656,3.10693 0.92077,2.93435 2.87788,-0.17266 4.2593,-3.45224 6.33089,-3.10701 2.07214,0.34523 3.22296,-0.34523 3.22296,-0.34523 0,0 0.57569,-1.38085 1.2664,-2.07131 0.69071,-0.69047 1.49645,-0.86304 1.49645,-0.86304 0,0 1.84154,-0.34515 1.84154,-0.51781 0,-0.17258 0,-4.3152 0,-4.3152 0,0 -2.99291,-0.34523 -2.99291,-3.45224 0,-3.10693 8.0574,-6.3866 8.0574,-6.3866 l -17.84131,-9.32086 z"
       id="path3063"
       style="fill:#f7d917;fill-opacity:1;fill-rule:evenodd;stroke:#000000;stroke-width:0.67720532pt;stroke-linecap:butt;stroke-linejoin:miter;stroke-opacity:1"
       inkscape:connector-curvature="0" />
    <path
       d="m 670.13262,224.54778 c 0.46044,-14.15396 2.99274,-8.28525 2.99274,-11.39218 0,-3.10701 -1.03595,-5.17832 -1.84169,-5.17832 -1.84165,0 -6.44587,5.8687 -6.44587,5.8687"
       id="path3065"
       sodipodi:nodetypes="cccc"
       style="fill:#fdd400;fill-opacity:1;fill-rule:evenodd;stroke:#000000;stroke-width:0.67720532pt;stroke-linecap:butt;stroke-linejoin:miter;stroke-opacity:1"
       inkscape:connector-curvature="0" />
    <path
       d="m 702.24703,234.21396 c -1.1511,-0.51689 -18.9924,-4.14171 -24.97788,-7.59396 -5.98548,-3.45216 -8.51779,-8.97571 -8.97822,-11.73741 -0.46044,-2.76177 0.69065,-7.24955 -2.76253,-7.24955 -3.45317,0 -1.61148,4.48778 -1.61148,4.48778 0,0 -2.76252,-7.24956 -4.83444,-3.10693 -2.07186,4.14262 2.53236,7.24963 2.53236,7.24963 0,0 -4.45446,-2.78118 -3.3381,1.726 1.87638,7.57538 4.94958,4.83309 5.40996,6.55917 0.46044,1.72616 -2.30208,3.45224 -1.84164,3.79748 0.46038,0.34523 2.30208,1.55342 3.45312,1.89865 1.1511,0.34532 2.76253,0.86304 2.76253,0.86304 l -1.72657,2.07049 c 0,0 3.22296,3.45216 4.83444,4.3152 1.61148,0.86312 3.6834,0 3.56826,0 -0.11508,0 -2.99274,1.89873 -2.99274,1.89873 0,0 1.61148,1.38077 3.33805,1.72608 1.72661,0.34524 3.22296,0.51781 3.22296,0.51781 l -1.84165,1.20827 24.86275,7.4223 0.92082,-16.05278 z"
       id="path3067"
       sodipodi:nodetypes="cccccccsccccccccccccc"
       style="fill:#f7d917;fill-opacity:1;fill-rule:evenodd;stroke:#000000;stroke-width:0.67720532pt;stroke-linecap:butt;stroke-linejoin:miter;stroke-opacity:1"
       inkscape:connector-curvature="0" />
    <path
       sodipodi:nodetypes="cscscscssssssssssscssccscsscsscsscssssssssssssssssscsscscscsssscsssssssssssscscssscssssssssssssssccsccsccc"
       d="m 703.85851,231.45218 c -0.57552,0.17266 -11.16522,11.73758 -22.33044,12.25539 -11.16523,0.51772 -17.49601,-0.34532 -17.49601,-0.34532 0,0 -1.61148,-7.9401 -4.374,-4.3152 -2.76252,3.62482 -0.57552,5.00567 -0.57552,5.00567 0,0 0.46038,-0.17258 1.15104,0.69046 0.6906,0.86304 1.15104,1.89874 1.15104,1.89874 0,0 -3.68334,-4.48794 -3.68334,0.86296 0,5.35098 2.41716,3.45224 2.30208,3.45224 -0.11508,0 -0.57552,4.66052 0,4.83309 0.57552,0.17257 2.87766,1.03561 4.14378,0.69047 1.26618,-0.34524 1.1511,-1.38094 1.4964,-1.55351 0.3453,-0.17266 2.30208,-1.38085 2.64744,-0.86304 0.3453,0.51781 -2.18706,3.79739 -1.72662,3.79739 0.46044,0 4.25892,0 5.40996,-1.38084 1.15104,-1.38085 1.72657,-3.45216 1.8417,-3.27959 0.11508,0.17257 -1.95678,4.14263 -1.72661,4.14263 0.23021,0 4.37405,0.69046 5.40996,0.17257 1.03596,-0.51781 2.07191,-2.24389 2.07191,-2.24389 0,0 -0.69065,2.07132 -0.46043,2.24389 0.23022,0.17266 2.30213,0.34523 4.25891,-0.69047 1.95679,-1.03561 2.76253,-1.89865 2.76253,-1.89865 l -0.57552,2.41655 c 0,0 2.99274,-0.17258 4.7193,-2.07132 1.72661,-1.89874 2.53235,-2.07131 2.53235,-2.07131 0,0 -1.72661,2.93435 -1.49639,2.93435 0.23022,0 3.33804,-0.17257 4.7193,-0.86304 1.38132,-0.69046 2.76258,-1.20827 2.76258,-1.20827 0,0 -1.61148,2.41655 -1.4964,2.41655 0.11514,0 2.30214,0.17257 5.06466,-0.86304 2.76274,-1.0357 4.7193,-2.24398 4.7193,-2.24398 0,0 -3.22296,3.45216 -2.53225,3.45216 0.69072,0 4.83444,0.17266 6.90603,-1.03561 2.07214,-1.20827 2.5328,-2.41655 2.5328,-2.41655 0,0 6.67597,0.34532 8.0574,-1.20827 1.38087,-1.5535 1.03579,-2.24389 0.92076,-2.07131 -0.11502,0.17266 4.0287,1.03561 6.21532,1.5535 2.18716,0.51781 6.79155,0.69047 9.89948,-0.17265 3.10738,-0.86304 36.94846,-20.71313 43.16433,-20.3679 6.21586,0.34515 7.36668,2.58912 9.20822,2.41647 1.84208,-0.17258 2.87788,-1.0357 2.87788,-0.86304 0,0.17265 9.09319,10.5293 21.40934,9.83883 12.31671,-0.69046 9.89949,-1.72616 11.85605,-1.89873 1.95656,-0.17258 4.25875,1.72608 4.0287,3.45216 -0.23006,1.72616 -1.2664,2.76177 -2.53225,2.93443 -1.2664,0.17258 -2.64727,1.38085 -2.64727,3.10693 0,1.72608 1.38087,4.14262 2.87732,4.14262 1.49646,0 1.95712,-0.86304 2.41722,-1.03561 0.46066,-0.17257 0.92077,1.89874 2.87788,1.03561 1.95656,-0.86304 2.53225,-1.72608 2.99236,-1.89865 0.46066,-0.17266 3.45356,-0.34532 3.45356,-0.51789 0,-0.17258 0.23006,-5.69613 0.23006,-5.69613 0,0 3.22296,-0.34515 3.22296,-1.38085 0,-1.03561 -1.15082,-3.27958 -1.84154,-4.3152 -0.69071,-1.0357 -1.49645,-1.89874 -1.49645,-1.89874 0,0 2.18717,1.20828 2.64727,1.03562 0.46066,-0.17258 1.49646,-0.86304 1.49646,-0.86304 0,0 -1.49646,-2.58912 -2.64728,-3.45216 -1.15137,-0.86304 -3.91367,-1.72616 -3.91367,-1.72616 0,0 1.61148,-0.34515 2.87733,-1.38085 1.2664,-1.03562 2.41722,-2.41655 2.41722,-2.58921 0,-0.17257 -3.45302,-3.10684 -6.10029,-2.76169 -2.64727,0.34523 -6.33089,3.62482 -10.82025,3.62482 -4.48881,0 -9.32325,-3.45225 -9.32325,-3.45225 0,0 6.56095,0 9.55385,-0.17257 2.99236,-0.17257 9.43828,-2.24389 9.43828,-8.63048 0,-6.3866 -4.94947,-9.83884 -16.92054,-10.18399 -11.97052,-0.34523 -36.20516,-0.01 -43.76926,0.84631 -12.26149,1.38741 -24.12738,0.3787 -29.76756,0.3787 -5.64018,0 -7.13663,-1.20827 -7.25166,-3.97005 -0.0603,-1.44738 2.50345,-1.9466 4.95739,-2.16847 0.79681,-0.072 6.08244,-1.34881 12.54501,-1.34881 10.48687,0 22.56176,0.99524 34.00142,0.98591 11.43967,-0.009 17.56302,-1.00836 17.56302,-1.08751 0,-0.5178 0.23006,-1.20827 0.34508,-1.20827 0.11503,0 0.92077,2.07131 2.07214,2.24389 1.15082,0.17257 3.45301,-0.34523 3.45301,-0.34523 0,0 0.92077,1.5535 2.53225,1.38093 1.61148,-0.17266 2.30219,-1.38093 2.30219,-1.38093 0,0 0.92077,1.20827 2.64728,1.03569 1.72706,-0.17257 2.9929,-2.41654 3.33854,-2.41654 0.34508,0 1.61148,0.34515 2.7623,-0.34523 1.15082,-0.69039 6.44592,-5.86871 6.44592,-5.86871 0,0 -4.60439,1.20827 -7.36669,1.20827 -2.76285,0 -4.48936,-1.5535 -7.94237,-1.03569 -3.45302,0.5178 -7.13664,2.07131 -9.0932,1.89873 -0.63468,-0.056 -7.07234,0.85371 -18.69866,0.79749 -11.62632,-0.0562 -23.22096,-1.13298 -34.37108,-1.13298 -6.42609,0 -11.8126,1.19268 -13.34982,1.19268 -4.37378,0 -8.28745,4.3152 -8.74756,9.32086 -0.46066,5.00575 3.76925,4.9512 8.63253,7.59487 6.494,3.53012 65.13434,-1.57025 73.88245,-1.22501 8.74811,0.34515 14.38829,1.03569 14.38829,4.83309 0,3.79739 -5.87078,3.96996 -10.12954,3.79739 -4.25875,-0.17258 -14.15768,-1.89866 -21.40934,-1.72608 -7.25166,0.17257 -53.86955,10.18399 -62.27203,10.01133 -8.40303,-0.17257 -13.58255,-0.86304 -13.58255,-1.03561 0,-0.17258 -20.1435,2.5892 -20.1435,2.24388 z m 108.21803,-31.91021 c 0,0 0.57514,1.72624 1.38088,2.41663 0.80574,0.69038 1.95711,1.55342 1.95711,1.55342 m 1.49645,-3.45216 c 0,0 0.80574,0.17266 1.15082,0.86304 0.34564,0.69046 1.15138,1.5535 1.15138,1.5535 m 3.22296,-3.27958 c 0.69016,0 1.4959,2.07131 1.4959,2.07131"
       style="fill:#f7d917;fill-opacity:1;fill-rule:evenodd;stroke:#000000;stroke-width:0.67720532pt;stroke-linecap:butt;stroke-linejoin:miter;stroke-opacity:1"
       id="path3069"
       inkscape:connector-curvature="0" />
    <path
       d="m 696.29772,234.24987 c 0.16275,-0.24414 0.65106,-2.56308 1.05802,-4.27183 0.40696,-1.70875 1.13954,-3.90578 1.13954,-3.90578 0,0 -1.62785,1.09847 -1.54645,0.85442 0.0813,-0.24415 -0.32556,-3.66164 0.56972,-6.10274 0.89533,-2.441 1.7906,-3.78362 1.7906,-4.76003 0,-0.97648 -0.89527,-0.4882 -0.89527,-2.44109 0,-1.95289 -0.40697,-4.76019 0.65111,-5.37038 1.05808,-0.61028 4.3135,3.66155 4.3135,3.41749 0,-0.24406 -0.73224,-5.85859 0.65145,-6.22472 1.38364,-0.36613 3.33688,1.95289 3.33688,1.95289 0,0 0.65145,-4.88218 1.13976,-4.88218 0.48831,0 1.79066,3.78371 1.79066,3.78371 0,0 1.30235,-4.02777 1.79066,-4.02777 0.48831,0 1.95324,4.27183 1.95324,4.27183 0,0 0.73219,-3.66156 1.70936,-3.66156 0.97662,0 1.70881,4.3939 1.70881,4.3939 0,0 0.65145,-2.31902 1.54678,-2.07488 0.89533,0.24406 1.62752,6.10265 1.62752,6.10265 0,0 2.36081,-3.78371 3.90703,-3.29551 1.54623,0.48829 0,5.49254 0.0813,7.68941 0.0813,2.19695 1.54677,3.29551 1.62807,4.88219 0.0813,1.58667 0.0813,11.47303 0,11.47303 -0.0819,0 -16.35979,6.34671 -18.23174,5.98058 -1.87195,-0.36614 -11.63915,-3.53957 -11.72055,-3.78363 z"
       id="path3071"
       sodipodi:nodetypes="ccccccccccccccccccccccccc"
       style="fill:#f7d917;fill-opacity:1;fill-rule:evenodd;stroke:#000000;stroke-width:0.67720532pt;stroke-linecap:butt;stroke-linejoin:miter;stroke-opacity:1"
       inkscape:connector-curvature="0" />
    <path
       d="m 704.95182,223.34141 c -1.15138,2.84985 -5.58261,10.87628 -6.50349,12.25713 -0.92082,1.38085 -3.22291,3.45216 -3.22291,3.45216 0,0 0.92083,2.07123 2.53231,1.72608 1.61148,-0.34523 3.91356,-2.76178 3.91356,-2.76178 0,0 -2.58976,3.01886 -3.3955,4.65861 -0.80574,1.63983 -1.32369,4.40161 -1.32369,4.40161 0,0 3.22296,-0.0863 5.17974,-2.50287 1.95672,-2.41646 3.22312,-4.40153 3.16561,-4.40153 -0.0575,0 -1.8996,2.84819 -1.78457,4.91942 0.11558,2.07123 -0.28757,3.79739 -0.23,3.79739 0.0575,0 2.35965,-1.46718 3.39544,-2.67545 1.03635,-1.20827 2.64783,-3.97005 2.64783,-3.97005 0,0 -0.57569,3.53857 -0.23061,5.17832 0.34564,1.63976 1.2664,3.96997 1.20889,3.96997 -0.0575,0 1.61148,-1.12194 2.47473,-3.62473 0.86326,-2.50288 1.15082,-4.48786 1.15082,-4.48786 0,0 0.28812,3.45216 1.20889,4.66043 0.92077,1.20827 5.06449,0.94937 5.06449,0.94937 0,0 -1.43894,-0.51789 -1.89905,-2.93443 -0.46065,-2.41647 -0.28811,-5.26449 -0.28811,-5.26449 0,0 1.03634,3.19326 2.01462,3.53849 0.97828,0.34515 1.78402,-0.69047 2.47473,0 0.69072,0.69038 1.61148,3.0206 1.669,2.93427 0.0575,-0.0863 1.95656,-1.29452 0.92076,-4.22887 -1.03579,-2.93436 -3.10793,-3.10701 -4.20124,-5.00567 -1.09385,-1.89874 -1.7265,-4.83309 -1.7265,-4.91933 0,-0.0863 0.92076,4.22887 2.30219,5.17824 1.38087,0.94928 2.18661,1.98498 4.14373,2.07131 1.95656,0.0862 2.93484,1.5535 2.93484,2.76178 0,1.20827 -0.17254,1.98498 -0.17254,1.98498 0,0 2.24468,-0.51781 2.24468,-3.97005 0,-3.45216 -1.38143,-4.83309 -2.87788,-5.3509 -1.49646,-0.51781 -4.25876,-1.46717 -4.89196,-2.50279 -0.6332,-1.0357 -0.80574,-2.07131 -0.80574,-2.07131 0,0 0.23006,1.89865 1.49646,2.50279 1.2664,0.60414 2.93539,1.81241 4.08621,1.38085 1.15137,-0.43148 4.14373,-4.74677 4.14373,-4.74677 0,0 -2.7623,-0.51772 -5.64018,-1.72599 -2.87733,-1.20836 -3.54426,-5.43358 -3.54426,-5.43358 l -17.63503,0.25525 z"
       id="path3073"
       sodipodi:nodetypes="ccccccccccccccccccccccccccccccccccccccccc"
       style="fill:#f7d917;fill-opacity:1;fill-rule:evenodd;stroke:#000000;stroke-width:0.67720532pt;stroke-linecap:butt;stroke-linejoin:miter;stroke-opacity:1"
       inkscape:connector-curvature="0" />
    <path
       d="m 708.99489,237.30115 c 0,0 1.2205,-1.95272 3.1743,-2.07488 1.95324,-0.12207 4.15091,2.56317 4.15091,2.56317"
       id="path3075"
       style="fill:none;stroke:#000000;stroke-width:0.67720532pt;stroke-linecap:butt;stroke-linejoin:miter;stroke-opacity:1"
       inkscape:connector-curvature="0" />
    <path
       d="m 710.78544,229.00153 c 0,0.36613 -0.73274,2.31902 -0.5696,5.12624 0.16259,2.80722 2.36026,4.8821 2.36026,4.8821 0,0 2.36026,-1.4646 2.44155,-5.00417 0.0813,-3.53957 -0.32572,-5.49237 -0.32572,-5.49237 l -3.90649,0.4882 z"
       id="path3077"
       style="fill:#0139ab;fill-opacity:1;fill-rule:evenodd;stroke:#000000;stroke-width:0.67720532pt;stroke-linecap:butt;stroke-linejoin:miter;stroke-opacity:1"
       inkscape:connector-curvature="0" />
    <path
       d="m 712.73856,229.12365 c 0,0 0.0819,6.34679 0,6.34679"
       id="path3079"
       style="fill:none;stroke:#000000;stroke-width:0.84650666;stroke-linecap:round;stroke-linejoin:miter;stroke-opacity:1"
       inkscape:connector-curvature="0" />
    <path
       d="m 701.0998,221.55629 c 0.0814,0 1.38364,0.85433 1.38364,3.17335 0,2.31902 0.56977,5.37039 2.36054,5.37039 1.79065,0 2.52284,-1.34262 2.60414,-1.22055 0.0818,0.12207 1.22105,3.78363 3.01171,3.29543 1.79065,-0.4882 2.36026,-3.29543 2.36026,-3.29543 0,0 0.97662,3.66156 2.36025,3.29543 1.38364,-0.36613 2.19768,-3.66156 2.19768,-3.66156 0,0 1.13976,2.07488 2.36026,1.70867 1.22105,-0.36613 2.19767,-1.83066 2.68598,-3.41742 0.48831,-1.58676 0.65145,-4.51597 0.57016,-4.51597"
       id="path3081"
       sodipodi:nodetypes="ccccccccccc"
       style="fill:#fdd400;fill-opacity:0.996081;fill-rule:evenodd;stroke:#000000;stroke-width:0.67720532pt;stroke-linecap:butt;stroke-linejoin:miter;stroke-opacity:1"
       inkscape:connector-curvature="0" />
    <path
       d="m 710.21539,215.2095 c 0,0 1.54678,7.07913 -2.11582,6.95706 -3.66261,-0.12207 -1.79066,-3.29551 -2.93042,-3.41749 -1.13921,-0.12207 -1.70881,0 -1.70881,0"
       id="path3083"
       style="fill:none;stroke:#000000;stroke-width:0.67720532pt;stroke-linecap:butt;stroke-linejoin:miter;stroke-opacity:1"
       inkscape:connector-curvature="0" />
    <path
       d="m 713.47153,214.59923 c 0,0 -0.89532,8.17761 2.11583,7.56733 3.01171,-0.61027 3.7439,-3.78362 3.7439,-3.78362"
       id="path3085"
       style="fill:none;stroke:#000000;stroke-width:0.67720532pt;stroke-linecap:butt;stroke-linejoin:miter;stroke-opacity:1"
       inkscape:connector-curvature="0" />
    <path
       d="m 700.12307,210.20533 c 0,0 0.40696,3.41758 1.22089,5.49245 0.81387,2.07488 1.46504,1.70859 2.19767,2.0748 0,-1.46469 0,-2.07488 -0.89538,-4.02777 -0.89527,-1.95281 -2.52318,-3.29542 -2.52318,-3.53948 z"
       id="path3087"
       sodipodi:nodetypes="ccccc"
       style="fill:#000000;fill-opacity:0.99607801;fill-rule:evenodd;stroke:none"
       inkscape:connector-curvature="0" />
    <path
       d="m 721.28505,217.28438 c 0,-0.12199 -0.32572,-2.56308 0.56961,-4.76003 0.89533,-2.19704 1.87195,-2.68515 1.87195,-2.68515 0,0 0.16258,1.9528 -0.48831,3.90569 -0.6509,1.95281 -1.70937,3.9057 -1.95325,3.53949 z"
       id="path3089"
       style="fill:#000000;fill-opacity:0.99607801;fill-rule:evenodd;stroke:none"
       inkscape:connector-curvature="0" />
    <path
       d="m 705.90189,217.77258 c 0.40702,0 2.03454,-2.68523 3.98778,0"
       id="path3091"
       sodipodi:nodetypes="cc"
       style="fill:none;stroke:#000000;stroke-width:0.67720532pt;stroke-linecap:butt;stroke-linejoin:miter;stroke-opacity:1"
       inkscape:connector-curvature="0" />
    <path
       d="m 714.61074,217.16239 c 2.03509,-2.19695 4.23221,0.4882 4.23221,0.4882"
       id="path3093"
       sodipodi:nodetypes="cc"
       style="fill:none;stroke:#000000;stroke-width:0.67720532pt;stroke-linecap:butt;stroke-linejoin:miter;stroke-opacity:1"
       inkscape:connector-curvature="0" />
    <path
       d="m 709.6458,219.35925 c 0,0.74119 -0.74763,1.34258 -1.66829,1.34258 -0.92126,0 -1.66889,-0.60139 -1.66889,-1.34258 0,-0.7411 0.74763,-1.34258 1.66889,-1.34258 0.92066,0 1.66829,0.60148 1.66829,1.34258 z"
       id="path3095"
       style="font-size:12px;fill:none;stroke:#000000;stroke-width:0.75692601pt"
       inkscape:connector-curvature="0" />
    <path
       d="m 718.19203,219.11515 c 0,0.74119 -0.72939,1.34258 -1.6276,1.34258 -0.89879,0 -1.62819,-0.60139 -1.62819,-1.34258 0,-0.7411 0.7294,-1.34258 1.62819,-1.34258 0.89821,0 1.6276,0.60148 1.6276,1.34258 z"
       id="path3097"
       style="font-size:12px;fill:none;stroke:#000000;stroke-width:0.74763823pt"
       inkscape:connector-curvature="0" />
    <path
       d="m 707.93643,217.65059 c 0,0.12199 0.0818,3.17335 0.0818,3.17335"
       id="path3099"
       style="fill:none;stroke:#000000;stroke-width:0.67720532pt;stroke-linecap:butt;stroke-linejoin:miter;stroke-opacity:1"
       inkscape:connector-curvature="0" />
    <path
       d="m 716.4014,217.52852 0.0813,3.05137"
       id="path3101"
       style="fill:none;stroke:#000000;stroke-width:0.67720532pt;stroke-linecap:butt;stroke-linejoin:miter;stroke-opacity:1"
       inkscape:connector-curvature="0" />
    <path
       d="m 123.48288,49.413345 c 0,1.828913 -1.94387,3.311539 -4.34177,3.311539 -2.39789,0 -4.34177,-1.482626 -4.34177,-3.311539 0,-1.828912 1.94388,-3.311539 4.34177,-3.311539 2.3979,0 4.34177,1.482627 4.34177,3.311539 z"
       id="path3103"
       sodipodi:cx="119.14111"
       sodipodi:cy="49.413345"
       sodipodi:rx="4.3417702"
       sodipodi:ry="3.3115389"
       sodipodi:type="arc"
       style="fill:#000000;fill-opacity:1;fill-rule:evenodd;stroke:none"
       transform="matrix(0.487401,0,0,0.718722,654.5065,190.9849)" />
    <path
       d="m 836.11489,246.46926 c 0,0 -0.34564,1.89874 0.11502,2.93435 0.46011,1.0357 1.49646,3.10701 1.49646,3.10701"
       id="path3105"
       style="fill:none;stroke:#000000;stroke-width:0.67720532pt;stroke-linecap:butt;stroke-linejoin:miter;stroke-opacity:1"
       inkscape:connector-curvature="0" />
    <path
       d="m 833.00695,248.02277 c 0,0 -1.7265,1.89873 -1.61148,3.10701 0.11503,1.20827 0.57514,2.41646 0.57514,2.41646"
       id="path3107"
       style="fill:none;stroke:#000000;stroke-width:0.67720532pt;stroke-linecap:butt;stroke-linejoin:miter;stroke-opacity:1"
       inkscape:connector-curvature="0" />
    <path
       d="m 838.87719,244.05272 c 2.18716,0.69046 2.18716,2.41654 2.18716,2.41654"
       id="path3109"
       style="fill:none;stroke:#000000;stroke-width:0.67720532pt;stroke-linecap:butt;stroke-linejoin:miter;stroke-opacity:1"
       inkscape:connector-curvature="0" />
    <path
       d="m 762.10184,249.23104 c -0.46066,0.17257 -2.30219,1.55342 -2.30219,1.55342"
       id="path3111"
       style="fill:none;stroke:#000000;stroke-width:0.67720532pt;stroke-linecap:butt;stroke-linejoin:miter;stroke-opacity:1"
       inkscape:connector-curvature="0" />
    <path
       d="m 765.43982,251.82016 c -0.57568,0.34523 -1.15082,-0.17258 -1.38142,1.5535 -0.23005,1.72617 0.34563,2.58912 0.34563,2.58912"
       id="path3113"
       style="fill:none;stroke:#000000;stroke-width:0.67720532pt;stroke-linecap:butt;stroke-linejoin:miter;stroke-opacity:1"
       inkscape:connector-curvature="0" />
    <path
       d="m 770.38929,252.51062 c 0.11503,0 0.80574,0.86304 0.80574,1.72608 0,0.86313 -0.46011,1.89874 -0.46011,1.89874"
       id="path3115"
       style="fill:none;stroke:#000000;stroke-width:0.67720532pt;stroke-linecap:butt;stroke-linejoin:miter;stroke-opacity:1"
       inkscape:connector-curvature="0" />
    <path
       d="m 660.9242,248.71317 c -0.11508,0 -0.92082,1.03569 -0.92082,2.24397"
       id="path3117"
       sodipodi:nodetypes="cc"
       style="fill:none;stroke:#000000;stroke-width:0.67720532pt;stroke-linecap:butt;stroke-linejoin:miter;stroke-opacity:1"
       inkscape:connector-curvature="0" />
    <path
       d="m 794.60518,232.98603 c -1.14142,-1.2946 -2.18385,-3.13155 -2.18385,-3.13155"
       id="path3119"
       sodipodi:nodetypes="cc"
       style="fill:none;stroke:#000000;stroke-width:0.67720532pt;stroke-linecap:butt;stroke-linejoin:miter;stroke-opacity:1"
       inkscape:connector-curvature="0" />
  </g>
  <g
     transform="matrix(0.6074699,0,0,0.6074699,-355.54685,4.572831)"
     id="g3324">
    <path
       d="m 832.62925,315.11373 c 0,2.92921 0.65144,5.85859 0.97717,6.835 0.32517,0.97648 0.48831,2.19695 0.48831,2.19695 0,0 1.13921,-1.70867 1.13921,-3.66156 0,-1.95289 -0.32573,-4.63813 -0.32573,-4.63813"
       id="path3123"
       style="fill:#0139ab;fill-opacity:1;fill-rule:evenodd;stroke:#000000;stroke-width:0.67720532pt;stroke-linecap:butt;stroke-linejoin:miter;stroke-opacity:1"
       inkscape:connector-curvature="0" />
    <path
       d="m 826.76952,315.11373 c 0,0.24406 -0.97717,1.46461 -0.81404,3.66156 0.16259,2.19703 0.6509,3.9057 0.6509,3.66164 0,-0.24406 0,-2.19695 1.13976,-3.4175 1.13921,-1.22054 2.92986,-1.95281 2.92986,-1.95281"
       id="path3125"
       style="fill:#0139ab;fill-opacity:1;fill-rule:evenodd;stroke:#000000;stroke-width:0.67720532pt;stroke-linecap:butt;stroke-linejoin:miter;stroke-opacity:1"
       inkscape:connector-curvature="0" />
    <path
       d="m 825.62976,309.98741 c -3.7439,4.14984 -2.44155,6.34687 -2.44155,6.34687 0,0 0.16258,-0.97649 1.46493,-0.97649 1.30234,0 3.7439,1.22055 3.7439,1.22055"
       id="path3127"
       style="fill:#0139ab;fill-opacity:1;fill-rule:evenodd;stroke:#000000;stroke-width:0.67720532pt;stroke-linecap:butt;stroke-linejoin:miter;stroke-opacity:1"
       inkscape:connector-curvature="0" />
    <g
       id="g3293"
       transform="matrix(0.937215,-0.348752,0.348752,0.937215,-75.49739,302.3192)">
      <path
         style="fill:#0139ab;fill-opacity:1;fill-rule:evenodd;stroke:#000000;stroke-width:0.67720532pt;stroke-linecap:butt;stroke-linejoin:miter;stroke-opacity:1"
         id="path3129"
         d="m 766.37663,318.77529 c -0.32573,3.90578 0.81348,6.34687 0.81348,6.34687 0,0 1.30235,-1.22054 1.13976,-4.39398 -0.16314,-3.17344 -0.97662,-4.88219 -0.97662,-4.88219"
         inkscape:connector-curvature="0" />
      <path
         style="fill:#0139ab;fill-opacity:1;fill-rule:evenodd;stroke:#000000;stroke-width:0.67720532pt;stroke-linecap:butt;stroke-linejoin:miter;stroke-opacity:1"
         id="path3131"
         d="m 760.51635,316.33428 c -0.16314,0 -1.46548,1.22046 -2.44211,2.44101 -0.97662,1.22054 -0.81403,3.17344 -0.81403,3.17344 0,0 2.93042,-1.95298 3.90704,-1.70875 0.97662,0.24414 1.46493,1.22046 1.46493,1.22046"
         inkscape:connector-curvature="0" />
      <path
         style="fill:#0139ab;fill-opacity:1;fill-rule:evenodd;stroke:#000000;stroke-width:0.67720532pt;stroke-linecap:butt;stroke-linejoin:miter;stroke-opacity:1"
         id="path3133"
         d="m 761.49297,310.23155 c -2.76728,-1.22055 -4.72107,1.46469 -4.55793,1.46469 0.16258,0 2.76728,0 3.25559,1.4646 0.48831,1.46461 1.79065,3.17344 1.79065,3.17344"
         inkscape:connector-curvature="0" />
      <path
         style="fill:#0139ab;fill-opacity:1;fill-rule:evenodd;stroke:#000000;stroke-width:0.67720532pt;stroke-linecap:butt;stroke-linejoin:miter;stroke-opacity:1"
         id="path3135"
         d="m 767.51584,307.30226 c -0.32573,0 -0.32573,-1.9529 -1.79066,-2.19695 -1.46493,-0.24415 -2.60469,1.22054 -2.60469,1.22054 0,0 3.093,2.9293 3.25614,2.9293 0.16258,0 1.13921,-1.46469 1.13921,-1.95289 z"
         inkscape:connector-curvature="0" />
    </g>
    <path
       d="m 670.19025,275.47816 c 0.23022,-2.07139 -0.28779,-5.43722 -0.28779,-5.43722 0,0 1.03596,-0.17266 2.07192,1.38084 1.03596,1.55351 0.57552,4.05638 0.57552,4.05638"
       id="path3137"
       style="fill:#0139ab;fill-opacity:1;fill-rule:evenodd;stroke:#000000;stroke-width:0.67720532pt;stroke-linecap:butt;stroke-linejoin:miter;stroke-opacity:1"
       inkscape:connector-curvature="0" />
    <path
       d="m 664.1472,274.70137 c 0.23022,-4.22896 -1.55391,-5.3509 -1.61148,-5.3509 -0.0576,0 1.66905,-0.77679 2.82009,0 1.15104,0.77671 1.61148,4.66052 1.61148,4.66052"
       id="path3139"
       style="fill:#0139ab;fill-opacity:1;fill-rule:evenodd;stroke:#000000;stroke-width:0.67720532pt;stroke-linecap:butt;stroke-linejoin:miter;stroke-opacity:1"
       inkscape:connector-curvature="0" />
    <path
       d="m 659.19768,275.99597 c -1.38132,-3.79739 -2.64744,-2.93435 -2.64744,-2.93435 0,0 1.03596,-1.46718 2.47473,-1.0357 1.43883,0.43148 2.70501,2.41654 2.70501,2.33022"
       id="path3141"
       style="fill:#0139ab;fill-opacity:1;fill-rule:evenodd;stroke:#000000;stroke-width:0.67720532pt;stroke-linecap:butt;stroke-linejoin:miter;stroke-opacity:1"
       inkscape:connector-curvature="0" />
    <path
       d="m 660.57894,284.45388 c -1.26618,1.03561 -1.61148,1.46717 -2.64744,1.20827 -1.03596,-0.2589 -1.8417,-0.34523 -1.8417,-0.34523 0,0 0.63309,-3.02077 1.43883,-3.36592 0.80574,-0.34523 2.24457,-0.2589 2.24457,-0.2589"
       id="path3143"
       style="fill:#0139ab;fill-opacity:1;fill-rule:evenodd;stroke:#000000;stroke-width:0.67720532pt;stroke-linecap:butt;stroke-linejoin:miter;stroke-opacity:1"
       inkscape:connector-curvature="0" />
    <path
       d="m 664.31078,303.39656 c 0,-1.95289 -0.81392,-2.9293 -0.81392,-2.9293 0,0 1.13953,-1.22063 2.27902,0.48812 1.13948,1.70883 1.62779,4.39398 1.62779,4.39398 l 0,0"
       id="path3145"
       style="fill:#0139ab;fill-opacity:1;fill-rule:evenodd;stroke:#000000;stroke-width:0.67720532pt;stroke-linecap:butt;stroke-linejoin:miter;stroke-opacity:1"
       inkscape:connector-curvature="0" />
    <path
       d="m 659.60055,306.11646 c -0.0576,0 -0.57558,-1.46726 -1.32375,-1.98507 -0.74817,-0.51772 -1.43883,-0.60405 -1.20861,-0.60405 0.23022,0 0,-1.0357 1.61148,-1.0357 1.61148,0 2.64744,0.77671 2.64744,0.77671"
       id="path3147"
       style="fill:#0139ab;fill-opacity:1;fill-rule:evenodd;stroke:#000000;stroke-width:0.67720532pt;stroke-linecap:butt;stroke-linejoin:miter;stroke-opacity:1"
       inkscape:connector-curvature="0" />
    <path
       d="m 658.96746,310.51807 c -3.51075,-0.34523 -3.85605,2.84802 -3.74097,2.93427 0.11514,0.0863 1.43883,1.03561 2.24457,1.12202 0.80574,0.0863 1.4964,0 1.4964,0"
       id="path3149"
       style="fill:#0139ab;fill-opacity:1;fill-rule:evenodd;stroke:#000000;stroke-width:0.67720532pt;stroke-linecap:butt;stroke-linejoin:miter;stroke-opacity:1"
       inkscape:connector-curvature="0" />
    <path
       d="m 660.57894,317.94028 c -1.78413,3.71106 -1.43883,5.69613 -1.26618,5.69613 0.17265,0 0.80574,-0.51781 1.72656,-1.55351 0.92088,-1.03561 1.55397,-3.02068 1.55397,-3.02068"
       id="path3151"
       style="fill:#0139ab;fill-opacity:1;fill-rule:evenodd;stroke:#000000;stroke-width:0.67720532pt;stroke-linecap:butt;stroke-linejoin:miter;stroke-opacity:1"
       inkscape:connector-curvature="0" />
    <path
       d="m 662.03181,309.98741 c 0.16281,0 0.81393,-7.8114 3.09289,-7.3232 2.27897,0.48821 1.4651,0.48829 2.27897,0.97641 0.81393,0.4882 2.44177,5.85859 2.44177,5.85859"
       id="path3153"
       sodipodi:nodetypes="cccc"
       style="fill:#fdd400;fill-opacity:1;fill-rule:evenodd;stroke:#000000;stroke-width:0.67720532pt;stroke-linecap:butt;stroke-linejoin:miter;stroke-opacity:1"
       inkscape:connector-curvature="0" />
    <path
       d="m 826.44601,314.57627 c -0.34564,-0.34523 -2.99291,-2.41663 -1.61148,-4.14271 1.38087,-1.72599 9.55385,-0.34523 9.55385,-0.34523"
       id="path3155"
       sodipodi:nodetypes="ccc"
       style="fill:#fdd400;fill-opacity:1;fill-rule:evenodd;stroke:#000000;stroke-width:0.67720532pt;stroke-linecap:butt;stroke-linejoin:miter;stroke-opacity:1"
       inkscape:connector-curvature="0" />
    <path
       d="m 758.2092,327.18224 c -1.04357,-0.16426 -2.07452,0.0353 -4.11678,-2.15159 -2.04174,-2.18704 -1.39439,-2.42792 -2.06693,-2.91438 -0.67198,-0.48657 -1.41503,0.15837 -2.74478,1.2056 -1.32972,1.0473 1.02837,6.06341 1.02837,6.06341"
       id="path3157"
       style="fill:#fdd400;fill-opacity:1;fill-rule:evenodd;stroke:#000000;stroke-width:0.67720532pt;stroke-linecap:butt;stroke-linejoin:miter;stroke-opacity:1"
       inkscape:connector-curvature="0" />
    <path
       style="fill:#f7d917;fill-opacity:1;fill-rule:evenodd;stroke:#000000;stroke-width:0.67720532pt;stroke-linecap:butt;stroke-linejoin:miter;stroke-opacity:1"
       d="m 768.75934,293.75959 c -0.23874,1.69364 -16.17775,11.33775 -10.37869,19.36162 1.82496,2.52511 6.43258,2.7632 6.98697,4.58284 0.55387,1.81984 -3.17154,4.67946 -6.99492,6.28634 -3.82334,1.60695 -4.54124,2.97916 -7.04749,3.17506 -2.50625,0.19589 -7.05424,-1.79525 -6.31704,2.16643 0.73722,3.96168 1.66037,3.80231 1.66037,3.80231 0,0 0.18334,2.14184 1.32437,3.55904 1.14151,1.41694 2.04226,2.18684 3.44424,1.66515 1.40249,-0.52189 1.35263,-1.97678 1.35263,-1.97678 0,0 0.81759,1.53748 3.35887,0.77606 2.54176,-0.7617 2.63472,-2.82223 2.74253,-2.86235 0.10781,-0.0401 2.39848,-0.1557 3.24884,-0.84049 0.85033,-0.68487 1.84407,-1.97542 1.84407,-1.97542 0,0 -0.23582,2.6661 -0.12802,2.62598 0.10781,-0.0401 2.09744,-0.96471 4.07399,-2.25271 1.97709,-1.28811 2.81261,-3.99331 2.7048,-3.9532 -0.1078,0.0401 -0.75017,3.59422 1.88632,2.429 2.63698,-1.16548 2.78791,-4.72093 4.84983,-5.11984 2.06245,-0.39911 2.90021,-1.44757 2.90021,-1.44757 0,0 0.058,-1.49493 0.46452,-2.38292 0.40654,-0.88801 1.10151,-1.33075 1.10151,-1.33075 0,0 1.60555,-0.96572 1.54533,-1.12754 -0.0602,-0.16174 -1.50493,-4.04427 -1.50493,-4.04427 0,0 -4.87217,0.79299 -4.00898,-2.19171 3.07645,-10.63755 31.30669,-11.00293 29.14445,-6.98735 -1.48594,-13.2563 -16.72229,-15.18873 -38.25378,-11.93693 z"
       id="path3159"
       sodipodi:nodetypes="cssssscsscssscssssscscscscc"
       inkscape:connector-curvature="0" />
    <path
       d="m 670.13262,289.54778 c 0.46044,-14.15396 2.99274,-8.28525 2.99274,-11.39218 0,-3.10701 -1.03595,-5.17832 -1.84169,-5.17832 -1.84165,0 -6.44587,5.8687 -6.44587,5.8687"
       id="path3161"
       sodipodi:nodetypes="cccc"
       style="fill:#fdd400;fill-opacity:1;fill-rule:evenodd;stroke:#000000;stroke-width:0.67720532pt;stroke-linecap:butt;stroke-linejoin:miter;stroke-opacity:1"
       inkscape:connector-curvature="0" />
    <path
       d="m 702.24703,299.21396 c -1.1511,-0.51689 -18.9924,-4.14171 -24.97788,-7.59396 -5.98548,-3.45216 -8.51779,-8.97571 -8.97822,-11.73741 -0.46044,-2.76177 0.69065,-7.24955 -2.76253,-7.24955 -3.45317,0 -1.61148,4.48778 -1.61148,4.48778 0,0 -2.76252,-7.24956 -4.83444,-3.10693 -2.07186,4.14262 2.53236,7.24963 2.53236,7.24963 0,0 -4.45446,-2.78118 -3.3381,1.726 1.87638,7.57538 4.94958,4.83309 5.40996,6.55917 0.46044,1.72616 -2.30208,3.45224 -1.84164,3.79748 0.46038,0.34523 2.30208,1.55342 3.45312,1.89865 1.1511,0.34532 2.76253,0.86304 2.76253,0.86304 l -1.72657,2.07049 c 0,0 3.22296,3.45216 4.83444,4.3152 1.61148,0.86312 3.6834,0 3.56826,0 -0.11508,0 -2.99274,1.89873 -2.99274,1.89873 0,0 1.61148,1.38077 3.33805,1.72608 1.72661,0.34524 3.22296,0.51781 3.22296,0.51781 l -1.84165,1.20827 24.86275,7.4223 0.92082,-16.05278 z"
       id="path3163"
       sodipodi:nodetypes="cccccccsccccccccccccc"
       style="fill:#f7d917;fill-opacity:1;fill-rule:evenodd;stroke:#000000;stroke-width:0.67720532pt;stroke-linecap:butt;stroke-linejoin:miter;stroke-opacity:1"
       inkscape:connector-curvature="0" />
    <path
       sodipodi:nodetypes="cscscscssssssssssscssccscsscsscsscssssssssssssssssscsscscscsssscssssssssssscscssscsssssssssssssccsccsccc"
       d="m 703.85851,296.45218 c -0.57552,0.17266 -11.16522,11.73758 -22.33044,12.25539 -11.16523,0.51772 -17.49601,-0.34532 -17.49601,-0.34532 0,0 -1.61148,-7.9401 -4.374,-4.3152 -2.76252,3.62482 -0.57552,5.00567 -0.57552,5.00567 0,0 0.46038,-0.17258 1.15104,0.69046 0.6906,0.86304 1.15104,1.89874 1.15104,1.89874 0,0 -3.68334,-4.48794 -3.68334,0.86296 0,5.35098 2.41716,3.45224 2.30208,3.45224 -0.11508,0 -0.57552,4.66052 0,4.83309 0.57552,0.17257 2.87766,1.03561 4.14378,0.69047 1.26618,-0.34524 1.1511,-1.38094 1.4964,-1.55351 0.3453,-0.17266 2.30208,-1.38085 2.64744,-0.86304 0.3453,0.51781 -2.18706,3.79739 -1.72662,3.79739 0.46044,0 4.25892,0 5.40996,-1.38084 1.15104,-1.38085 1.72657,-3.45216 1.8417,-3.27959 0.11508,0.17257 -1.95678,4.14263 -1.72661,4.14263 0.23021,0 4.37405,0.69046 5.40996,0.17257 1.03596,-0.51781 2.07191,-2.24389 2.07191,-2.24389 0,0 -0.69065,2.07132 -0.46043,2.24389 0.23022,0.17266 2.30213,0.34523 4.25891,-0.69047 1.95679,-1.03561 2.76253,-1.89865 2.76253,-1.89865 l -0.57552,2.41655 c 0,0 2.99274,-0.17258 4.7193,-2.07132 1.72661,-1.89874 2.53235,-2.07131 2.53235,-2.07131 0,0 -1.72661,2.93435 -1.49639,2.93435 0.23022,0 3.33804,-0.17257 4.7193,-0.86304 1.38132,-0.69046 2.76258,-1.20827 2.76258,-1.20827 0,0 -1.61148,2.41655 -1.4964,2.41655 0.11514,0 2.30214,0.17257 5.06466,-0.86304 2.76274,-1.0357 4.7193,-2.24398 4.7193,-2.24398 0,0 -3.22296,3.45216 -2.53225,3.45216 0.69072,0 4.83444,0.17266 6.90603,-1.03561 2.07214,-1.20827 2.5328,-2.41655 2.5328,-2.41655 0,0 6.67597,0.34532 8.0574,-1.20827 1.38087,-1.5535 1.03579,-2.24389 0.92076,-2.07131 -0.11502,0.17266 4.0287,1.03561 6.21532,1.5535 2.18716,0.51781 6.79155,0.69047 9.89948,-0.17265 3.10738,-0.86304 36.94846,-20.71313 43.16433,-20.3679 6.21586,0.34515 7.36668,2.58912 9.20822,2.41647 1.84208,-0.17258 2.87788,-1.0357 2.87788,-0.86304 0,0.17265 9.09319,10.5293 21.40934,9.83883 12.31671,-0.69046 9.89949,-1.72616 11.85605,-1.89873 1.95656,-0.17258 4.25875,1.72608 4.0287,3.45216 -0.23006,1.72616 -1.2664,2.76177 -2.53225,2.93443 -1.2664,0.17258 -2.64727,1.38085 -2.64727,3.10693 0,1.72608 1.38087,4.14262 2.87732,4.14262 1.49646,0 1.95712,-0.86304 2.41722,-1.03561 0.46066,-0.17257 0.92077,1.89874 2.87788,1.03561 1.95656,-0.86304 2.53225,-1.72608 2.99236,-1.89865 0.46066,-0.17266 3.45356,-0.34532 3.45356,-0.51789 0,-0.17258 0.23006,-5.69613 0.23006,-5.69613 0,0 3.22296,-0.34515 3.22296,-1.38085 0,-1.03561 -1.15082,-3.27958 -1.84154,-4.3152 -0.69071,-1.0357 -1.49645,-1.89874 -1.49645,-1.89874 0,0 2.18717,1.20828 2.64727,1.03562 0.46066,-0.17258 1.49646,-0.86304 1.49646,-0.86304 0,0 -1.49646,-2.58912 -2.64728,-3.45216 -1.15137,-0.86304 -3.91367,-1.72616 -3.91367,-1.72616 0,0 1.61148,-0.34515 2.87733,-1.38085 1.2664,-1.03562 2.41722,-2.41655 2.41722,-2.58921 0,-0.17257 -3.45302,-3.10684 -6.10029,-2.76169 -2.64727,0.34523 -6.33089,3.62482 -10.82025,3.62482 -4.48881,0 -9.32325,-3.45225 -9.32325,-3.45225 0,0 6.56095,0 9.55385,-0.17257 2.99236,-0.17257 9.43828,-2.24389 9.43828,-8.63048 0,-6.3866 -4.94947,-9.83884 -16.92054,-10.18399 -11.97052,-0.34523 -36.20516,-0.01 -43.76926,0.84631 -12.26149,1.38741 -24.12738,0.3787 -29.76756,0.3787 -5.64018,0 -7.13663,-1.20827 -7.25166,-3.97005 -0.0603,-1.44738 2.50345,-1.9466 4.95739,-2.16847 0.79681,-0.072 6.08246,-1.36534 12.54501,-1.34881 11.61155,0.0297 27.0225,1.40941 27.0225,1.25111 0,-0.5178 0.23006,-1.20827 0.34508,-1.20827 0.11503,0 0.92077,2.07131 2.07214,2.24389 1.15082,0.17257 3.45301,-0.34523 3.45301,-0.34523 0,0 0.92077,1.5535 2.53225,1.38093 1.61148,-0.17266 2.30219,-1.38093 2.30219,-1.38093 0,0 0.92077,1.20827 2.64728,1.03569 1.72706,-0.17257 2.9929,-2.41654 3.33854,-2.41654 0.34508,0 1.61148,0.34515 2.7623,-0.34523 1.15082,-0.69039 6.44592,-5.86871 6.44592,-5.86871 0,0 -4.60439,1.20827 -7.36669,1.20827 -2.76285,0 -4.48936,-1.5535 -7.94237,-1.03569 -3.45302,0.5178 -7.13664,2.07131 -9.0932,1.89873 -1.26935,-0.11193 -16.66822,-1.57889 -28.5278,-1.6882 -6.42582,-0.0592 -11.8126,1.19268 -13.34982,1.19268 -4.37378,0 -8.28745,4.3152 -8.74756,9.32086 -0.46066,5.00575 3.76925,4.9512 8.63253,7.59487 6.494,3.53012 65.13434,-1.57025 73.88245,-1.22501 8.74811,0.34515 14.38829,1.03569 14.38829,4.83309 0,3.79739 -5.87078,3.96996 -10.12954,3.79739 -4.25875,-0.17258 -14.15768,-1.89866 -21.40934,-1.72608 -7.25166,0.17257 -53.86955,10.18399 -62.27203,10.01133 -8.40303,-0.17257 -13.58255,-0.86304 -13.58255,-1.03561 0,-0.17258 -20.1435,2.5892 -20.1435,2.24388 z m 83.67609,-30.5575 c 0,0 0.57514,1.72624 1.38088,2.41663 0.80574,0.69038 1.95711,1.55342 1.95711,1.55342 m 1.49645,-3.45216 c 0,0 0.80574,0.17266 1.15082,0.86304 0.34564,0.69046 1.15138,1.5535 1.15138,1.5535 m 3.22296,-3.27958 c 0.69016,0 1.4959,2.07131 1.4959,2.07131"
       style="fill:#f7d917;fill-opacity:1;fill-rule:evenodd;stroke:#000000;stroke-width:0.67720532pt;stroke-linecap:butt;stroke-linejoin:miter;stroke-opacity:1"
       id="path3165"
       inkscape:connector-curvature="0" />
    <path
       d="m 696.29772,299.24987 c 0.16275,-0.24414 0.65106,-2.56308 1.05802,-4.27183 0.40696,-1.70875 1.13954,-3.90578 1.13954,-3.90578 0,0 -1.62785,1.09847 -1.54645,0.85442 0.0813,-0.24415 -0.32556,-3.66164 0.56972,-6.10274 0.89533,-2.441 1.7906,-3.78362 1.7906,-4.76003 0,-0.97648 -0.89527,-0.4882 -0.89527,-2.44109 0,-1.95289 -0.40697,-4.76019 0.65111,-5.37038 1.05808,-0.61028 4.3135,3.66155 4.3135,3.41749 0,-0.24406 -0.73224,-5.85859 0.65145,-6.22472 1.38364,-0.36613 3.33688,1.95289 3.33688,1.95289 0,0 0.65145,-4.88218 1.13976,-4.88218 0.48831,0 1.79066,3.78371 1.79066,3.78371 0,0 1.30235,-4.02777 1.79066,-4.02777 0.48831,0 1.95324,4.27183 1.95324,4.27183 0,0 0.73219,-3.66156 1.70936,-3.66156 0.97662,0 1.70881,4.3939 1.70881,4.3939 0,0 0.65145,-2.31902 1.54678,-2.07488 0.89533,0.24406 1.62752,6.10265 1.62752,6.10265 0,0 2.36081,-3.78371 3.90703,-3.29551 1.54623,0.48829 0,5.49254 0.0813,7.68941 0.0813,2.19695 1.54677,3.29551 1.62807,4.88219 0.0813,1.58667 0.0813,11.47303 0,11.47303 -0.0819,0 -16.35979,6.34671 -18.23174,5.98058 -1.87195,-0.36614 -11.63915,-3.53957 -11.72055,-3.78363 z"
       id="path3167"
       sodipodi:nodetypes="ccccccccccccccccccccccccc"
       style="fill:#f7d917;fill-opacity:1;fill-rule:evenodd;stroke:#000000;stroke-width:0.67720532pt;stroke-linecap:butt;stroke-linejoin:miter;stroke-opacity:1"
       inkscape:connector-curvature="0" />
    <path
       d="m 704.95182,288.34141 c -1.15138,2.84985 -5.58261,10.87628 -6.50349,12.25713 -0.92082,1.38085 -3.22291,3.45216 -3.22291,3.45216 0,0 0.92083,2.07123 2.53231,1.72608 1.61148,-0.34523 3.91356,-2.76178 3.91356,-2.76178 0,0 -2.58976,3.01886 -3.3955,4.65861 -0.80574,1.63983 -1.32369,4.40161 -1.32369,4.40161 0,0 3.22296,-0.0863 5.17974,-2.50287 1.95672,-2.41646 3.22312,-4.40153 3.16561,-4.40153 -0.0575,0 -1.8996,2.84819 -1.78457,4.91942 0.11558,2.07123 -0.28757,3.79739 -0.23,3.79739 0.0575,0 2.35965,-1.46718 3.39544,-2.67545 1.03635,-1.20827 2.64783,-3.97005 2.64783,-3.97005 0,0 -0.57569,3.53857 -0.23061,5.17832 0.34564,1.63976 1.2664,3.96997 1.20889,3.96997 -0.0575,0 1.61148,-1.12194 2.47473,-3.62473 0.86326,-2.50288 1.15082,-4.48786 1.15082,-4.48786 0,0 0.28812,3.45216 1.20889,4.66043 0.92077,1.20827 5.06449,0.94937 5.06449,0.94937 0,0 -1.43894,-0.51789 -1.89905,-2.93443 -0.46065,-2.41647 -0.28811,-5.26449 -0.28811,-5.26449 0,0 1.03634,3.19326 2.01462,3.53849 0.97828,0.34515 1.78402,-0.69047 2.47473,0 0.69072,0.69038 1.61148,3.0206 1.669,2.93427 0.0575,-0.0863 1.95656,-1.29452 0.92076,-4.22887 -1.03579,-2.93436 -3.10793,-3.10701 -4.20124,-5.00567 -1.09385,-1.89874 -1.7265,-4.83309 -1.7265,-4.91933 0,-0.0863 0.92076,4.22887 2.30219,5.17824 1.38087,0.94928 2.18661,1.98498 4.14373,2.07131 1.95656,0.0862 2.93484,1.5535 2.93484,2.76178 0,1.20827 -0.17254,1.98498 -0.17254,1.98498 0,0 2.24468,-0.51781 2.24468,-3.97005 0,-3.45216 -1.38143,-4.83309 -2.87788,-5.3509 -1.49646,-0.51781 -4.25876,-1.46717 -4.89196,-2.50279 -0.6332,-1.0357 -0.80574,-2.07131 -0.80574,-2.07131 0,0 0.23006,1.89865 1.49646,2.50279 1.2664,0.60414 2.93539,1.81241 4.08621,1.38085 1.15137,-0.43148 4.14373,-4.74677 4.14373,-4.74677 0,0 -2.7623,-0.51772 -5.64018,-1.72599 -2.87733,-1.20836 -3.54426,-5.43358 -3.54426,-5.43358 l -17.63503,0.25525 z"
       id="path3169"
       sodipodi:nodetypes="ccccccccccccccccccccccccccccccccccccccccc"
       style="fill:#f7d917;fill-opacity:1;fill-rule:evenodd;stroke:#000000;stroke-width:0.67720532pt;stroke-linecap:butt;stroke-linejoin:miter;stroke-opacity:1"
       inkscape:connector-curvature="0" />
    <path
       d="m 708.99489,302.30115 c 0,0 1.2205,-1.95272 3.1743,-2.07488 1.95324,-0.12207 4.15091,2.56317 4.15091,2.56317"
       id="path3171"
       style="fill:none;stroke:#000000;stroke-width:0.67720532pt;stroke-linecap:butt;stroke-linejoin:miter;stroke-opacity:1"
       inkscape:connector-curvature="0" />
    <path
       d="m 710.78544,294.00153 c 0,0.36613 -0.73274,2.31902 -0.5696,5.12624 0.16259,2.80722 2.36026,4.8821 2.36026,4.8821 0,0 2.36026,-1.4646 2.44155,-5.00417 0.0813,-3.53957 -0.32572,-5.49237 -0.32572,-5.49237 l -3.90649,0.4882 z"
       id="path3173"
       style="fill:#0139ab;fill-opacity:1;fill-rule:evenodd;stroke:#000000;stroke-width:0.67720532pt;stroke-linecap:butt;stroke-linejoin:miter;stroke-opacity:1"
       inkscape:connector-curvature="0" />
    <path
       d="m 712.73856,294.12365 c 0,0 0.0819,6.34679 0,6.34679"
       id="path3175"
       style="fill:none;stroke:#000000;stroke-width:0.84650666;stroke-linecap:round;stroke-linejoin:miter;stroke-opacity:1"
       inkscape:connector-curvature="0" />
    <path
       d="m 701.0998,286.55629 c 0.0814,0 1.38364,0.85433 1.38364,3.17335 0,2.31902 0.56977,5.37039 2.36054,5.37039 1.79065,0 2.52284,-1.34262 2.60414,-1.22055 0.0818,0.12207 1.22105,3.78363 3.01171,3.29543 1.79065,-0.4882 2.36026,-3.29543 2.36026,-3.29543 0,0 0.97662,3.66156 2.36025,3.29543 1.38364,-0.36613 2.19768,-3.66156 2.19768,-3.66156 0,0 1.13976,2.07488 2.36026,1.70867 1.22105,-0.36613 2.19767,-1.83066 2.68598,-3.41742 0.48831,-1.58676 0.65145,-4.51597 0.57016,-4.51597"
       id="path3177"
       sodipodi:nodetypes="ccccccccccc"
       style="fill:#fdd400;fill-opacity:0.996081;fill-rule:evenodd;stroke:#000000;stroke-width:0.67720532pt;stroke-linecap:butt;stroke-linejoin:miter;stroke-opacity:1"
       inkscape:connector-curvature="0" />
    <path
       d="m 710.21539,280.2095 c 0,0 1.54678,7.07913 -2.11582,6.95706 -3.66261,-0.12207 -1.79066,-3.29551 -2.93042,-3.41749 -1.13921,-0.12207 -1.70881,0 -1.70881,0"
       id="path3179"
       style="fill:none;stroke:#000000;stroke-width:0.67720532pt;stroke-linecap:butt;stroke-linejoin:miter;stroke-opacity:1"
       inkscape:connector-curvature="0" />
    <path
       d="m 713.47153,279.59923 c 0,0 -0.89532,8.17761 2.11583,7.56733 3.01171,-0.61027 3.7439,-3.78362 3.7439,-3.78362"
       id="path3181"
       style="fill:none;stroke:#000000;stroke-width:0.67720532pt;stroke-linecap:butt;stroke-linejoin:miter;stroke-opacity:1"
       inkscape:connector-curvature="0" />
    <path
       d="m 700.12307,275.20533 c 0,0 0.40696,3.41758 1.22089,5.49245 0.81387,2.07488 1.46504,1.70859 2.19767,2.0748 0,-1.46469 0,-2.07488 -0.89538,-4.02777 -0.89527,-1.95281 -2.52318,-3.29542 -2.52318,-3.53948 z"
       id="path3183"
       sodipodi:nodetypes="ccccc"
       style="fill:#000000;fill-opacity:0.99607801;fill-rule:evenodd;stroke:none"
       inkscape:connector-curvature="0" />
    <path
       d="m 721.28505,282.28438 c 0,-0.12199 -0.32572,-2.56308 0.56961,-4.76003 0.89533,-2.19704 1.87195,-2.68515 1.87195,-2.68515 0,0 0.16258,1.9528 -0.48831,3.90569 -0.6509,1.95281 -1.70937,3.9057 -1.95325,3.53949 z"
       id="path3185"
       style="fill:#000000;fill-opacity:0.99607801;fill-rule:evenodd;stroke:none"
       inkscape:connector-curvature="0" />
    <path
       d="m 705.90189,282.77258 c 0.40702,0 2.03454,-2.68523 3.98778,0"
       id="path3187"
       sodipodi:nodetypes="cc"
       style="fill:none;stroke:#000000;stroke-width:0.67720532pt;stroke-linecap:butt;stroke-linejoin:miter;stroke-opacity:1"
       inkscape:connector-curvature="0" />
    <path
       d="m 714.61074,282.16239 c 2.03509,-2.19695 4.23221,0.4882 4.23221,0.4882"
       id="path3189"
       sodipodi:nodetypes="cc"
       style="fill:none;stroke:#000000;stroke-width:0.67720532pt;stroke-linecap:butt;stroke-linejoin:miter;stroke-opacity:1"
       inkscape:connector-curvature="0" />
    <path
       d="m 709.6458,284.35925 c 0,0.74119 -0.74763,1.34258 -1.66829,1.34258 -0.92126,0 -1.66889,-0.60139 -1.66889,-1.34258 0,-0.7411 0.74763,-1.34258 1.66889,-1.34258 0.92066,0 1.66829,0.60148 1.66829,1.34258 z"
       id="path3191"
       style="font-size:12px;fill:none;stroke:#000000;stroke-width:0.75692601pt"
       inkscape:connector-curvature="0" />
    <path
       d="m 718.19203,284.11515 c 0,0.74119 -0.72939,1.34258 -1.6276,1.34258 -0.89879,0 -1.62819,-0.60139 -1.62819,-1.34258 0,-0.7411 0.7294,-1.34258 1.62819,-1.34258 0.89821,0 1.6276,0.60148 1.6276,1.34258 z"
       id="path3193"
       style="font-size:12px;fill:none;stroke:#000000;stroke-width:0.74763823pt"
       inkscape:connector-curvature="0" />
    <path
       d="m 707.93643,282.65059 c 0,0.12199 0.0818,3.17335 0.0818,3.17335"
       id="path3195"
       style="fill:none;stroke:#000000;stroke-width:0.67720532pt;stroke-linecap:butt;stroke-linejoin:miter;stroke-opacity:1"
       inkscape:connector-curvature="0" />
    <path
       d="m 716.4014,282.52852 0.0813,3.05137"
       id="path3197"
       style="fill:none;stroke:#000000;stroke-width:0.67720532pt;stroke-linecap:butt;stroke-linejoin:miter;stroke-opacity:1"
       inkscape:connector-curvature="0" />
    <path
       d="m 123.48288,49.413345 c 0,1.828913 -1.94387,3.311539 -4.34177,3.311539 -2.39789,0 -4.34177,-1.482626 -4.34177,-3.311539 0,-1.828912 1.94388,-3.311539 4.34177,-3.311539 2.3979,0 4.34177,1.482627 4.34177,3.311539 z"
       id="path3199"
       sodipodi:cx="119.14111"
       sodipodi:cy="49.413345"
       sodipodi:rx="4.3417702"
       sodipodi:ry="3.3115389"
       sodipodi:type="arc"
       style="fill:#000000;fill-opacity:1;fill-rule:evenodd;stroke:none"
       transform="matrix(0.487401,0,0,0.718722,654.5065,255.9849)" />
    <path
       d="m 836.11489,311.46926 c 0,0 -0.34564,1.89874 0.11502,2.93435 0.46011,1.0357 1.49646,3.10701 1.49646,3.10701"
       id="path3201"
       style="fill:none;stroke:#000000;stroke-width:0.67720532pt;stroke-linecap:butt;stroke-linejoin:miter;stroke-opacity:1"
       inkscape:connector-curvature="0" />
    <path
       d="m 833.00695,313.02277 c 0,0 -1.7265,1.89873 -1.61148,3.10701 0.11503,1.20827 0.57514,2.41646 0.57514,2.41646"
       id="path3203"
       style="fill:none;stroke:#000000;stroke-width:0.67720532pt;stroke-linecap:butt;stroke-linejoin:miter;stroke-opacity:1"
       inkscape:connector-curvature="0" />
    <path
       d="m 838.87719,309.05272 c 2.18716,0.69046 2.18716,2.41654 2.18716,2.41654"
       id="path3205"
       style="fill:none;stroke:#000000;stroke-width:0.67720532pt;stroke-linecap:butt;stroke-linejoin:miter;stroke-opacity:1"
       inkscape:connector-curvature="0" />
    <path
       d="m 748.34461,331.03714 c -0.37155,0.32239 -1.61589,2.25878 -1.61589,2.25878"
       id="path3207"
       style="fill:none;stroke:#000000;stroke-width:0.67720532pt;stroke-linecap:butt;stroke-linejoin:miter;stroke-opacity:1"
       inkscape:connector-curvature="0" />
    <path
       d="m 752.37598,332.29958 c -0.41914,0.52432 -1.13876,0.2396 -0.75291,1.93773 0.3864,1.69803 1.22689,2.30603 1.22689,2.30603"
       id="path3209"
       style="fill:none;stroke:#000000;stroke-width:0.67720532pt;stroke-linecap:butt;stroke-linejoin:miter;stroke-opacity:1"
       inkscape:connector-curvature="0" />
    <path
       d="m 757.25549,331.22055 c 0.10781,-0.0401 1.05614,0.52785 1.35713,1.33671 0.30102,0.80894 0.23097,1.93999 0.23097,1.93999"
       id="path3211"
       style="fill:none;stroke:#000000;stroke-width:0.67720532pt;stroke-linecap:butt;stroke-linejoin:miter;stroke-opacity:1"
       inkscape:connector-curvature="0" />
    <path
       d="m 660.9242,313.71317 c -0.11508,0 -0.92082,1.03569 -0.92082,2.24397"
       id="path3213"
       sodipodi:nodetypes="cc"
       style="fill:none;stroke:#000000;stroke-width:0.67720532pt;stroke-linecap:butt;stroke-linejoin:miter;stroke-opacity:1"
       inkscape:connector-curvature="0" />
    <path
       d="m 794.60518,297.98603 c -1.14142,-1.2946 -2.18385,-3.13155 -2.18385,-3.13155"
       id="path3215"
       sodipodi:nodetypes="cc"
       style="fill:none;stroke:#000000;stroke-width:0.67720532pt;stroke-linecap:butt;stroke-linejoin:miter;stroke-opacity:1"
       inkscape:connector-curvature="0" />
  </g>
  <path
     sodipodi:nodetypes="cccccsccsscccccssccsccccc"
     d="m 98.95833,73.063605 c 28.63304,0 55.29915,6.08027 71.01829,13.9628 3.08462,-19.36742 14.0316,-38.73443 26.9455,-53.372419 -13.47278,-0.225504 -19.51059,5.517159 -19.64757,11.484899 -3.36956,-7.656613 -16.56288,-7.20647 -20.63377,-3.04013 14.73841,7.99462 3.36957,22.18207 -9.96072,19.25489 -6.26244,-1.37457 -9.57174,-4.878 -10.7442,-9.96439 0.18245,-0.37564 -3.06715,-0.32445 -3.09019,-0.38551 -4.21332,5.51761 -11.76882,7.17395 -17.18202,5.95806 -7.01854,-1.57633 -9.96618,-6.64336 -9.96618,-11.14729 0,-11.710402 14.0316,-13.511793 18.24492,-11.484898 C 123.66291,26.447644 108.22325,20.141839 103.45105,26.672628 108.78207,19.016071 108.50267,8.206333 98.95833,1 89.41945,8.206333 89.13457,19.016071 94.47106,26.672628 89.69887,20.141839 74.25921,26.447644 73.97973,34.329617 c 4.20784,-2.026895 18.24492,-0.225504 18.24492,11.484898 0,4.50393 -2.94764,9.57096 -9.96618,11.14729 -5.41321,1.21589 -12.9687,-0.44045 -17.18751,-5.95806 -0.22421,-0.46121 -2.65157,0.0387 -3.0847,0.38551 -1.17246,5.08639 -4.48725,8.58982 -10.7442,9.96439 -13.33029,2.92718 -24.69913,-11.26027 -9.9662,-19.25489 -4.06541,-4.16634 -17.25873,-4.616483 -20.62829,3.04013 C 20.50513,39.171145 14.47278,33.428482 1,33.653986 c 12.90842,14.637989 23.85541,34.004999 26.9455,53.372419 15.71914,-7.88253 42.38525,-13.9628 71.01283,-13.9628 z"
     id="crown"
     style="fill:#f7d917;fill-opacity:1;stroke:#000000;stroke-width:2;stroke-miterlimit:4;stroke-opacity:1;stroke-dasharray:none"
     inkscape:connector-curvature="0" />
  <path
     sodipodi:type="arc"
     style="fill:#f7d917;fill-opacity:1;fill-rule:evenodd;stroke:#000000;stroke-width:2;stroke-miterlimit:4;stroke-opacity:1;stroke-dasharray:none;marker:none;visibility:visible;display:inline;overflow:visible;enable-background:accumulate"
     id="path7926"
     sodipodi:cx="564"
     sodipodi:cy="109.5"
     sodipodi:rx="8"
     sodipodi:ry="8"
     d="m 572,109.5 a 8,8 0 1 1 -16,0 8,8 0 1 1 16,0 z"
     transform="translate(-502.78872,-66.452415)" />
  <path
     sodipodi:type="arc"
     style="fill:#f7d917;fill-opacity:1;fill-rule:evenodd;stroke:#000000;stroke-width:2;stroke-miterlimit:4;stroke-opacity:1;stroke-dasharray:none;marker:none;visibility:visible;display:inline;overflow:visible;enable-background:accumulate"
     id="path8086"
     sodipodi:cx="564"
     sodipodi:cy="109.5"
     sodipodi:rx="8"
     sodipodi:ry="8"
     d="m 572,109.5 a 8,8 0 1 1 -16,0 8,8 0 1 1 16,0 z"
     transform="matrix(-1,0,0,1,700.71088,-66.452413)" />
</svg>
