<svg width="1280" height="288" fill="none" xmlns="http://www.w3.org/2000/svg"><path fill="#141923" d="M0 0h1280v288H0z"/><circle cx="1162" cy="144" r="10" fill="#307970"/><circle cx="1186" cy="144" r="10" fill="#307970"/><circle cx="1209" cy="144" r="10" fill="#307970"/><circle cx="121.5" cy="143.5" r="42.5" fill="#3A9D91" stroke="#0F0C0C" stroke-width="2"/><path d="M119.812 155.236v-20.448l1.332 1.008-4.968 2.628-1.044-3.384 6.732-3.6h1.872v23.796h-3.924ZM115.816 157v-3.744h12.024V157h-12.024Z" fill="#F5F5FA"/><circle cx="241.5" cy="143.5" r="42.5" fill="#3A9D91" stroke="#0F0C0C" stroke-width="2"/><path d="m234.487 157-1.188-2.952 7.704-8.676c.408-.432.828-.924 1.26-1.476.456-.576.888-1.164 1.296-1.764.408-.6.732-1.188.972-1.764.264-.6.396-1.164.396-1.692 0-.768-.156-1.416-.468-1.944a2.865 2.865 0 0 0-1.296-1.26c-.552-.288-1.224-.432-2.016-.432-.696 0-1.38.204-2.052.612-.672.408-1.284.984-1.836 1.728s-.984 1.608-1.296 2.592l-2.988-1.872c.408-1.392 1.02-2.58 1.836-3.564a8.423 8.423 0 0 1 2.988-2.304c1.176-.528 2.448-.792 3.816-.792 1.416 0 2.676.3 3.78.9a6.371 6.371 0 0 1 2.592 2.448c.624 1.032.936 2.232.936 3.6 0 .552-.06 1.116-.18 1.692a9.728 9.728 0 0 1-.576 1.8c-.264.6-.6 1.236-1.008 1.908-.408.648-.9 1.332-1.476 2.052a35.573 35.573 0 0 1-1.908 2.268l-5.724 6.228-.72-1.08h12.384V157h-15.228Z" fill="#F5F5FA"/><circle cx="361.5" cy="143.5" r="42.5" fill="#3A9D91" stroke="#0F0C0C" stroke-width="2"/><path d="M360.509 157.36c-1.776 0-3.324-.408-4.644-1.224-1.296-.816-2.52-2.184-3.672-4.104l3.024-1.908c.6.888 1.188 1.62 1.764 2.196.6.552 1.212.96 1.836 1.224a5.03 5.03 0 0 0 1.98.396c.84 0 1.62-.204 2.34-.612a4.872 4.872 0 0 0 1.728-1.764c.432-.744.648-1.584.648-2.52 0-.936-.168-1.728-.504-2.376a3.335 3.335 0 0 0-1.476-1.512c-.648-.36-1.416-.54-2.304-.54a6.3 6.3 0 0 0-1.296.144c-.432.072-.9.192-1.404.36-.504.144-1.056.336-1.656.576l-1.08-2.844 7.776-8.568.756 1.116h-10.728v-3.6h14.436l.72 1.44-8.244 9.144-.9-.936c.192-.096.504-.18.936-.252.456-.096.828-.144 1.116-.144 1.056 0 2.04.204 2.952.612.936.384 1.74.936 2.412 1.656a7.303 7.303 0 0 1 1.62 2.484c.408.936.612 1.944.612 3.024 0 1.632-.396 3.096-1.188 4.392a8.42 8.42 0 0 1-3.132 3.024c-1.32.744-2.796 1.116-4.428 1.116Z" fill="#F5F5FA"/><circle cx="481.5" cy="143.5" r="42.5" fill="#3A9D91" stroke="#0F0C0C" stroke-width="2"/><path d="M482.51 157v-20.304l.9.216-8.28 10.116-.144-.432h15.66v3.564h-18.072l-1.656-3.24 12.348-15.12h2.988V157h-3.744Z" fill="#F5F5FA"/><circle cx="601.5" cy="143.5" r="42.5" fill="#3A9D91" stroke="#0F0C0C" stroke-width="2"/><path d="M601.022 157.252c-1.656 0-3.156-.372-4.5-1.116-1.344-.768-2.46-1.86-3.348-3.276l2.16-2.412c1.128 1.248 2.112 2.1 2.952 2.556.84.456 1.752.684 2.736.684.984 0 1.872-.216 2.664-.648a4.906 4.906 0 0 0 1.872-1.764c.48-.744.72-1.572.72-2.484 0-.96-.228-1.812-.684-2.556a4.708 4.708 0 0 0-1.764-1.8c-.744-.456-1.584-.684-2.52-.684-.456 0-.888.036-1.296.108-.408.048-.9.18-1.476.396-.576.216-1.332.552-2.268 1.008l-2.052-2.772 1.476-10.692h13.608v3.6h-11.16l.756-.684-1.188 7.992-.9-1.044c.24-.24.648-.468 1.224-.684.576-.24 1.212-.432 1.908-.576a9.039 9.039 0 0 1 2.052-.252c1.536 0 2.904.36 4.104 1.08a7.476 7.476 0 0 1 2.88 2.916c.72 1.248 1.08 2.676 1.08 4.284 0 1.656-.396 3.156-1.188 4.5a8.919 8.919 0 0 1-3.24 3.168c-1.368.768-2.904 1.152-4.608 1.152Z" fill="#F5F5FA"/><circle cx="721.5" cy="143.5" r="42.5" fill="#3A9D91" stroke="#0F0C0C" stroke-width="2"/><path d="M722.168 157c-1.248 0-2.412-.216-3.492-.648a8.83 8.83 0 0 1-2.772-1.872 9.036 9.036 0 0 1-1.836-2.808c-.432-1.08-.648-2.268-.648-3.564 0-.648.084-1.368.252-2.16.192-.816.468-1.704.828-2.664.384-.96.84-1.968 1.368-3.024a43.116 43.116 0 0 1 1.836-3.348l3.276-5.544h3.78l.144.36-3.96 6.66A78.868 78.868 0 0 0 719 141.88a37.643 37.643 0 0 0-1.404 3.132c-.384.96-.672 1.836-.864 2.628l-.864-3.708a11.47 11.47 0 0 1 1.476-1.944 8.563 8.563 0 0 1 1.692-1.44 7.774 7.774 0 0 1 1.944-.864 7.563 7.563 0 0 1 2.088-.288c1.392 0 2.664.384 3.816 1.152a8.195 8.195 0 0 1 2.808 2.988c.72 1.248 1.08 2.616 1.08 4.104 0 1.8-.372 3.408-1.116 4.824a8.391 8.391 0 0 1-3.024 3.312c-1.296.816-2.784 1.224-4.464 1.224Zm0-3.6c.936 0 1.764-.216 2.484-.648a4.645 4.645 0 0 0 1.728-1.872c.432-.816.648-1.74.648-2.772 0-.888-.216-1.716-.648-2.484a5.302 5.302 0 0 0-1.728-1.908 4.253 4.253 0 0 0-2.412-.72c-.984 0-1.86.228-2.628.684a4.894 4.894 0 0 0-1.8 1.836c-.432.768-.648 1.62-.648 2.556 0 1.008.216 1.92.648 2.736a5.187 5.187 0 0 0 1.764 1.908c.744.456 1.608.684 2.592.684Z" fill="#F5F5FA"/><circle cx="841.5" cy="143.5" r="42.5" fill="#3A9D91" stroke="#0F0C0C" stroke-width="2"/><path d="m836.276 157 10.44-22.752.432 1.152h-12.744v-3.6h15.588l.504 2.484L840.452 157h-4.176Z" fill="#F5F5FA"/><circle cx="961.5" cy="143.5" r="42.5" fill="#3A9D91" stroke="#0F0C0C" stroke-width="2"/><path d="M961.98 157.108c-1.56 0-2.988-.324-4.284-.972-1.272-.672-2.292-1.56-3.06-2.664a6.287 6.287 0 0 1-1.152-3.672c0-.744.096-1.44.288-2.088a6.318 6.318 0 0 1 .936-1.836 8.42 8.42 0 0 1 1.548-1.512c.6-.456 1.296-.864 2.088-1.224l-.216.756a8.61 8.61 0 0 1-1.692-.864c-.48-.36-.9-.768-1.26-1.224a5.287 5.287 0 0 1-.828-1.476 5.429 5.429 0 0 1-.252-1.656c0-1.272.348-2.424 1.044-3.456.72-1.032 1.668-1.86 2.844-2.484 1.2-.624 2.532-.936 3.996-.936s2.784.312 3.96.936c1.2.624 2.148 1.452 2.844 2.484a5.901 5.901 0 0 1 1.08 3.456c0 .576-.096 1.128-.288 1.656a4.596 4.596 0 0 1-.756 1.44 5.661 5.661 0 0 1-1.296 1.188c-.504.36-1.08.672-1.728.936l-.108-.612c.72.288 1.368.66 1.944 1.116.6.456 1.116.972 1.548 1.548.432.576.756 1.188.972 1.836.24.648.36 1.32.36 2.016a6.343 6.343 0 0 1-1.152 3.708c-.768 1.104-1.8 1.98-3.096 2.628-1.272.648-2.7.972-4.284.972Zm0-3.6c.888 0 1.68-.168 2.376-.504.72-.336 1.284-.792 1.692-1.368.408-.576.612-1.236.612-1.98 0-.792-.204-1.488-.612-2.088-.408-.624-.972-1.116-1.692-1.476-.696-.36-1.488-.54-2.376-.54-.888 0-1.68.18-2.376.54a4.292 4.292 0 0 0-1.656 1.476c-.408.6-.612 1.296-.612 2.088 0 .72.204 1.368.612 1.944.408.576.96 1.044 1.656 1.404.696.336 1.488.504 2.376.504Zm0-11.412c.768 0 1.452-.144 2.052-.432.624-.288 1.104-.672 1.44-1.152.36-.504.54-1.08.54-1.728 0-.648-.18-1.224-.54-1.728-.336-.504-.816-.9-1.44-1.188-.6-.312-1.284-.468-2.052-.468s-1.464.156-2.088.468c-.6.288-1.08.684-1.44 1.188a3.043 3.043 0 0 0-.504 1.728c0 .648.168 1.224.504 1.728.36.48.84.864 1.44 1.152.624.288 1.32.432 2.088.432Z" fill="#F5F5FA"/><circle cx="1081.5" cy="143.5" r="42.5" fill="#3A9D91" stroke="#0F0C0C" stroke-width="2"/><path d="m1080.29 157-.14-.36 7.49-15.912.11 2.988c-.44.72-.92 1.356-1.44 1.908a8.862 8.862 0 0 1-1.7 1.44c-.6.384-1.22.684-1.87.9-.65.192-1.31.288-1.98.288-1.37 0-2.63-.36-3.78-1.08a8.223 8.223 0 0 1-2.77-2.88c-.7-1.2-1.04-2.508-1.04-3.924 0-1.704.38-3.228 1.15-4.572.77-1.368 1.81-2.448 3.13-3.24 1.34-.792 2.84-1.188 4.5-1.188 1.2 0 2.33.216 3.38.648a8.422 8.422 0 0 1 2.78 1.836 8.607 8.607 0 0 1 1.87 2.7 7.86 7.86 0 0 1 .68 3.24c0 .6-.06 1.248-.18 1.944-.12.672-.32 1.44-.61 2.304-.26.84-.62 1.812-1.08 2.916-.46 1.08-1.02 2.34-1.69 3.78l-2.99 6.264h-3.82Zm1.3-12.348c.94 0 1.78-.204 2.52-.612.74-.432 1.32-.996 1.73-1.692.43-.72.65-1.524.65-2.412 0-.936-.21-1.776-.62-2.52a4.413 4.413 0 0 0-1.72-1.8c-.72-.432-1.55-.648-2.49-.648-.86 0-1.63.216-2.3.648-.67.408-1.21.984-1.62 1.728-.39.72-.58 1.572-.58 2.556 0 .84.19 1.62.58 2.34.41.72.95 1.308 1.62 1.764.67.432 1.41.648 2.23.648Z" fill="#F5F5FA"/><path stroke="#08B663" stroke-width="2" d="M61 77v34M422 77v34M61 78h360"/><path d="M215.173 71V57.224c0-.768.168-1.448.504-2.04.336-.608.8-1.08 1.392-1.416.592-.352 1.28-.528 2.064-.528.544 0 1.048.096 1.512.288.464.176.856.424 1.176.744l-.912 2.232a2.44 2.44 0 0 0-.672-.408 1.642 1.642 0 0 0-.648-.144c-.32 0-.592.056-.816.168a1.02 1.02 0 0 0-.48.456 1.763 1.763 0 0 0-.144.744V71h-2.976Zm-1.968-9.792v-2.592h7.8v2.592h-7.8ZM223.443 71V58.352h2.904l.048 4.032-.408-.912a4.5 4.5 0 0 1 .912-1.728 4.829 4.829 0 0 1 1.488-1.2 3.807 3.807 0 0 1 1.8-.456c.272 0 .528.024.768.072.256.048.464.104.624.168l-.792 3.24a2.752 2.752 0 0 0-.648-.24 3.156 3.156 0 0 0-.768-.096c-.4 0-.784.08-1.152.24a2.824 2.824 0 0 0-.936.624 3.079 3.079 0 0 0-.648.96 3.146 3.146 0 0 0-.216 1.2V71h-2.976Zm15.346.24c-1.264 0-2.392-.28-3.384-.84a6.379 6.379 0 0 1-2.352-2.352c-.576-.992-.864-2.12-.864-3.384 0-1.264.288-2.392.864-3.384a6.2 6.2 0 0 1 2.352-2.328c.992-.576 2.12-.864 3.384-.864 1.248 0 2.368.288 3.36.864a6.028 6.028 0 0 1 2.328 2.328c.576.992.864 2.12.864 3.384 0 1.264-.288 2.392-.864 3.384a6.2 6.2 0 0 1-2.328 2.352c-.992.56-2.112.84-3.36.84Zm0-2.616c.688 0 1.296-.176 1.824-.528a3.627 3.627 0 0 0 1.272-1.416c.32-.592.472-1.264.456-2.016.016-.768-.136-1.448-.456-2.04a3.453 3.453 0 0 0-1.272-1.392c-.528-.352-1.136-.528-1.824-.528-.688 0-1.312.176-1.872.528a3.418 3.418 0 0 0-1.272 1.416c-.304.592-.456 1.264-.456 2.016s.152 1.424.456 2.016a3.627 3.627 0 0 0 1.272 1.416c.56.352 1.184.528 1.872.528ZM247.934 71V58.352h2.904l.048 2.544-.48.192c.144-.416.36-.8.648-1.152a4.12 4.12 0 0 1 1.032-.936c.4-.272.824-.48 1.272-.624a4.04 4.04 0 0 1 1.368-.24c.688 0 1.296.112 1.824.336a3 3 0 0 1 1.344 1.008c.368.464.64 1.056.816 1.776l-.456-.096.192-.384c.176-.384.424-.728.744-1.032.32-.32.68-.6 1.08-.84.4-.256.816-.448 1.248-.576a4.79 4.79 0 0 1 1.32-.192c.96 0 1.76.192 2.4.576.64.384 1.12.968 1.44 1.752.32.784.48 1.752.48 2.904V71h-2.976v-7.44c0-.64-.088-1.168-.264-1.584-.16-.416-.416-.72-.768-.912-.336-.208-.76-.312-1.272-.312-.4 0-.784.072-1.152.216-.352.128-.656.32-.912.576a2.544 2.544 0 0 0-.816 1.896V71h-2.976v-7.464c0-.608-.088-1.112-.264-1.512-.176-.416-.432-.728-.768-.936-.336-.224-.744-.336-1.224-.336-.4 0-.776.072-1.128.216a2.607 2.607 0 0 0-1.512 1.392c-.144.32-.216.672-.216 1.056V71h-2.976Z" fill="#F5F5FA"/><path stroke="#08B663" stroke-width="2" d="M901 210v-34M420 210v-34M902 209H421"/><path d="M637.963 234v-15.864h2.952V234h-2.952Zm-2.496-9.912v-2.736h8.208v2.736h-8.208Zm15.115 10.152a4.928 4.928 0 0 1-2.832-.864c-.848-.576-1.528-1.36-2.04-2.352-.512-.992-.768-2.12-.768-3.384 0-1.264.256-2.392.768-3.384s1.208-1.768 2.088-2.328c.88-.56 1.872-.84 2.976-.84.64 0 1.224.096 1.752.288a4.21 4.21 0 0 1 1.392.768c.4.336.728.72.984 1.152.272.432.456.896.552 1.392l-.648-.168v-3.168h2.976V234h-3v-3.024l.696-.12c-.112.432-.32.856-.624 1.272-.288.4-.656.76-1.104 1.08-.432.304-.92.552-1.464.744a4.949 4.949 0 0 1-1.704.288Zm.816-2.616c.688 0 1.296-.168 1.824-.504.528-.336.936-.8 1.224-1.392.304-.608.456-1.304.456-2.088 0-.768-.152-1.448-.456-2.04a3.344 3.344 0 0 0-1.224-1.392c-.528-.336-1.136-.504-1.824-.504-.688 0-1.296.168-1.824.504-.512.336-.912.8-1.2 1.392-.288.592-.432 1.272-.432 2.04 0 .784.144 1.48.432 2.088a3.405 3.405 0 0 0 1.2 1.392c.528.336 1.136.504 1.824.504Zm12.567-1.488-.576-2.76 6-6.024h3.936l-9.36 8.784Zm-2.76 3.864v-17.76h2.952V234h-2.952Zm8.544 0-4.656-5.64 2.088-1.776 6.216 7.416h-3.648Zm10.977.24c-1.328 0-2.504-.28-3.528-.84a6.26 6.26 0 0 1-2.376-2.28c-.56-.976-.84-2.088-.84-3.336 0-.992.16-1.896.48-2.712.32-.816.76-1.52 1.32-2.112a5.791 5.791 0 0 1 2.04-1.392 6.688 6.688 0 0 1 2.616-.504c.832 0 1.608.16 2.328.48.72.32 1.344.76 1.872 1.32.528.544.928 1.2 1.2 1.968.288.752.424 1.576.408 2.472l-.024 1.032h-10.248l-.552-2.016h8.328l-.384.408v-.528a2.548 2.548 0 0 0-.48-1.296 2.714 2.714 0 0 0-1.056-.888 2.889 2.889 0 0 0-1.392-.336c-.784 0-1.448.152-1.992.456a2.918 2.918 0 0 0-1.2 1.32c-.272.56-.408 1.264-.408 2.112 0 .816.168 1.528.504 2.136.352.608.84 1.08 1.464 1.416.64.32 1.384.48 2.232.48.592 0 1.136-.096 1.632-.288.496-.192 1.032-.536 1.608-1.032l1.464 2.04c-.432.4-.928.744-1.488 1.032a8.939 8.939 0 0 1-1.728.648c-.608.16-1.208.24-1.8.24Z" fill="#F5F5FA"/></svg>