<svg xmlns="http://www.w3.org/2000/svg" viewBox="0 0 64 64">
  <path fill="#fff" d="M51.69 25.2c1.35 0 2.78.2 4.31.67l-8.6-23.2A14.65 14.65 0 0 0 43.1 2C31.74 2 25.83 16.64 14.5 16.64c-1.35 0-2.78-.2-4.3-.67l-2.2.78L24.5 62h2.6l-8.26-22.74c1.53.47 2.91.58 4.26.58 11.34 0 17.25-14.65 28.59-14.65m-33.7 11.77L11.2 18.3c7.84 1.96 13.38-2.84 18.9-7.46C34.27 7.36 38.16 4 43.1 4c.9 0 1.84.1 2.8.33l7 18.91a15.25 15.25 0 0 0-1.2-.05c-6.4 0-11.07 3.97-15.59 7.8-4.14 3.52-8.06 6.85-13 6.85-.9 0-3.19-.16-5.1-.88"/>
</svg>