<?xml version="1.0" encoding="UTF-8" standalone="no"?>
<svg
   xmlns:dc="http://purl.org/dc/elements/1.1/"
   xmlns:cc="http://creativecommons.org/ns#"
   xmlns:rdf="http://www.w3.org/1999/02/22-rdf-syntax-ns#"
   xmlns:svg="http://www.w3.org/2000/svg"
   xmlns="http://www.w3.org/2000/svg"
   xmlns:xlink="http://www.w3.org/1999/xlink"
   xmlns:sodipodi="http://sodipodi.sourceforge.net/DTD/sodipodi-0.dtd"
   xmlns:inkscape="http://www.inkscape.org/namespaces/inkscape"
   version="1.1"
   width="900"
   height="600"
   id="svg27"
   sodipodi:docname="Flag_of_the_Republic_of_Hong_Kong.svg"
   inkscape:version="0.92.3 (2405546, 2018-03-11)">
  <defs
     id="defs31" />
  <sodipodi:namedview
     pagecolor="#ffffff"
     bordercolor="#666666"
     borderopacity="1"
     objecttolerance="10"
     gridtolerance="10"
     guidetolerance="10"
     inkscape:pageopacity="0"
     inkscape:pageshadow="2"
     inkscape:window-width="1920"
     inkscape:window-height="1017"
     id="namedview29"
     showgrid="false"
     inkscape:zoom="0.44626295"
     inkscape:cx="450"
     inkscape:cy="300"
     inkscape:window-x="-8"
     inkscape:window-y="-8"
     inkscape:window-maximized="1"
     inkscape:current-layer="petal" />
  <metadata
     id="metadata2">
    <rdf:RDF>
      <cc:Work
         rdf:about="">
        <dc:format>image/svg+xml</dc:format>
        <dc:type
           rdf:resource="http://purl.org/dc/dcmitype/StillImage" />
        <dc:title />
      </cc:Work>
    </rdf:RDF>
  </metadata>
  <rect
     style="fill:#ffffff"
     width="900"
     height="600"
     id="rect4" />
  <g
     id="petal">
    <path
       d="m 449.96406,299.9134 c -105.26305,-44.48626 -58.60174,-181.58185 42.06956,-174.6907 -20.36609,10.46694 -23.31775,29.99772 -11.68704,48.09021 13.02444,20.2558 -1.19897,52.84856 -18.80577,60.7674 -28.93485,13.02443 -34.72791,47.74999 -11.57675,65.83309 z"
       style="fill:#fe0000;fill-opacity:1"
       id="path6"
       inkscape:connector-curvature="0" />
    <path
       d="m 450.56002,298.75902 c -12.73114,-6.53451 -22.9963,-20.15491 -27.46839,-36.43134 -5.11498,-18.66969 -2.17269,-38.74247 8.08308,-55.03768 l -2.20789,-1.39371 c -10.64057,16.92871 -13.69313,37.74293 -8.38575,57.11886 4.72784,17.22201 15.21355,31.09815 28.78703,38.06438 z"
       style="fill:#ffffff;fill-opacity:1"
       id="path8"
       inkscape:connector-curvature="0" />
  </g>
  <use
     transform="matrix(-0.809017,-0.58778525,0.58778525,-0.809017,637.70988,807.33155)"
     xlink:href="#petal"
     id="use11" />
  <use
     transform="matrix(-0.80901699,0.58778526,-0.58778526,-0.80901699,990.3791,278.06866)"
     xlink:href="#petal"
     id="use13" />
  <use
     transform="matrix(0.30901699,0.95105652,-0.95105652,0.30901699,596.79675,-220.70502)"
     xlink:href="#petal"
     id="use15" />
  <use
     transform="matrix(0.30901699,-0.95105652,0.95105652,0.30901699,25.219923,635.18378)"
     xlink:href="#petal"
     id="use17" />
  <rect
     style="fill:#fe0000;fill-opacity:1"
     width="40.206184"
     height="600"
     x="39.175259"
     id="rect19" />
  <rect
     style="fill:#000095;fill-opacity:1"
     width="39.175259"
     height="600"
     x="100"
     id="rect21" />
  <rect
     x="820.67041"
     height="600"
     width="40.206184"
     style="fill:#fe0000;fill-opacity:1"
     id="rect23" />
  <rect
     style="fill:#000095;fill-opacity:1"
     width="39.175259"
     height="600"
     x="759.79382"
     id="rect25" />
</svg>
